<?xml version="1.0" encoding="iso-8859-1"?>
<!-- Generator: Adobe Illustrator 19.0.0, SVG Export Plug-In . SVG Version: 6.00 Build 0)  -->
<svg version="1.1" id="Layer_1" xmlns="http://www.w3.org/2000/svg" xmlns:xlink="http://www.w3.org/1999/xlink" x="0px" y="0px"
	 viewBox="0 0 512 512" style="enable-background:new 0 0 512 512;" xml:space="preserve">
<path style="fill:#027EA8;" d="M200,504H40v-496h343.952c13.281,0,24.047,10.767,24.047,24.047v351.953"/>
<path style="fill:#FBA218;" d="M464,504H185.273c-31.63,0-57.272-26.863-57.272-59.999l0,0c0-33.137,25.642-59.999,57.272-59.999
	H464"/>
<path style="fill:#84DCCF;" d="M184.001,408L184.001,408c-17.673,0-32,14.326-32,32v8c0,17.673,14.326,32,32,32l0,0"/>
<rect x="200.005" y="383.998" style="fill:#FBA218;" width="264" height="119.999"/>
<rect x="184.004" y="399.916" style="fill:#027EA8;" width="31.571" height="88.312"/>
<rect x="144.001" y="71.995" style="fill:#84DCCF;" width="223.996" height="111.998"/>
<rect x="168.003" y="95.997" style="fill:#FFFFFF;" width="176.003" height="64"/>
<rect x="71.995" y="8.001" style="fill:#F15A24;" width="32" height="495.997"/>
<rect x="192.446" y="399.916" width="15.77" height="88.312"/>
<rect x="215.575" y="399.916" width="248.114" height="15.77"/>
<rect x="215.575" y="424.096" width="248.114" height="15.77"/>
<rect x="215.575" y="448.277" width="248.114" height="15.77"/>
<rect x="215.575" y="472.457" width="248.114" height="15.77"/>
<path d="M184,488c-22.057,0-40-17.943-40-40v-8c0-22.057,17.943-40,40-40v16c-13.234,0-24,10.766-24,24v8c0,13.234,10.766,24,24,24
	V488z"/>
<rect x="64.184" y="47.72" width="15.77" height="416.327"/>
<path d="M188,392h292v-16H188c-37.495,0-68,30.505-68,68c0,20.843,9.435,39.516,24.248,52H111.49V16h272.462
	C392.8,16,400,23.2,400,32.049v335.953h16V32.048C416,14.377,401.623,0,383.953,0H32v512H480v-16H200.001H188
	c-28.672,0-52-23.328-52-52S159.327,392,188,392z M48.001,16h16.181v15.953h15.77V16h15.77v480h-15.77v-16.181h-15.77V496H48.001V16
	z"/>
<path d="M376,192H136V64.001h240V192z M152,176h208V80.001H152V176z"/>
<polygon points="352.245,111.854 336.475,111.854 336.475,103.444 175.622,103.444 175.622,111.854 159.852,111.854 159.852,87.674 
	352.245,87.674 "/>
<polygon points="352.245,167.575 159.852,167.575 159.852,144.445 175.622,144.445 175.622,151.805 336.475,151.805 
	336.475,144.445 352.245,144.445 "/>
<g>
	<rect x="159.855" y="120.262" style="fill:#FBA218;" width="15.77" height="15.77"/>
	<rect x="336.478" y="120.262" style="fill:#FBA218;" width="15.77" height="15.77"/>
</g>
<rect x="199.805" y="120.262" style="fill:#F14507;" width="112.492" height="15.77"/>
<rect x="135.674" y="208.573" style="fill:#FFFFFF;" width="136.673" height="15.77"/>
<rect x="135.674" y="240.113" style="fill:#F14507;" width="39.951" height="15.77"/>
<g>
</g>
<g>
</g>
<g>
</g>
<g>
</g>
<g>
</g>
<g>
</g>
<g>
</g>
<g>
</g>
<g>
</g>
<g>
</g>
<g>
</g>
<g>
</g>
<g>
</g>
<g>
</g>
<g>
</g>
</svg>
