<?xml version="1.0" encoding="iso-8859-1"?>
<!-- Generator: Adobe Illustrator 19.0.0, SVG Export Plug-In . SVG Version: 6.00 Build 0)  -->
<svg version="1.1" id="Layer_1" xmlns="http://www.w3.org/2000/svg" xmlns:xlink="http://www.w3.org/1999/xlink" x="0px" y="0px"
	 viewBox="0 0 496.158 496.158" style="enable-background:new 0 0 496.158 496.158;" xml:space="preserve">
<path style="fill:#4ABC96;" d="M248.075,0C111.07,0,0,111.062,0,248.083c0,137.005,111.07,248.075,248.075,248.075
	c137.013,0,248.083-111.07,248.083-248.075C496.158,111.062,385.088,0,248.075,0z"/>
<g>
	<path style="fill:#776046;" d="M200.487,282.755c0,0,5.702-2.314,14.096-5.042c-6.528-9.544-11.472-20.339-14.328-32.102
		c-0.709-2.93-1.257-5.86-1.687-8.798c-0.132-0.386-0.291-0.761-0.417-1.151c-2.559,0.853-5.156,1.634-7.819,2.28
		c-24.447,5.933-49.304,1.97-70.249-9.211c-3.845,8.332-4.407,17.531,0.059,27.255c9.022,19.646,27.463,52.666,27.463,52.666
		c2.006,13.167-11.694,31.52-18.028,39.19c-1.867,2.261-2.071,2.276-2.244,3.951c-0.172,1.68,0.149,3.52,0.149,3.52l11.317,43.933
		c0,0,0.49,1.419,1.572,2.307c1.083,0.896,2.54,0.608,2.54,0.608l29.827-1.144c-1.151-17.397-15.859-11.522-15.859-11.522
		l-2.928-29.362C195.331,321.662,200.487,282.755,200.487,282.755z"/>
	<path style="fill:#776046;" d="M314.118,377.499l12.792-89.473c3.001-2.854,6.073-7.226,9.016-12.218
		c-2.733-0.589-5.413-1.308-8.048-2.115c-12.382,3.232-25.51,4.12-38.765,2.215c-5.47,5.164-11.541,9.655-18.001,13.507
		c-0.645,2.383-1.383,4.728-2.196,7.035c7.425,1.752,12.186,2.796,12.186,2.796c17.958,20.545,18.656,71.655,18.635,86.615
		c-0.004,1.285-0.128,4.625,0.635,5.784c0.734,1.117,4.558,1.614,4.558,1.614l20.45,2.792
		C333.627,383.053,314.118,377.499,314.118,377.499z"/>
</g>
<path style="fill:#493E30;" d="M76.446,258.044c-11.426,4.567-28.735,2.945-36.56,10.772c0,0,23.5,8.159,35.905,3.263
	s27.094-15.343,27.094-15.343l14.607-37.128C117.493,219.608,87.872,253.473,76.446,258.044z"/>
<path style="fill:#826A4D;" d="M432.013,147.953c-2.425-6.25-36.772-11.663-36.772-11.663c-11.2-6.721-2.991-16.904-24.833-27.354
	c-8.545-4.089-25.763-1.308-33.042,4.292c-10.998,8.461-18.051,23.674-22.468,41.339c-7.834,31.336-10.12,39.825-22.85,45.211
	c-42.171,17.841-77.953,5.692-112.125,4.078c-34.173-1.607-85.523,14.364-78.341,51.25c4.133,21.223,14.264,57.658,14.264,57.658
	c-1.155,13.27-18.797,27.871-26.761,33.827c-2.349,1.76-2.551,1.729-3.114,3.313c-0.563,1.591-0.685,3.458-0.685,3.458l0.635,45.36
	c0,0,0.142,1.492,0.983,2.617c0.841,1.117,2.326,1.186,2.326,1.186l28.112,1.339c2.983-17.175-12.696-14.934-12.696-14.934
	l5.226-24.643c49.284-27.625,63.472-64.218,63.472-64.218s30.885-4.613,54.322-0.75c31.666,5.225,77.848,7.475,77.848,7.475
	c21.12,17.275,30.292,67.562,32.756,82.312c0.21,1.27,0.643,4.586,1.587,5.6c0.911,0.983,4.763,0.842,4.763,0.842l20.629-0.643
	c5.975-14.192-14.184-16.43-14.184-16.43l-2.242-90.352c8.963-11.946,13.576-45.827,14.222-54.889
	c0.652-9.139,6.855-13.71,15.022-35.713c8.318-22.408,15.684-21.651,15.684-21.651s15.293-0.65,19.222-1.224
	C428.279,172.404,434.43,154.196,432.013,147.953z"/>
<path style="fill:#493E30;" d="M432.013,147.953c-0.608-1.564-3.209-3.076-6.771-4.46l-4.059,8.006
	c3.171,3.171,10.734,4.304,10.734,4.304C432.693,152.627,432.72,149.778,432.013,147.953z"/>
<g>
	<path style="fill:#63492E;" d="M363.686,158.029c0,0-0.563-0.559-1.68,3.083c-1.121,3.642,2.1,19.884-2.804,21.421
		c-4.9,1.538-26.212-17.145-27.333-20.786c-1.117-3.642,13.195-23.036,19.354-33.257c1.625-2.693,6.561-4.074,6.721-4.762
		c0.241-1.048-7.282-0.016-7.421,0.141c-2.332,2.625-22.663,34.428-21.825,38.161c0.979,4.357,26.446,26.382,32.188,22.324
		C366.623,180.292,363.686,158.029,363.686,158.029z"/>
	<path style="fill:#63492E;" d="M292.065,279.151c-1.683-6.066,2.054-20.809,2.238-22.121c0.188-1.308-0.558-1.679-0.558-1.679
		s-6.721,20.721-5.788,24.455c0.933,3.737,17.554,26.987,17.554,26.987l3.726,3.255
		C309.237,310.048,293.745,285.218,292.065,279.151z"/>
</g>
<path style="fill:#493E30;" d="M374.794,128.536c-0.746,0-2.031,2.372-2.708,4.575c-0.956,3.129-1.067,6.093-0.336,6.266
	c2.2,0.505,12.191-1.018,12.191-3.221C383.94,132.767,375.544,128.536,374.794,128.536z"/>
<g>
</g>
<g>
</g>
<g>
</g>
<g>
</g>
<g>
</g>
<g>
</g>
<g>
</g>
<g>
</g>
<g>
</g>
<g>
</g>
<g>
</g>
<g>
</g>
<g>
</g>
<g>
</g>
<g>
</g>
</svg>
