<?xml version="1.0"?>
<svg xmlns:rdf="http://www.w3.org/1999/02/22-rdf-syntax-ns#" xmlns="http://www.w3.org/2000/svg" xmlns:cc="http://web.resource.org/cc/" xmlns:xlink="http://www.w3.org/1999/xlink" xmlns:dc="http://purl.org/dc/elements/1.1/" xmlns:svg="http://www.w3.org/2000/svg" id="Layer_1" xml:space="preserve" overflow="visible" viewBox="0 0 444.595 328.348" version="1.1" enable-background="new 0 0 444.595 328.348">
<g clip-rule="evenodd" fill-rule="evenodd">
	<path d="m219.48 11.675c-0.086-1.09 1.781-0.228 2.514-0.503 0.09 1.09-1.77 0.228-2.51 0.503z"/>
	<path d="m238.58 15.696c-11.945 1.229-23.443-0.132-34.674 1.508 0.095-1.854 2.689-0.927 3.517-1.006 9.35-0.899 21.59-1.49 31.15-0.502z" fill="#FFD07B"/>
	<path d="m239.08 16.198c2.04-1.437 3.27 1.641 0 0z" fill="#FFD07B"/>
	<path d="m252.15 17.705c-2.956-0.561-6.055-0.98-9.547-1.004 0.51-0.881 8.4-0.792 9.55 1.004z" fill="#FFD07B"/>
	<path d="m199.88 17.204c0.063-1.11 2.131-0.214 3.016-0.503-0.06 1.11-2.13 0.214-3.02 0.503z" fill="#FFD07B"/>
	<path d="m252.65 17.705c-0.084-1.09 1.782-0.228 2.513-0.501 0.09 1.088-1.78 0.226-2.51 0.501z" fill="#FFD07B"/>
	<path d="m159.18 19.715c-0.218 0.619-0.642 1.032-1.507 1.005 0.22-0.618 0.65-1.031 1.51-1.005z"/>
	<path d="m293.86 22.229c1.189-1.156 4.51-0.18 6.532-0.503-0.41 2.103-5.22 0.759-6.53 0.503z"/>
	<path d="m124.51 22.229h1.006v1.005h-1.006v-1.005z"/>
	<path d="m330.04 26.249c-7.641 0.076-14.198-0.353-19.097-0.503 0.023 0.001-9.325-0.236-4.522-0.502 4.122-0.229 15.45-0.263 19.599 0 0.78 0.049 3.33-0.937 4.02 1.005z"/>
	<path d="m135.06 25.746c-0.128 1.664-21.704-0.322-10.554-0.502 2.91-0.048 8.4-0.321 10.55 0.502z"/>
	<path d="m143.1 28.76c-0.219 0.619-0.644 1.033-1.508 1.005 0.22-0.617 0.65-1.031 1.51-1.005z" fill="#FFD07B"/>
	<path d="m150.14 28.76c0.448 0.223 0.899 0.442 1.005 1.005 1.979 23.654 6.732 47.203 8.04 69.851-1.543-2.266-1.66-5.329-2.009-8.041-2.538-19.728-4.518-41.514-7.538-61.307-0.14-0.811 0.48-0.865 0.51-1.508z"/>
	<path d="m313.96 29.264c0.217-1.124 2.477-0.204 3.517-0.503-0.22 1.123-2.48 0.204-3.52 0.503z"/>
	<path d="m319.99 28.76h1.004v1.005h-1.004v-1.005z"/>
	<path d="m118.48 32.279c-1.553 1.426-8.158-0.003-12.06 0.502 2.51-2.086 9.97-0.76 12.06-0.502z"/>
	<path d="m325.01 32.279h1.005v1.005h-1.005c-0.01-0.336-0.01-0.67-0.01-1.005z"/>
	<path d="m109.43 33.786h1.005v1.005h-1.005c-0.01-0.335-0.01-0.67-0.01-1.005z"/>
	<path d="m334.56 35.293h1.003v1.005h-1.003v-1.005z"/>
	<path d="m123.5 39.816c0.812-0.141 0.866 0.475 1.508 0.502 3.114 17.565 8.065 34.294 12.06 51.76 1.282 5.601 3.03 11.34 3.017 17.086-1.987-1.646-1.821-5.565-2.514-8.543-4.036-17.344-9.46-40.43-14.573-59.297-0.15-0.811 0.47-0.865 0.49-1.507z"/>
	<path d="m187.82 41.826c1.466-0.739 1.466 2.247 0 1.507v-1.507z"/>
	<path d="m188.33 46.35c2.286 14.248 1.845 30.699 3.015 43.719-2.177-1.168-1.807-5.604-2.011-9.548-0.164-3.192 0.128-7.009 0-10.553-0.28-7.87-1.83-16.444-1-23.618z"/>
	<path d="m101.39 53.886h1.507c6.978 20.538 16.168 41.927 23.115 63.318 0.238 0.732 1.401 2.869 0 3.517-2.312-2.002-2.627-5.455-3.518-8.041-6.584-19.135-13.819-38.654-21.104-57.286-0.61-0.66-0.2-0.79-0.01-1.508z"/>
	<path d="m119.99 130.27c-0.939 1.741-2.112 3.248-3.015 5.026-11.538-17.629-21.695-38.8-33.167-57.288 0.36-1.364-2.369 0.36-2.01-1.005 0.842-3.513 3.277-5.433 4.523-8.543h1.508c4.84 9.508 9.647 19.188 14.573 29.147 4.776 9.659 8.746 20.151 14.07 29.146 0.78 1.33 1.02 3.29 3.51 3.51z" fill="#FFE09B"/>
	<path d="m346.12 68.962c0.886-0.161 0.896 2.815-0.505 2.01-0.22-1.05 0.34-1.33 0.5-2.01z"/>
	<path d="m355.67 72.982c0.581-0.082 0.893 0.112 1.003 0.503-6.851 21.626-12.744 44.206-20.1 65.327-2.03-1.454 0.365-5.103 1.004-7.035 5.842-17.672 11.45-38.787 17.086-57.287 0.18-0.663 0.89-0.793 1.01-1.511z"/>
	<path d="m345.11 75.997v1.005c-2.45 0.504-0.92-2.673 0-1.005z"/>
	<path d="m81.292 78.007c11.586 18.231 21.408 38.224 32.664 56.784 0.074 1.1 1.266 1.079 2.512 1.006-0.252 2.092-1.758 2.932-2.01 5.024-4.14-3.686-6.578-8.876-9.548-13.567-8.562-13.522-16.933-28.373-26.633-41.206 0.175-3.505 1.792-5.574 3.015-8.037z" fill="#FFE09B"/>
	<path d="m343.1 79.516c1.854 0.403 0.418 2.068 0 3.015-1.12-0.213-0.39-2.667 0-3.015z"/>
	<path d="m53.653 83.033c0.585-0.082 0.895 0.111 1.005 0.502-2.277 5.479-6.298 9.98-9.548 14.573-3.304 4.669-6.142 9.455-9.547 14.071-1.46-1.169 0.944-2.708 0.502-4.523 6.43-7.64 11.642-16.504 17.588-24.627z" fill="#FFD07B"/>
	<path d="m362.2 83.535c0.445 0.223 0.897 0.442 1.004 1.005-6.568 19.095-13.435 38.364-20.604 57.287-0.93 2.453-1.606 5.64-4.02 7.036 3.186-11.05 7.676-21.475 11.557-32.162 3.82-10.52 7.333-21.237 11.56-31.658-0.14-0.821 0.47-0.874 0.5-1.517z"/>
	<path d="m341.09 85.545c0.812-0.142 0.865 0.476 1.507 0.503-3.592 12.309-6.894 25.777-10.553 38.694-0.439 1.554-0.037 4.199-2.01 5.025 2.66-15.75 8.12-28.72 11.05-44.215z"/>
	<path d="m77.774 88.058c11.288 17.355 21.761 35.525 33.166 52.764 0.426 1.082 1.238 1.778 3.016 1.508-1.223 2.463-1.398 5.972-2.011 9.045-6.591-6.705-11.66-14.923-18.09-23.618-2.499-3.378-5.757-7.483-9.046-12.061-4.067-5.661-9.02-9.141-8.542-17.588 6.059 8.096 11.761 16.604 17.588 25.126 5.719 8.364 10.264 17.708 17.587 24.624 1.165-3.091-2.151-5.108-3.518-7.036-10.379-14.646-20.585-31.68-31.156-46.733-0.065-2.404-0.038-4.722 1-6.029z" fill="#FFE09B"/>
	<path d="m202.9 90.068c0.235 1.564-1.263 1.796-2.011 1.005 0.12-0.884 0.87-1.146 2.01-1.005z"/>
	<path d="m393.86 90.068c6.321 7.584 9.793 18.015 16.585 25.126 0.267 1.909 0.755 3.6 1.507 5.024-1.748 0.965-1.963-1.653-2.513-2.513-3.479-5.434-7.078-12.373-11.056-18.593-2.12-3.317-4.42-4.745-4.52-9.039z" fill="#FFD07B"/>
	<path d="m52.146 92.078c2.501 1.196-0.673 5.254 1.005 7.538-7.964 7.949-12.193 19.633-20.604 27.136-0.24-9.745 6.14-15.065 10.553-21.106 3.385-4.63 5.419-9.526 9.046-13.562z" fill="#FFD07B"/>
	<path d="m190.84 93.585c0.584-0.082 0.895 0.112 1.005 0.503 0.601 5.965 2.87 12.831 3.015 17.588-2.57-4.8-3.16-11.58-4.02-18.095z"/>
	<path d="m394.36 98.108c6.06 8.348 10.703 18.108 16.583 26.634 0.121 0.883 0.864 1.145 2.01 1.004-0.433 2.003 0.75 3.713 0 4.522-4.232-4.573-6.919-10.231-10.049-15.578-2.98-5.08-7.63-9.86-8.54-16.572z" fill="#FFD07B"/>
	<path d="m382.8 100.12c1.071-0.235 0.957 0.718 1.004 1.508-0.406-0.097-0.5-0.504-1.004-0.503v-1.01z"/>
	<path d="m159.18 103.13c0.585-0.082 0.895 0.111 1.005 0.502 1.731 8.062 3.574 16.181 7.538 22.613 1.173 1.903 3.817 3.099 3.518 5.528-6.84-6.4-10.93-18.19-12.06-28.64z"/>
	<path d="m375.77 103.64c1.467-0.739 1.467 2.247 0 1.508v-1.51z"/>
	<path d="m59.181 104.14h1.005c0.235 1.072-0.718 0.958-1.508 1.005 0.096-0.4 0.505-0.5 0.503-1z"/>
	<path d="m372.75 105.65h1.005v1.005h-1.005c-0.01-0.34-0.01-0.68-0.01-1.01z"/>
	<path d="m393.86 105.65c7.1 9.651 12.473 21.031 19.6 30.654-0.021 8.047-2.129 15.18-4.523 21.105-3.709 9.184-9.007 17.637-15.577 24.624-1.524 1.621-3.361 3.836-5.528 4.021-5.455-12.467-12.109-23.738-17.587-36.182 3.097-3.435 5.707-7.359 9.547-10.051 6.67 10.752 12.68 22.163 19.599 32.665 1.763-2.425-1.955-5.949-3.52-8.543-4.909-8.163-10.426-17.578-15.073-26.132 1.071-3.451 3.737-5.306 5.024-8.543 4.524 4.302 7.209 10.138 10.552 15.579 3.213 5.225 6.678 10.56 10.051 15.577 1.495-2.151-1.806-5.85-3.517-8.542-3.432-5.397-6.482-10.833-10.051-17.086-2.99-5.241-7.533-8.889-2.514-14.573 3.636 4.674 6.849 9.969 10.051 15.076 3.284 5.235 5.815 10.806 10.052 15.075 0.221-3.5-2.789-6.188-4.523-9.045-3.59-5.915-6.895-11.808-10.552-18.091-1.627-2.795-5.235-5.695-3.519-9.548 4.317 3.891 7.049 9.579 10.051 14.573 3.045 5.069 6.536 9.719 9.547 14.573 2.6-3.424-2.057-6.199-3.517-8.542-0.775-1.242-1.626-3.106-2.514-4.523-3.987-6.37-8.493-14.488-12.562-21.106 0.69-0.65 0.3-2.38 1-3.02z" fill="#FFD07B"/>
	<path d="m58.678 106.15c1.097-0.09 1.599 0.412 1.508 1.508h-1.508v-1.51z"/>
	<path d="m78.779 113.18c0.812-0.142 0.865 0.474 1.508 0.502 7.402 11.526 15.845 22.011 24.121 32.664-2.929-0.326-4.95-4.27-7.036-7.035-6.039-7.99-13.18-17.13-18.595-26.12z" fill="#FFD07B"/>
	<path d="m140.09 113.18c2.357 1.477 2.662 4.81 3.516 7.035 2.542 6.61 6.276 14.003 11.559 18.593 1.792 1.557 4.463 1.532 5.024 4.523-11.2-5.55-16.82-16.67-20.1-30.15z"/>
	<path d="m196.37 114.69v1.005c-2.45 0.5-0.93-2.68 0-1.01z"/>
	<path d="m195.87 116.7c1.833 0.242 2.726 3.315 2.01 4.523-1.23-0.94-1.56-2.79-2.01-4.52z"/>
	<path d="m319.48 120.22v1.508c-1.051 0.212-1.332-0.345-2.011-0.503 0.13-0.89 0.87-1.15 2.01-1.01z"/>
	<path d="m55.162 122.23c0.617 0.22 1.031 0.643 1.004 1.508-3.224 4.455-6.303 9.096-9.547 13.568-3.25 4.48-5.93 9.474-10.05 13.065 1.262-5.762 6.008-9.291 9.045-13.568 3.363-4.75 6.029-9.69 9.548-14.58z"/>
	<path d="m320.99 122.73c1.566-0.235 1.798 1.263 1.006 2.01-0.88-0.12-1.15-0.86-1.01-2.01z"/>
	<path d="m30.036 127.25c1.146 0.697 0.187 3.498 0.502 5.024-1.941-0.65-1.706-3.75-0.502-5.02z" fill="#FFD07B"/>
	<path d="m205.41 128.76c0.811-0.142 0.864 0.475 1.508 0.502-0.097 0.407-0.504 0.501-0.503 1.005h-1.005c-0.01-0.49-0.01-1-0.01-1.5z"/>
	<path d="m201.39 129.26c1.073-0.234 0.957 0.718 1.005 1.508h-1.508c0.27-0.4 0.53-0.81 0.5-1.51z"/>
	<path d="m219.99 131.27h1.004v1.508h-1.507c-0.14-0.81 0.48-0.86 0.51-1.51z"/>
	<path d="m173.76 133.28c1.165 0.141 1.155 1.342 0.502 2.011-1.17-0.14-1.16-1.34-0.5-2.01z"/>
	<path d="m30.036 134.29c1.518 5.851 2.053 12.686 4.522 17.587-0.502 0.837-2.324 0.355-2.512 1.507-2.775 8.947-6.464 17.931-9.548 26.634-1.02 2.879-1.083 6.406-3.518 8.543-0.503-2.679-1.106-5.26-1.508-8.04 4.046-9.118 7.081-20.079 10.553-30.152 1.019-2.956 3.994-6.47 2.01-9.548-2.539 1.971-2.513 5.623-3.519 8.543-2.789 8.106-6.548 16.974-9.045 25.627 0.285-6.637 3.707-13.287 6.03-20.1 2.319-6.79 4.45-13.72 6.535-20.6z" fill="#FFD07B"/>
	<path d="m119.48 134.29c6.279 11.141 13.524 21.316 26.131 26.129-1.17 2.879-6.21 0.196-8.543-1.003-7.601-3.91-14.241-12.218-18.09-19.599-0.122-0.884-0.865-1.145-2.01-1.005 0.79-1.57 1.32-3.38 2.51-4.53z" fill="#FFE09B"/>
	<path d="m192.35 135.3c0.305 0.867 2.383-0.039 2.512 1.005 0.476 1.816-1.979 0.701-3.015 1.005 0.88-1.02-0.37-0.98 0.51-2z" fill="#FFD07B"/>
	<path d="m64.207 137.81c-2.628 5.214-6.306 9.897-9.548 14.574-3.289 4.743-6.115 9.988-10.553 13.568 2.562-5.066 5.838-9.563 9.046-14.071 3.08-4.33 6.704-8.442 9.045-13.568 0.446-0.39 1.134-0.54 2.01-0.5z"/>
	<path d="m200.89 139.32c1.354-1.159 4.847-0.179 7.035-0.503h7.036c-3.69 1.16-9.54 0.16-14.07 0.5z" fill="#FFD07B"/>
	<path d="m324.01 139.82c1.762 0.396 0.58 1.758 0 2.513-1.77-0.4-0.58-1.76 0-2.51z"/>
	<path d="m202.4 140.32c-1.1 1.53-3.22-0.58 0 0z" fill="#FFD07B"/>
	<path d="m203.91 140.82c1.022-1.153 4.171-0.182 6.029-0.501-1.03 1.15-4.18 0.18-6.03 0.5z" fill="#FFD07B"/>
	<path d="m199.38 142.33c1.354-1.158 4.847-0.179 7.035-0.502-1.36 1.15-4.85 0.18-7.04 0.5z" fill="#FFD07B"/>
	<path d="m207.42 142.33c0.217-1.123 2.478-0.203 3.518-0.502-0.82 0.64-2.72 1.3-3.52 0.5z" fill="#FFD07B"/>
	<path d="m414.46 142.33c2.021 0.657 1.924 3.437 2.511 5.528-1.024-0.65-0.914-2.437-3.014-2.011-0.25-1.59 0.9-1.78 0.5-3.52z" fill="#FFD07B"/>
	<path d="m322 142.83c2.3 0.34-0.41 3.05 0 0z"/>
	<path d="m167.22 143.84c0.812-0.141 0.865 0.476 1.507 0.503 0.2 0.98-2.29 0.73-1.51-0.5z"/>
	<path d="m332.05 143.84c0.585-0.081 0.894 0.112 1.004 0.503-6.564 9.851-14.048 18.783-28.643 20.603 2.119-2.272 5.923-2.141 9.046-3.517 7.82-3.45 13.99-10.3 18.59-17.58z"/>
	<path d="m77.272 144.84c0.88 0.46 1.745 0.934 1.507 2.513-0.845-0.62-2.566-1.46-1.507-2.51z"/>
	<path d="m320.49 144.84c2.18 0.21-0.53 2.92 0 0z"/>
	<path d="m203.4 145.85c1.53-1.86 1.7 1.52 0 0z" fill="#FFD07B"/>
	<path d="m225.52 145.34c-3.6 1.51-5.77-0.56 0 0z" fill="#FFD07B"/>
	<path d="m224.51 147.86c-5.088 1.344-13 0.198-18.09 0.502 2.542-1.419 6.737-1.047 10.552-1.005 2.79 0.02 4.95 0.4 7.54 0.5z"/>
	<path d="m234.56 147.86c0.858-1.15 3.837-0.185 5.527-0.503-0.86 1.14-3.84 0.18-5.53 0.5z" fill="#FFD07B"/>
	<path d="m319.48 147.86c-4.396 5.152-9.378 9.717-18.09 10.552 1.601-2.014 4.414-2.043 6.532-3.015 4.041-1.854 7.787-4.445 10.554-8.04 0.59-0.09 0.91 0.11 1.01 0.5z"/>
	<path d="m18.98 147.86c1.008-0.171 1.572 0.103 1.507 1.005h-1.507v-1z" fill="#FFE09B"/>
	<path d="m251.64 148.36h1.007c0.235 1.073-0.717 0.957-1.507 1.005 0.1-0.4 0.51-0.5 0.5-1z" fill="#FFD07B"/>
	<path d="m227.02 149.36c-2.24 1.914-4.504 0.499-7.537 0.502 2.31-1.33 5.3-0.5 7.54-0.5z"/>
	<path d="m287.83 148.86c1.008-0.172 1.573 0.102 1.507 1.004h-1.507v-1z"/>
	<path d="m413.96 148.86c0.427-0.093 0.475 0.195 0.503 0.502 2.163 5.762 4.7 11.345 7.034 17.084 2.257 5.552 5.564 11.504 5.025 18.093-4.677-8.558-7.811-18.655-11.559-28.143-0.465-1.21-1.47-1.879-2.511-2.512 0.02-2.15 0.65-3.69 1.51-5.02z" fill="#FFD07B"/>
	<path d="m423.5 148.86h1.007v1.004h-1.007v-1z" fill="#FFE09B"/>
	<path d="m195.36 149.36h2.011c0.505 1.512-1.12 0.891-2.011 1.005v-1z"/>
	<path d="m227.52 149.87c0.374-1.133 2.818-0.197 4.021-0.502-1.25 1.37-1.93 0.41-4.02 0.5z"/>
	<path d="m237.07 150.37c-0.73-0.777-2.572-0.443-4.021-0.502-1.6-0.46 4.79-1.43 4.02 0.5z"/>
	<path d="m279.28 149.36h1.006v1.005h-1.006v-1z"/>
	<path d="m19.984 149.87c-0.073 1.098-1.266 1.079-2.512 1.005-0.516-1.7 1.564-0.79 2.512-1.01z" fill="#FFE09B"/>
	<path d="m198.38 151.38c1.024-1.153 4.174-0.181 6.03-0.502-0.7 2.04-4.39 0.61-6.03 0.5z"/>
	<path d="m209.94 151.88c-1.647-0.817-1.922 0.114-4.02 0-0.56-1.6 4.57-1.6 4.02 0z"/>
	<path d="m239.08 150.87c-1.376 2.239-6.458 1.005-11.053 1.005h-14.072c0.856-1.891 3.74-0.963 5.528-1.005 5.84-0.15 13.3 0.1 19.59-0.01z"/>
	<path d="m16.97 152.38c-0.199-0.976 2.289-0.734 1.508 0.502h-1.005c0.091-0.42-0.197-0.47-0.503-0.5z" fill="#FFE09B"/>
	<path d="m113.45 152.38c2.31 0.34-0.4 3.04 0 0z" fill="#FFD07B"/>
	<path d="m187.32 152.88c-4.83 2.1-5.64-2.07 0 0z"/>
	<path d="m187.82 152.88c2.02-1.164 6.191-0.174 9.045-0.502-1.12 1.84-7.11 1.08-9.04 0.5z"/>
	<path d="m197.38 152.38h3.516c0.402 1.91-2.376 0.638-3.516 1.004v-1z"/>
	<path d="m212.45 152.38v1.004h-8.041c0.8-2.21 5.6-0.42 8.04-1z"/>
	<path d="m426.52 152.88c-0.458 0.872-1.761 1.299-2.514 0.502 0.35-1.57 1.34-0.65 2.51-0.5z" fill="#FFE09B"/>
	<path d="m15.965 154.39c0.155-0.682 1.258-0.416 2.01-0.502-0.156 0.68-1.258 0.41-2.01 0.5z" fill="#FFE09B"/>
	<path d="m428.03 154.89c-0.055 1.284-1.682 0.997-3.014 1.005-0.48-1.82 1.97-0.7 3.01-1.01z" fill="#FFE09B"/>
	<path d="m425.52 156.4c1.184-0.011 1.48 0.866 3.017 0.503-1.341 1.451-1.693 1.255 0.503 2.01-0.368 0.469-0.914 0.762-1.51 1.005 0.155 0.683 1.26 0.418 2.01 0.502-0.296 1.151-2.186 1.278 1.007 1.51-0.058 1.282-1.684 0.996-3.017 1.003-0.14-1.65-1.81-3.58-2.01-6.53z" fill="#FFE09B"/>
	<path d="m109.94 158.41h1.005v1.006h-1.005v-1.01z"/>
	<path d="m112.95 158.41h1.005v1.006h-1.005c-0.01-0.34-0.01-0.68-0.01-1.01z"/>
	<path d="m339.58 159.42h1.007v1.003h-1.007v-1z"/>
	<path d="m427.52 163.44c1.336 0.004 2.87-0.19 3.52 0.502-0.41 1.2-3.27 1.12-3.52-0.5z" fill="#FFE09B"/>
	<path d="m80.287 163.94c-0.508 1.333-0.826 2.859-2.513 3.015 0.143-1.71 0.604-3.09 2.513-3.02z"/>
	<path d="m432.05 166.45c1.108 1.886-2.377 2.45 0 2.513 0.476 1.816-1.979 0.702-3.014 1.006 0.061 1.111 2.13 0.212 3.014 0.501-0.076 0.93-1.701 0.308-2.011 1.006 0.211 1.128 2.667 0.014 3.016 1.006-0.114 0.724-1.5 0.173-1.508 1.004 0.583 0.223 2.932 0.675 0.503 1.507 0.495 0.679 1.341 1.004 2.01 1.509 0.562 5.737 0.525 12.371-0.503 18.593-0.77 4.665-2.582 10.543-4.521 15.577-2.605 6.76-6.459 12.5-10.553 19.096-4.238 6.822-8.341 12.023-14.072 17.59-3.689 3.58-7.195 5.964-11.055 9.044-7.889 6.295-18.76 14.022-30.151 18.593-4.81 1.931-9.296 4.53-14.07 6.532-4.901 2.058-9.845 3.877-14.572 5.529-2.163 0.755-3.555 1.813-5.53 2.01-6.637 0.66-15.381-1.591-21.104-0.503-0.364-2.382 6.5-1.867 8.541-3.518 1.628-0.62 0.385 1.627 2.013 1.005 1.778-0.055-1.07-1.661 0.501-1.507 2.238-0.387 5.975-3.118 7.538-1.006 9.585-1.738 16.639-7.776 27.136-7.034 0.302-1.978-3.478 0.127-3.016-2.011 38.543-18.408 72.145-41.758 78.895-91.96h3.519c0.231-2.075-3.539-0.147-3.519-2.01-0.78-1.787 1.707-0.305 1.51-1.509-0.165-1.052-2.897-1.532 0-1.507 0.505-1.512-1.121-0.891-2.01-1.005-0.07-4.64-3.3-13.14 3.01-10.05z" fill="#FFE09B"/>
	<path d="m168.73 168.46c2.833 0.621 4.734 0.202 7.034 0.502-1.11 0.6-6.71 1.38-7.03-0.5z" fill="#FFD07B"/>
	<path d="m212.45 169.47c-0.22 0.618-0.644 1.033-1.508 1.004-0.23-1.07 0.72-0.96 1.51-1z"/>
	<path d="m199.38 170.97c1.195-0.834 5.84-0.834 7.035 0-2.82-0.31-5.46 0.53-7.04 0z" fill="#FFE09B"/>
	<path d="m263.71 173.49h1.005v1.006h-1.005c-0.01-0.34-0.01-0.68-0.01-1.01z"/>
	<path d="m8.427 173.99c0.654 4.511-3.514 8.543-4.522 13.066-1.138-5 3.052-9.01 4.522-13.07z" fill="#FFD07B"/>
	<path d="m123.5 174.99c-0.092-0.428 0.196-0.475 0.503-0.501 16.095-0.3 33.964-0.507 46.232 2.511 2.392 0.589 5.127 0.921 6.531 2.513-11.252 0.209-21.149-0.449-32.161-0.502-6.25-0.03-13.42 0.83-21.1-4.02z" fill="#FFE09B"/>
	<path d="m316.97 174.49c0.445 2.556-3.409 2.307-5.527 3.015-2.281 0.762-5.021 2.227-7.035 2.513-4.819 0.685-10.142-0.413-15.576-0.504-6.22-0.102-11.901 1.354-18.093 0 15.62-6.02 31.09-4.55 46.24-5.02z" fill="#FFE09B"/>
	<path d="m186.82 176.5c1.008-0.172 1.572 0.103 1.507 1.005h-1.507v-1z"/>
	<path d="m189.84 176.5c1.076 1.288 2.807-0.421 3.518 0.501-0.13 0.73-4.14 1.17-3.52-0.5z"/>
	<path d="m198.38 176.5c1.384 1.08 2.1-0.292 3.518 0.501-0.12 0.73-4.14 1.17-3.52-0.5z"/>
	<path d="m237.07 178.01c-9.365-0.094-20.648-0.567-34.673-0.502 1.876-1.256 4.925-1.029 7.538-1.005 7.6 0.069 14.975-0.329 23.617 0.501 1 0.1 3.34-0.87 3.51 1.01z"/>
	<path d="m401.4 176.5c0.811-0.143 0.864 0.475 1.507 0.501 2.087 6.396 3.958 13.158 6.029 19.6 2.063 6.414 5.502 12.471 5.529 19.096-5.76-11.16-8.107-25.731-13.569-37.186-0.22-1.05 0.34-1.33 0.5-2.01z"/>
	<path d="m220.99 178.51h3.518c0.402 1.909-2.376 0.638-3.518 1.003v-1z"/>
	<path d="m436.07 180.02c2.9 2.625 4.31 6.745 5.528 11.056-2.13-3.41-4.79-6.27-5.53-11.06z" fill="#FFD07B"/>
	<path d="m142.1 181.53c-0.093-0.428 0.196-0.475 0.503-0.504 25.491-0.105 51.821-0.422 73.366 2.011-18.176 0.842-40.033 0.598-59.8 0.503-5.17-0.03-9.83 0.14-14.07-2.01z" fill="#FFE09B"/>
	<path d="m296.37 181.53c-5.48 3.488-11.785 2.071-18.595 2.01-16.236-0.144-31.116 1.161-44.222-0.503 23.26-2.19 39.52-1.93 62.81-1.51z" fill="#FFE09B"/>
	<path d="m7.925 183.54c3.549 6.939-3.157 13.882-5.025 20.103-2.343-8.71 3.004-14.08 5.025-20.1z" fill="#FFD07B"/>
	<path d="m148.13 187.06h1.005v1.004h-1.005c-0.01-0.34-0.01-0.67-0.01-1z"/>
	<path d="m306.92 187.06c0.406 0.094 0.5 0.503 1.005 0.501-0.096 0.406-0.505 0.5-0.502 1.006-0.408-0.096-0.502-0.506-1.007-0.503 0.11-0.42 0.51-0.51 0.51-1.01z"/>
	<path d="m277.27 188.06c-0.426 0.746-1.617 0.728-2.513 1.006 0.08-1.11 1.27-1.08 2.51-1.01z" fill="#FFE09B"/>
	<path d="m199.38 189.06c-2.516 2.268-7.13-0.344-10.052 1.004 0.332 0.675 1.076 0.937 2.011 1.006-2.459 1.438-5.888-0.466-8.542-0.503 2.95-3.21 10.31-0.79 16.58-1.51z" fill="#FFE09B"/>
	<path d="m154.66 189.06h1.006v1.004h-1.006v-1z"/>
	<path d="m211.95 189.57c-0.085-1.09 1.782-0.228 2.513-0.501 0.08 1.08-1.78 0.22-2.51 0.5z" fill="#FFE09B"/>
	<path d="m214.96 189.57c-0.084-1.09 1.783-0.228 2.513-0.501 0.09 1.08-1.78 0.22-2.51 0.5z" fill="#FFE09B"/>
	<path d="m227.52 189.57c2.019-1.163 6.192-0.174 9.046-0.501-2.02 1.16-6.19 0.17-9.05 0.5z" fill="#FFE09B"/>
	<path d="m238.08 189.57c0.063-1.108 2.132-0.213 3.014-0.501-0.06 1.1-2.13 0.21-3.01 0.5z" fill="#FFE09B"/>
	<path d="m247.62 189.06c-1.1 1.54-3.22-0.58 0 0z" fill="#FFE09B"/>
	<path d="m253.65 189.57c-1.49 0.824-5.443 0.918-5.526 0-0.07-0.87 4.07-0.82 5.53 0z" fill="#FFE09B"/>
	<path d="m268.73 189.57c-3.629 1.731-8.966 1.754-14.07 2.01 3.84-1.53 9.68-1.04 14.07-2.01z" fill="#FFE09B"/>
	<path d="m436.07 189.57c3.631 3.268 7.216 9.16 6.029 15.579-2.54-4.42-7.12-9.19-6.03-15.58z" fill="#FFD07B"/>
	<path d="m307.43 190.07c1.071-0.235 0.957 0.718 1.004 1.507-0.407-0.094-0.502-0.503-1.004-0.501v-1.01z"/>
	<path d="m388.83 190.57c0.662 0.178 0.79 0.886 1.507 1.004 1.721 6.997 4.381 13.725 6.534 20.604 2.129 6.8 5.061 13.66 5.526 20.604-4.429-8.535-6.965-20.314-10.552-31.156-1.31-3.94-4.04-7.17-3.02-11.04z"/>
	<path d="m254.16 191.08c-0.354 1.99-4.131 0.559-5.527 1.507 0.43-1.92 4.26-0.44 5.53-1.51z" fill="#FFE09B"/>
	<path d="m200.89 192.58c1.296-1.1 5.118-0.449 6.533 0h3.015c4.62 0.99-7.92 0.33-9.55 0z" fill="#FFE09B"/>
	<path d="m243.6 192.08c0.518 1.689-1.562 0.783-2.514 1.006 0.08-1.11 1.27-1.09 2.51-1.01z" fill="#FFE09B"/>
	<path d="m244.11 192.58c0.073-0.137 1.081-0.928 1.507-0.503 0.34 0.35-1.99 1.38-1.51 0.5z" fill="#FFE09B"/>
	<path d="m212.45 193.08c2.117-0.985 4.371 0.213 6.532 0-1.14 0.94-5.35 0.69-6.53 0z" fill="#FFE09B"/>
	<path d="m236.57 193.58c-1.5-1.58 3.39-0.97 0 0z" fill="#FFE09B"/>
	<path d="m227.02 193.58c0.374-1.133 2.819-0.196 4.021-0.501-0.37 1.14-2.82 0.2-4.02 0.5z" fill="#FFE09B"/>
	<path d="m308.43 193.08c0.584-0.081 0.895 0.11 1.005 0.501 2.671 11.064 5.277 22.196 8.04 33.168-2.13 0.525-2.408-4.024-3.015-6.532-2.02-8.33-4.56-17.99-6.03-27.14z"/>
	<path d="m8.929 194.09c0.584-0.082 0.895 0.109 1.006 0.502 0.593 3.761 1.768 6.942 3.015 10.05-2.287 5.084-4.285 10.456-7.035 15.076-1.875-0.781-1.649-3.392-2.01-5.025-1.233-5.568-0.044-7.973 2.01-13.064 1.134-2.82 2.288-5.16 3.014-7.55z" fill="#FFD07B"/>
	<path d="m58.678 196.6h1.508c0.141 1.314-0.184 2.161-1.508 2.01v-2.01z"/>
	<path d="m102.9 198.11c1.466-0.738 1.466 2.247 0 1.509v-1.51z"/>
	<path d="m434.56 198.11c3.775 3.092 4.592 9.144 7.536 13.065-0.759 2.088-0.661 5.034-1.507 7.036-3.473-3.896-4.378-10.362-7.538-14.572 0.73-1.64 0.97-3.74 1.51-5.54z" fill="#FFD07B"/>
	<path d="m100.89 202.13c0.812-0.141 0.865 0.477 1.508 0.504 0.151 1.324-0.696 1.649-2.01 1.507-0.07-0.9 0.61-1.06 0.5-2.01z"/>
	<path d="m98.88 206.65c2.626 1.064-0.788 4.034-1.005 5.527-2.43-1.26 1.12-3.43 1.005-5.53z"/>
	<path d="m432.05 208.16c3.623 3.413 4.343 9.729 7.539 13.569-0.729 4.633-2.463 8.259-4.021 12.06-2.196-3.007-3.821-7.981-5.529-12.563-2-5.38-0.34-7.76 2.01-13.07z" fill="#FFD07B"/>
	<path d="m12.95 208.66c3.8 4.073 5.108 10.639 8.543 15.076-2.098 5.44-4.846 10.23-7.035 15.578-4.297-3.576-5.617-10.129-8.041-15.578 2.048-5.16 4.397-10.01 6.533-15.08z" fill="#FFD07B"/>
	<path d="m235.56 208.66c1.009-0.17 1.572 0.103 1.508 1.006h-1.508v-1.01z"/>
	<path d="m360.69 212.18c0.812-0.142 0.865 0.476 1.51 0.502 1.869 7.284 3.398 14.807 5.527 22.112 2.09 7.175 4.704 14.272 5.526 21.105-2.361-0.496-1.521-3.441-2.01-5.025-3.339-10.845-7.621-24.726-10.554-37.186-0.9-0.37-0.08-0.92-0.01-1.51z"/>
	<path d="m236.57 219.72c0.583-0.082 0.894 0.11 1.004 0.504 0.35 6.851 1.185 13.222 1.007 20.602-2.23-5.47-1-14.41-2.01-21.1z"/>
	<path d="m426.52 220.72c0.812-0.142 0.865 0.476 1.507 0.502 0.334 2.816 1.892 5.358 3.017 8.04 1.821 4.354 3.832 6.958 1.507 11.057-1.577 2.775-3.386 5.717-5.527 8.543-2.411-1.68-2.476-4.983-3.52-8.041-0.905-2.659-3.141-6.178-3.014-8.542 0.24-4.69 5.5-7.02 6.02-11.56z" fill="#FFD07B"/>
	<path d="m85.815 233.79c0.683 0.155 0.417 1.26 0.502 2.01-1.165-0.14-1.155-1.34-0.502-2.01z"/>
	<path d="m417.98 234.79c0.812-0.143 0.866 0.475 1.509 0.501 1.712 5.825 4.297 10.78 6.029 16.584-5.296 5.259-8.975 12.133-16.08 15.578-1.366-5.836-3.498-10.907-5.025-16.583 4.45-5.42 9.98-9.77 13.56-16.08z" fill="#FFD07B"/>
	<path d="m84.307 237.81h1.005v1.006h-1.005v-1.01z"/>
	<path d="m82.799 241.83c1.072-0.232 0.958 0.718 1.005 1.509-0.407-0.097-0.5-0.505-1.005-0.503v-1.01z"/>
	<path d="m81.292 245.85c0.584-0.082 0.894 0.112 1.005 0.503-1.213 3.812-2.028 8.024-4.523 10.554 0.415-4.44 2.861-6.85 3.518-11.05z"/>
	<path d="m40.588 250.87c0.975-0.198 0.734 2.287-0.503 1.507v-1.004c0.428 0.09 0.475-0.2 0.503-0.51z"/>
	<path d="m384.81 250.87c-0.22 0.617-0.646 1.032-1.51 1.005 0.22-0.62 0.65-1.03 1.51-1.01z" fill="#FFD07B"/>
	<path d="m408.43 268.96c-7.741 8.507-17.669 14.826-28.642 20.102-0.703-6.499-3.223-11.183-3.518-18.092 9.803-4.936 18.141-11.338 25.629-18.593 0.812-0.141 0.865 0.476 1.508 0.503 1.28 5.76 3.76 10.31 5.02 16.08z" fill="#FFD07B"/>
	<path d="m377.78 255.9c-1.151 1.027-1.899 2.457-4.019 2.512 0.96-1.22 2.22-2.13 4.02-2.51z" fill="#FFD07B"/>
	<path d="m74.256 257.41c0.812-0.141 0.867 0.475 1.508 0.503 0.199 0.97-2.289 0.73-1.508-0.5z"/>
	<path d="m238.58 258.41c1.544-0.769 1.544 3.281 0 2.513v-2.51z"/>
	<path d="m76.77 258.91c1.096-0.09 1.599 0.411 1.507 1.507-1.097 0.09-1.599-0.41-1.507-1.51z"/>
	<path d="m78.779 260.92c-0.199-0.976 2.289-0.734 1.508 0.503h-1.005c0.093-0.42-0.196-0.47-0.503-0.5z"/>
	<path d="m240.09 264.44c-1.53 1.86-1.69-1.52 0 0z"/>
	<path d="m239.08 267.46c2.235 7.453 0.857 17.256 2.01 24.622-1.774-0.144-1.4-2.406-1.507-3.517-0.58-6.05-0.03-13.24-0.5-21.1z"/>
	<path d="m92.347 274.49h1.005v1.004h-1.005v-1z"/>
	<path d="m67.221 280.52h1.005c0.235 1.071-0.717 0.957-1.507 1.004 0.095-0.4 0.504-0.49 0.502-1z"/>
	<path d="m306.92 283.54h1.005v1.006h-1.005v-1.01z"/>
	<path d="m299.38 285.55c-12.223 5.032-28.642 5.865-44.222 7.539 2.969-1.901 6.989-1.563 10.553-2.011 10.374-1.3 22.271-2.819 31.659-5.528h2.01z"/>
	<path d="m173.22 293.59c-17.696 0.776-40.346 2.155-52.765-4.021 6.032-1.172 14.236-0.169 21.106-0.503 0.147-0.448 1.36-2.2 1.507-1.005 9.76 2.12 19.88 3.89 30.14 5.53z" fill="#FFE09B"/>
	<path d="m324.03 289.57c-1.703 2.564-5.343 2.273-8.039 3.014-4.516 1.24-8.122 2.551-13.567 2.514-9.933-0.067-21.034-1.278-31.156 0 6.047 2.041 18.949 0.542 28.141 1.004-1.202 1.701-3.579 1.695-5.024 2.01-1.729 0.378-3.78 0.847-5.528 1.007-16.353 1.483-34.493 0.111-51.256 0-18.62-0.127-35.524-0.136-52.263 0-9.625 0.077-27.48 0.733-36.684-1.507-1.291-0.315-3.554-0.684-4.522-2.011h30.15c3.207 0.658 0.429-1.548 3.015-1.509 39.279 5.498 87.771 3.431 124.12-5.527 5.84 2.04 15.18 0.57 22.61 1.02z" fill="#FFE09B"/>
	<path d="m235.06 293.08c1.011-0.173 1.573 0.102 1.51 1.004h-1.51v-1z"/>
	<path d="m239.08 293.08h1.007v1.004h-1.007v-1z"/>
	<path d="m167.76 300.12c36.435-0.062 66.848 0.795 108.04 0.503-1.06 1.694-4.004 1.402-5.529 1.509-15.318 1.056-31.935-0.052-47.233 0-8.906 0.028-17.899 0.053-26.634 0-9.576-0.06-18.913-0.268-27.639-1.006-0.86 0.19-0.95-0.39-1.01-1z" fill="#FFE09B"/>
	<path d="m246.62 304.14c-14.035 1.836-34.683 0.296-52.263 0 16.69-1.08 34.96-0.76 52.26 0z" fill="#FFE09B"/>
	<path d="m216.47 0.118c58.236-1.69 120.17 14.817 154.78 49.749 10.369 10.466 18.036 23.574 26.635 36.684 2.697 4.114 6.188 8.207 8.541 12.563 5.051 9.34 6.381 21.113 11.056 32.664 1.81 4.473 5.075 8.283 7.539 12.563 2.497 4.341 4.393 8.975 6.531 13.568 4.245 9.105 9.446 18.013 11.559 28.643 5.591 28.134-5.421 52.671-18.593 68.845-14.561 17.877-31.401 29.465-50.754 39.196-40.622 20.423-90.997 32.108-142.21 33.669-21.323 0.65-49.861-2.4-75.379-7.037-25.002-4.54-49.118-12.455-68.844-21.104-30.589-13.412-58.968-30.323-75.377-59.799-9.155-16.446-14.687-34.88-10.552-56.785 1.956-10.369 7.085-19.534 11.558-28.141 2.232-4.298 4.011-8.945 6.533-13.568 2.158-3.956 6.213-7.257 8.04-11.558 1.062-2.5 1.517-5.701 2.513-8.542 2.779-7.925 5.345-18.438 9.548-26.132 1.87-3.425 5.018-6.611 7.537-10.05 6.842-9.341 14.506-19.871 22.111-29.146 10.592-12.917 24.794-21.94 39.197-29.649 30.06-16.094 66.36-25.427 108.03-26.635zm132.16 53.768c0.643 0.028 0.695 0.645 1.507 0.503 11.496 10.448 20.226 23.664 20.604 45.227 2.687 1.669 9.684-0.973 11.559 1.507-2.281 0.754-4.128 0.321-4.523 2.01 0.487-1.994-1.453-1.561-2.512-2.01-0.565 2.08-3.164 3.88-5.024 6.031 1.52 1.026 2.899-0.925 3.014 1.507h-3.517c-4.58 25.402-21.918 38.051-39.699 50.251 2.28 0.569 6.895-1.2 7.537 1.005-2.853 1.167-7.868 0.172-11.558 0.502-8.158 5.578-19.284 8.188-28.643 12.563 6.928-0.79 20.414 2.648 26.13 0.503 16.757-6.29 35.923-17.771 47.236-29.146 11.479-11.541 19.777-27.08 21.106-44.222-2.115-1.067-6.12-0.243-9.045-0.502-1.032-0.14-1.005-1.342-1.509-2.01-1.911 1.019-3.329-0.411-6.029 0-0.834-1.703-2.845 1.139-3.518-2.011 2.504-0.85 8.373-1.11 9.547 1.006 0.675-1.806 4.77 1.108 8.042 0-0.143 1.314 0.182 2.161 1.507 2.01 1.163-2.949 0.66-9-0.504-14.071-3.12-13.612-14.157-28.186-24.119-37.186-6.336-5.723-10.741-10.259-20.605-9.547 1.327-1.354 5.749 0.385 7.037-1.005-3.796-1.731-12.1 1.043-15.076-1.508 0.791-0.048 1.741 0.067 1.51-1.005-3.164 0.005-7.286 1.275-11.058 0 4.573-1.45 12.002-0.71 16.583 0-0.668 1.232-1.517-0.906-2.01 0.503 1.356 0.988 4.391 0.298 6.533 0.502-3.135-4.906-10.275-5.805-14.572-9.548-0.876-0.038-1.562 0.112-2.011 0.503-0.096-1.413-1.641-1.376-2.01-2.513-49.34-22.615-119.65-29.524-175.9-13.058-5.054 1.479-10.138 2.938-15.075 4.522-4.972 1.596-10.239 2.348-14.071 5.528h11.056c3.398 0 8.309-1.258 9.045 2.01-6.153 0.272-12.006 0.713-19.095-0.502 0.949-0.223 3.028 0.683 2.512-1.005-1.846-0.164-4.448 0.428-5.528-0.503-3.649 2.549-9.334 3.062-12.06 6.533 2.939-0.025 6.931-0.485 10.05 0.502-2.812 1.293-7.499 0.14-10.552 0-0.738 1.912 2.247 0.099 1.507 2.01-1.291-0.799-5.388-0.93-6.03 0.503 1.672 0.506 5.467-1.111 5.527 1.005h-9.547c-17.817 10.737-34.983 25.007-43.219 45.227-2.708 6.648-4.131 13.883-3.518 23.116 1.731 1.244 3.875 0.931 5.528 0.502 1.344 0.149-1.335-1.95 1.005-1.507-0.038 2.048 3.125 0.895 3.518 2.512-2.163 0.466-0.437 1.911-2.01 2.513 0.233-1.573-0.437-2.243-2.011-2.009-0.406 1.77-1.928 2.426-4.522 2.009 0.684 16.754 9.751 28.976 18.593 39.196 0.15 0.989-0.679 0.997-1.005 1.508 5.009 5.711 10.869 10.572 17.588 14.573 2.783-0.809 6.455-0.966 9.548-1.004 1.859-0.024 5.158-0.534 6.03 1.508-4.693 0.331-10.717-0.667-14.573 0.501 3.599 1.889 7.782 5.023 12.563 7.538 3.7 1.945 10.854 5.673 14.573 6.03 6.121 0.589 13.063-1.108 19.097-0.503 4.742 0.476 8.856 0.176 12.562 0-36.654-13.597-71.149-29.354-77.891-72.865-0.809-0.75-2.519 0.434-4.521 0-1.204-0.199 0.279 2.289-1.508 1.508-0.118-1.892-2.89-1.13-3.015-3.015 1.528-0.316 4.329 0.643 5.025-0.503-1.437-0.46-0.122-1.503-1.507-2.009-2.153-0.788-6.895 0.75-7.538-1.005-0.057 0.614-0.15 1.19-1.005 1.005-0.242-1.768-3.95-0.071-3.518-2.514 4.784 0.365 10.438-1.339 13.568 1.508 1.787 0.781 0.303-1.707 1.508-1.508 0.969 0.204 0.043 2.301 2.01 1.508 2.054-2.448 1.102-5.463 1.508-8.04 1.38-8.786 6.291-15.341 9.547-23.117 5.003-5.627 9.788-11.248 15.579-16.081 2.846-2.375 5.995-4.526 9.045-6.533 3.202-2.106 6.979-3.528 9.548-6.532-1.858-0.321-5.006 0.65-6.03-0.503 2.14-1.285 6.167-0.151 8.542 0 3.306-1.763 7.412-4.092 11.558-5.528 2.819-0.975 6.615-0.751 8.041-3.015-2.276-2.293-6.798 0.209-10.05-1.507 2.653-0.297 6.954-0.295 10.553 0 0.515 0.042 2.049-0.149 2.512 0 0.283 0.09-1.102 1.12 0.502 1.004 2.018-0.144 5.964-1.201 7.036-2.513-0.812 0.995-1.243-1.966 0-1.005 2.276-0.375-0.768 1.379 1.507 1.005 21.931-6.123 45.56-9.996 72.363-10.05 0.806-1.977-2.17-0.175-2.01-1.508 4.765-0.412 8.069-0.186 11.056 0 1.852 0.116 4.667-0.971 6.03 1.005-1.343 0.333-2.862-0.385-4.523-0.502-3.014-0.213-8.155-0.616-9.046 1.005 27.554 0.183 46.752 4.354 68.344 11.558 3.021-1.592 7.775-1.005 12.562-1.005 3.35 0 7.389-0.758 9.044 1.005-2.964-0.015-6.62 0.018-10.049 0-3.471-0.02-7.416-0.724-9.046 0.502 3.442 2.252 8.73 2.009 14.572 2.009 2.767 0 6.47-0.847 8.042 1.005-5.657 0.862-10.712-1.679-13.568 0.503 4.474 0.373 4.816 2.107 9.546 2.512-0.75 0.086-1.852-0.179-2.009 0.503 1.309 1.875 6.157 0.207 8.042 1.508-0.596 1.353-2.622-0.001-3.52 0 3.061 3.138 7.285 5.252 11.056 7.537 3.93 2.382 7.694 4.749 11.557 7.036 1.376 2.645 4.688 3.354 6.032 6.03 1.258 0.664 1.572-1.986 2.011-0.503 0 0.664-0.87 0.46-1 1.004zm-141.21-37.688c-0.827 0.079-3.422-0.848-3.517 1.006 11.23-1.64 22.729-0.279 34.674-1.508-9.55-0.988-21.79-0.397-31.15 0.502zm31.66 0c3.27 1.641 2.04-1.437 0 0zm3.52 0.503c3.492 0.024 6.591 0.443 9.547 1.004-1.15-1.796-9.04-1.885-9.55-1.004zm-39.7 0c-0.885 0.289-2.953-0.607-3.016 0.503 0.89-0.289 2.96 0.607 3.02-0.503zm15.58 1.004c-54.11 2.292-104.19 15.846-130.15 48.745 6.506 9.7 10.829 20.877 16.081 31.658 5.191 10.661 10.728 21.321 16.08 31.659 14.433-19.565 38.189-33.076 66.835-37.689 4.481-0.722 9.053-2.608 12.061-1.005-3.372 1.524-7.098 1.867-10.553 2.512-11.89 2.222-20.827 4.938-30.151 9.046-12.286 5.412-23.703 11.283-31.156 21.608 2.262 1.46 2.069 4.453 3.015 6.533 2.933 6.453 7.629 13.553 12.563 17.588 2.281 1.865 5.087 2.052 7.034 4.523-3.222 0.646-5.879-2.171-8.04-4.02-7.005-5.998-12.328-14.563-15.075-24.121-2.905 1.953-4.833 4.883-6.534 8.04 3.75 3.389 4.719 8.607 7.538 12.562 4.556 6.395 11.083 10.306 18.593 13.568 8.999-14.865 26.914-23.063 45.73-27.639 1.965-0.477 4.59-2.11 6.533-0.502-4.465 1.947-9.013 2.688-13.568 4.02-18.736 5.479-35.941 14.764-40.704 33.668 3.159 1.198 8.151 0.56 11.557 1.509-0.348 0.992-2.803-0.125-3.015 1.004 8.956-0.221 12.808 0.818 20.604 0 2.996-0.618-1.71-0.458-3.015-0.502-5.066-0.172-11.264-0.035-14.069-1.004 2.688-0.327 6.688 0.661 8.542-0.503-4.936-1.429-13.174 0.446-18.091-1.003 9.586-1.008 23.676-0.212 34.674-0.503 1.9 0.313-0.543 2.101 2.011 2.01 1.376-0.454-0.982-1.85 1.004-2.01 0.726 0.859-0.579 1.417 1.005 2.01 5.286 1.979 17.609-1.472 24.121 0 0.32 1.096-1.424 1.599 0.502 1.507 7.921 0.877 18.233-0.973 25.629 1.006-19.86 0.693-45.41 0.556-63.819 0-3.67-0.113-7.81-0.781-11.559 1.004 36.58-0.36 58.781 1.275 97.991 0 1.157 0.184 0.479 2.2 2.01 2.01 18.075 1.251 29.459-1.368 41.709-6.03-0.929-3.905-2.693-7.625-5.024-10.552-2.012-2.524-5.805-4.042-6.031-7.036 5.771 3.944 10.1 9.331 12.562 16.584 12.901-3.515 23.675-9.157 31.658-17.589 1.205-0.2-0.277 2.289 1.51 1.508-1.305-8.597-5.978-15.25-10.052-20.604-1.36-1.788-3.868-3.592-3.518-6.03 7.723 5.846 11.549 15.587 15.58 25.126 1.864-1.527 4.616-3.045 5.525-5.025 1.768-3.844 3.283-8.895 5.027-13.568 4.146-11.116 8.72-23.363 12.562-33.669 0.769-2.062 1.514-4.211 3.014-5.528 1.52 1.496 0.054 4.443-0.503 6.031-5.083 14.542-12.327 29.384-17.084 43.718 3.46-1.58 4.144-5.789 5.527-9.045 4.466-10.513 8.9-21.69 12.562-32.663 0.86-1.64 1.976 1.964 2.011-0.503 1.013-6.41-3.37-14.357-3.518-19.598-0.029 0.864 0.387 1.289 1.004 1.508-8.103-21.687-26.62-35.464-46.231-45.73-9.749-5.103-21.156-9.356-32.663-12.563-9.622-2.681-19.999-5.195-30.152-5.528 1.656 0.021 3.556-0.205 3.519 1.508-12.76-2.198-27.47-2.613-41.2-2.032zm36.68-0.501c-0.73 0.274-2.597-0.588-2.513 0.501 0.73-0.275 2.6 0.587 2.51-0.501zm-107.54 10.551c1.007-0.938-3.72 0.014-4.021 1.005 1.81 0.136 2.43-0.927 4.02-1.005zm-6.03 2.01c0.864 0.028 1.289-0.386 1.508-1.005-0.86-0.026-1.29 0.388-1.51 1.005zm-25.12 96.985c-5.325-8.995-9.294-19.487-14.07-29.146-4.925-9.959-9.733-19.639-14.573-29.147h-1.508c-1.246 3.11-3.681 5.03-4.523 8.543-0.358 1.365 2.37-0.359 2.01 1.005 11.471 18.488 21.628 39.658 33.167 57.288 0.903-1.778 2.076-3.285 3.015-5.026-2.48-0.21-2.72-2.17-3.51-3.51zm-38.193-40.702c9.701 12.833 18.072 27.684 26.633 41.206 2.97 4.691 5.408 9.882 9.548 13.567 0.252-2.093 1.758-2.932 2.01-5.024-1.247 0.073-2.438 0.094-2.512-1.006-11.256-18.56-21.078-38.553-32.664-56.784-1.227 2.464-2.844 4.533-3.019 8.042zm318.59 2.513c-1.613-2.407-3.086-4.955-5.025-7.036 1.27 2.432 3.43 6.615 5.03 7.036zm-360.8 19.099c0.442 1.815-1.962 3.354-0.502 4.523 3.405-4.616 6.243-9.402 9.547-14.071 3.25-4.592 7.271-9.093 9.548-14.573-0.11-0.392-0.42-0.584-1.005-0.502-5.946 8.122-11.158 16.986-17.588 24.626zm40.705-13.572c10.57 15.053 20.777 32.088 31.156 46.733 1.366 1.928 4.683 3.945 3.518 7.036-7.324-6.917-11.869-16.26-17.587-24.624-5.827-8.521-11.529-17.03-17.588-25.126-0.478 8.447 4.475 11.927 8.542 17.588 3.289 4.578 6.547 8.683 9.046 12.061 6.43 8.695 11.499 16.913 18.09 23.618 0.612-3.073 0.788-6.582 2.011-9.045-1.778 0.27-2.59-0.426-3.016-1.508-11.405-17.238-21.878-35.409-33.166-52.764-1.038 1.299-1.065 3.617-1.004 6.022zm321.61 5.025c3.978 6.22 7.577 13.159 11.056 18.593 0.55 0.86 0.765 3.478 2.513 2.513-0.752-1.425-1.24-3.115-1.507-5.024-6.792-7.111-10.264-17.542-16.585-25.126 0.1 4.288 2.4 5.716 4.52 9.039zm-355.28 6.537c-4.413 6.042-10.793 11.362-10.553 21.106 8.411-7.503 12.64-19.188 20.604-27.136-1.678-2.284 1.496-6.342-1.005-7.538-3.627 4.028-5.661 8.924-9.046 13.564zm359.8 9.04c3.13 5.347 5.816 11.005 10.049 15.578 0.75-0.81-0.433-2.519 0-4.522-1.146 0.141-1.889-0.121-2.01-1.004-5.88-8.526-10.523-18.286-16.583-26.634 0.91 6.704 5.56 11.484 8.54 16.574zm-348.74-2.01c-0.605-3.454 0.144-6.936-2.01-10.049-4.86 9.209-11.972 16.169-16.583 25.628-0.655 1.188-3.191 0.495-3.016 2.513-0.198 2.376 0.162 4.194 0.503 6.03 5.59-5.839 10.011-13.108 14.573-19.598 1.468-2.09 2.826-5.168 5.528-6.03-1.334 5.504-5.627 8.929-8.543 13.065-2.953 4.188-5.66 8.625-8.543 13.066-0.71 1.132-2.697 0.987-3.015 2.512 4.092 22.543 16.292 36.975 30.654 49.248 2.052-3.703 4.365-7.359 6.532-11.057 2.19-3.733 4.243-7.904 7.538-10.553-3.88 8.18-8.737 15.383-13.568 22.613 48.731 44.503 141.08 61.846 222.11 47.235 21.324-3.844 40.513-12.219 58.795-19.597 15.015-9.272 31.213-17.364 42.211-30.652-1.494-0.727-1.838-2.688-2.512-4.022-5.366-10.596-10.429-21.896-16.583-31.658-6.535 6.029-13.637 11.491-22.111 15.579 2.168 6.559 5.123 12.961 7.537 19.598 2.458 6.757 5.709 13.836 6.03 20.604-5.614-12.308-9.207-26.642-15.076-38.695-45.108 25.66-118.32 37.102-176.38 24.122-1.852-0.415-4.702 0.359-5.527-2.01 0.73-0.276 2.596 0.587 2.512-0.503-23.391-4.75-44.063-12.218-62.312-22.11-1.548-0.376-0.613 1.731-2.513 1.003 0.687-0.86 1.624-1.975-0.502-2.009-2.613 1.204-1.987-2.484-5.528-3.517 0.063 1.257 0.959 1.572-0.502 2.01-17.716-12.46-35.288-27.51-39.711-52.76zm302.01 21.11c2.597-6.784 5.893-12.868 8.042-20.101 1.045-1.1 1.623 0.442 2.511-0.502 0.097-2.764 1.956-6.404 0.503-9.046-3.53 9.7-8.73 20.41-11.05 29.65zm36.68-25.13c4.069 6.618 8.575 14.736 12.562 21.106 0.888 1.417 1.738 3.282 2.514 4.523 1.46 2.343 6.116 5.118 3.517 8.542-3.011-4.854-6.502-9.503-9.547-14.573-3.002-4.994-5.733-10.682-10.051-14.573-1.717 3.853 1.892 6.753 3.519 9.548 3.657 6.284 6.962 12.177 10.552 18.091 1.734 2.857 4.744 5.544 4.523 9.045-4.236-4.27-6.768-9.84-10.052-15.075-3.202-5.107-6.415-10.402-10.051-15.076-5.02 5.684-0.477 9.332 2.514 14.573 3.568 6.253 6.619 11.689 10.051 17.086 1.711 2.692 5.012 6.391 3.517 8.542-3.373-5.018-6.838-10.352-10.051-15.577-3.343-5.44-6.027-11.276-10.552-15.579-1.287 3.237-3.953 5.092-5.024 8.543 4.647 8.554 10.164 17.969 15.073 26.132 1.564 2.595 5.282 6.118 3.52 8.543-6.919-10.502-12.929-21.913-19.599-32.665-3.84 2.692-6.45 6.616-9.547 10.051 5.478 12.443 12.132 23.715 17.587 36.182 2.167-0.185 4.004-2.399 5.528-4.021 6.57-6.987 11.868-15.44 15.577-24.624 2.395-5.925 4.503-13.058 4.523-21.105-7.127-9.623-12.5-21.002-19.6-30.654-0.69 0.66-0.3 2.39-1 3.03zm-295.48 30.66c2.085 2.766 4.106 6.709 7.036 7.035-8.276-10.653-16.719-21.138-24.121-32.664-0.643-0.028-0.696-0.644-1.508-0.502 5.413 8.97 12.554 18.11 18.592 26.12zm-66.835-7.04c-0.315-1.526 0.644-4.328-0.502-5.024-1.204 1.26-1.439 4.36 0.502 5.02zm-7.036 22.61c-2.324 6.813-5.746 13.463-6.03 20.1 2.497-8.653 6.256-17.521 9.045-25.627 1.005-2.92 0.98-6.572 3.519-8.543 1.984 3.078-0.992 6.592-2.01 9.548-3.473 10.073-6.507 21.034-10.553 30.152 0.401 2.78 1.004 5.361 1.508 8.04 2.435-2.137 2.498-5.664 3.518-8.543 3.084-8.703 6.773-17.688 9.548-26.634 0.188-1.151 2.009-0.669 2.512-1.507-2.469-4.901-3.004-11.737-4.522-17.587-2.086 6.88-4.217 13.81-6.535 20.6zm93.468-16.08c1.146-0.14 1.889 0.121 2.01 1.005 3.849 7.381 10.489 15.689 18.09 19.599 2.333 1.199 7.373 3.883 8.543 1.003-12.607-4.813-19.852-14.988-26.131-26.129-1.19 1.15-1.72 2.96-2.51 4.52zm26.13 24.63c-13.212-3.539-20.08-13.423-26.634-23.619-0.951 3.405-2.687 6.023-2.512 10.553 0.493 1.408 1.34-0.73 2.01 0.502 3.742 5.472 9.832 11.271 16.583 12.06-5.458-2.671-10.937-8.279-14.573-13.065-0.914-1.201-4.505-3.687-1.508-5.025 6.37 8.38 13.9 18.26 26.63 18.6zm270.86-17.59c2.1-0.425 1.989 1.361 3.014 2.011-0.587-2.092-0.489-4.872-2.511-5.528 0.4 1.74-0.75 1.93-0.5 3.52zm-394.98 3.01h1.507c0.064-0.903-0.499-1.177-1.507-1.005v1zm393.47 5.03c1.041 0.633 2.046 1.302 2.511 2.512 3.748 9.487 6.882 19.585 11.559 28.143 0.539-6.589-2.769-12.541-5.025-18.093-2.334-5.739-4.871-11.322-7.034-17.084-0.028-0.307-0.076-0.595-0.503-0.502-0.87 1.32-1.5 2.86-1.52 5.02zm11.05-4.02h1.007v-1.004h-1.007v1zm-406.03 1c1.247 0.074 2.439 0.093 2.512-1.005-0.948 0.23-3.028-0.68-2.512 1.01zm402.02 2.01c-1.176-0.164-0.487-2.192-1.509-2.513-0.03 1.09 0.59 4.04 1.51 2.51zm-402.02 0h1.005c0.781-1.237-1.707-1.478-1.508-0.502 0.307 0.03 0.595 0.08 0.503 0.5zm95.978-0.5c-0.4 3.04 2.31 0.34 0 0zm310.56 1c0.753 0.797 2.056 0.37 2.514-0.502-1.17-0.15-2.16-1.07-2.51 0.5zm-170.36 141.21c37.105-3.354 75.769-12.119 103.02-26.131 6.1-3.135 13.193-6.865 16.082-10.051-11.809 7.109-25.713 13.605-39.198 18.595-4.788 1.771-9.616 3.538-14.572 4.021 45.686-15.622 86.72-35.896 104.02-79.901-1.921 0.411-1.947-1.069-2.514-2.01-3.498-11.745-7.964-22.522-12.062-33.668-3.281 3.27-5.368 7.438-8.039 11.055-19.274 26.098-49.025 42.595-82.411 54.272 2.003 7.229 3.211 15.153 4.523 23.116 1.287 7.831 3.594 15.676 3.516 23.115-3.977-14.283-5.594-30.923-9.046-45.731-60.47 22.118-143.18 16.392-199-6.532-37.617-15.446-68.847-37.417-83.921-71.859-2.779 8.948-7.505 20.355-10.553 29.649-1.176 3.586-3.038 7.813-3.015 10.553 0.041 4.993 3.644 9.384 5.528 14.07 5.08-10.574 8.56-23.128 13.065-33.669 0.54-1.261 1.069-3.934 3.015-4.02-4.625 13.968-10.493 26.693-15.075 40.703 3.858 6.474 8.15 12.833 12.563 18.092 1.492 1.778 3.057 4.376 5.526 5.024 3.05-7.562 6.258-15.949 9.046-23.116 1.001-2.576 1.353-5.709 3.517-7.536-3.065 11.675-8.189 21.292-11.559 32.662 5.801 6.429 12.635 11.822 20.101 16.584-3.461 1.489 2.135 4.603 3.518 4.021-0.81 0.215-1.687-1.875-0.503-2.009 1.138 0.536 2.21 1.139 3.015 2.009-0.048 1.874-1.961 0.033-2.01 1.005 43.722 28.05 117.95 43.63 183.42 37.71zm-171.35-139.19c-0.249-0.363-2.153-2.451-1.508-1.507 0.844 1.23 1.854 2.01 1.508 1.51zm-64.322-1.51c-0.752 0.086-1.854-0.18-2.01 0.502 0.752-0.09 1.854 0.18 2.01-0.5zm407.04 2.01c1.332-0.008 2.959 0.279 3.014-1.005-1.04 0.3-3.49-0.82-3.01 1zm-408.55 1c-2.477 0.852-3.586 2.89-1.508 4.523h-2.01c0.953 2.392-1.056 2.384 0.503 4.523-0.791 0.047-1.743-0.067-1.508 1.004-0.959 4.885-2.56 11.43-1.005 15.579 0.832 2.215 0.409 0.646 0 2.011-0.232 0.772 1.079 2.355 1.508 3.014-0.008 0.999-1.371 0.64-1.005 2.01 1.638-0.131 2.418 0.597 2.512 2.01-0.857 0.482-1.101 1.578-1.507 2.514 0.884 1.67 0.325 2.872 0.502 5.025 0.194 2.357 1.845 6.053 3.015 9.044 6.079 15.548 13.652 25.874 24.121 36.685 8.914 9.204 16.169 14.317 27.136 21.106 8.158 5.049 13.404 8.805 22.111 9.044-0.068 1.439-3.449-0.434-3.517 1.006 10.24 3.478 21.321 11.85 33.166 12.061 5.615 0.099 11.504 0.026 16.583 0 1.478-0.007 3.459 0.201 4.523-1.005-35.252-8.635-65.34-22.435-89.951-41.709-0.067-1.942-2.038-1.983-2.513-3.519-1.273-0.768-2.85-0.871-3.518-1.005v-2.009c-3.09 0.047-2.235-4.108-5.025-3.017 0.066-1.239 0.077-2.421-0.502-3.014-1.046-1.103-1.625 0.439-2.513-0.503-5.737-8.186-12.381-16.589-16.081-27.136-2.443-6.967-3.479-14.547-6.03-22.112-0.048 0.791 0.067 1.744-1.005 1.51-0.845-2.688 1.506-2.18 1.508-4.021-0.664-10.214 1.006-18.09 3.517-25.127-0.883 0.289-2.952-0.607-3.015 0.503 0.602 0.27 1.148 0.56 1.515 1.03zm391.96 8.04c0.029-0.307 0.076-0.595 0.504-0.503 2.937 1.523 3.021 5.208 4.02 8.042 3.097 8.778 6.997 17.904 9.55 27.136 2.856-1.825 2.94-8.563 4.02-10.553-0.067-1.944-2.039-1.983-2.514-3.52-3.521-10.549-7.544-20.594-12.06-30.15-1.02 3.01-3.81 6.89-3.52 9.54zm19.09-2.01c1.333-0.008 2.959 0.279 3.017-1.003-3.192-0.231-1.303-0.358-1.007-1.51-0.75-0.084-1.854 0.181-2.01-0.502 0.596-0.243 1.142-0.536 1.51-1.005-2.196-0.755-1.844-0.559-0.503-2.01-1.536 0.363-1.833-0.514-3.017-0.503 0.21 2.94 1.88 4.87 2.01 6.52zm3.52 1.01c-0.649-0.693-2.184-0.499-3.52-0.502 0.25 1.62 3.11 1.7 3.52 0.5zm-7.03 1.51c-0.242-0.596-0.535-1.14-1.003-1.508-0.08 0.67 0.78 2.77 1 1.51zm-280.91 2.01c0.723-2.29-5.962-1.765-4.523-1.507 1.39 0.62 2.55 1.47 4.52 1.51zm285.94 9.04c0.889 0.114 2.515-0.507 2.01 1.005-2.897-0.025-0.165 0.455 0 1.507 0.197 1.204-2.29-0.278-1.51 1.509-0.021 1.862 3.75-0.065 3.519 2.01h-3.519c-6.75 50.202-40.352 73.552-78.895 91.96-0.462 2.138 3.317 0.033 3.016 2.011-10.497-0.742-17.551 5.296-27.136 7.034-1.563-2.112-5.3 0.619-7.538 1.006-1.571-0.154 1.277 1.452-0.501 1.507-1.628 0.622-0.385-1.625-2.013-1.005-2.041 1.65-8.905 1.136-8.541 3.518 5.723-1.088 14.467 1.163 21.104 0.503 1.976-0.196 3.367-1.255 5.53-2.01 4.728-1.652 9.671-3.472 14.572-5.529 4.774-2.002 9.261-4.602 14.07-6.532 11.392-4.57 22.263-12.298 30.151-18.593 3.859-3.08 7.365-5.464 11.055-9.044 5.731-5.566 9.834-10.768 14.072-17.59 4.094-6.596 7.947-12.336 10.553-19.096 1.938-5.034 3.751-10.912 4.521-15.577 1.028-6.222 1.065-12.855 0.503-18.593-0.669-0.505-1.515-0.83-2.01-1.509 2.429-0.832 0.08-1.284-0.503-1.507 0.008-0.831 1.394-0.28 1.508-1.004-0.349-0.992-2.805 0.123-3.016-1.006 0.31-0.698 1.935-0.076 2.011-1.006-0.884-0.289-2.953 0.609-3.014-0.501 1.034-0.305 3.489 0.81 3.014-1.006-2.377-0.062 1.108-0.627 0-2.513-6.29-3.08-3.06 5.42-2.99 10.06zm-253.28-7.54c-2.3-0.3-4.201 0.119-7.034-0.502 0.32 1.88 5.92 1.1 7.03 0.5zm30.66 2.01c-1.195-0.834-5.84-0.834-7.035 0 1.58 0.53 4.22-0.31 7.04 0zm-202.52 16.09c1.008-4.523 5.176-8.556 4.522-13.066-1.47 4.06-5.66 8.07-4.522 13.07zm181.4-10.56c1.204-0.2-0.278 2.289 1.508 1.507 7.022 0.596 16.834 0.504 25.125 0.504 2.948 0 6.958-0.82 8.041 1.003-4.31-0.208-10.011-0.402-15.579 0.504 22.254 1.793 49.863 1.335 69.349-4.021-34.372 0.28-50.433-0.574-81.408-0.503-1.57 0.154 1.277-1.451-0.503-1.507 0.237 2.1-4.442 1.894-5.528 1.004 0.791-0.047 1.743 0.067 1.508-1.004-7.613 0.417-13.655-0.641-20.602 0.503 4.94 1.71 12.59 2.46 18.09 2.02zm-40.7 2.51c11.012 0.053 20.908 0.711 32.161 0.502-1.404-1.592-4.14-1.924-6.531-2.513-12.268-3.018-30.137-2.811-46.232-2.511-0.307 0.026-0.595 0.073-0.503 0.501 7.67 4.85 14.84 3.99 21.1 4.02zm126.13 0.51c6.191 1.354 11.873-0.102 18.093 0 5.435 0.091 10.757 1.188 15.576 0.504 2.014-0.286 4.754-1.751 7.035-2.513 2.118-0.708 5.973-0.459 5.527-3.015-15.15 0.46-30.62-1.01-46.23 5.02zm170.86 11.56c-1.219-4.311-2.628-8.431-5.528-11.056 0.74 4.79 3.4 7.65 5.53 11.06zm-285.43-7.54c19.767 0.095 41.624 0.339 59.8-0.503-21.545-2.433-47.875-2.116-73.366-2.011-0.307 0.029-0.596 0.076-0.503 0.504 4.24 2.15 8.9 1.98 14.07 2.01zm77.38-0.51c13.105 1.664 27.985 0.359 44.222 0.503 6.81 0.062 13.114 1.479 18.595-2.01-23.28-0.41-39.54-0.67-62.81 1.51zm-230.65 20.61c1.868-6.221 8.574-13.163 5.025-20.103-2.02 6.02-7.367 11.39-5.025 20.1zm192.97-18.6c-13.399-0.028-26.416 0.099-37.689 1.005 7.365 1.459 17.955 4.095 24.121 3.517-2.214-2.544-6.902 0.501-8.041-3.015 26.569 0.222 68.822-0.533 93.469 0 3.001 0.065 6.881 1.781 10.049-0.502-23.68 0.04-51.56-0.93-81.91-1zm78.89 4.02c0.896-0.278 2.087-0.26 2.513-1.006-1.24-0.06-2.43-0.09-2.51 1.01zm-91.96 1.51c2.654 0.037 6.083 1.94 8.542 0.503-0.936-0.069-1.68-0.331-2.011-1.006 2.921-1.348 7.536 1.264 10.052-1.004-6.27 0.72-13.63-1.7-16.58 1.51zm31.66-1.51c-0.73 0.273-2.598-0.589-2.513 0.501 0.73-0.27 2.59 0.59 2.51-0.5zm3.02 0c-0.729 0.273-2.597-0.589-2.513 0.501 0.72-0.27 2.59 0.59 2.51-0.5zm19.09 0c-2.854 0.327-7.027-0.662-9.046 0.501 2.86-0.32 7.03 0.67 9.05-0.5zm4.52 0c-0.882 0.288-2.95-0.607-3.014 0.501 0.88-0.28 2.95 0.61 3.01-0.5zm6.53 0c-3.22-0.58-1.1 1.54 0 0zm0.51 0.51c0.083 0.918 4.036 0.824 5.526 0-1.47-0.82-5.61-0.87-5.53 0zm6.53 2.01c5.104-0.256 10.441-0.278 14.07-2.01-4.39 0.97-10.23 0.48-14.07 2.01zm187.44 13.56c1.187-6.419-2.398-12.312-6.029-15.579-1.09 6.4 3.49 11.17 6.03 15.58zm-273.87-14.06c-3.47-0.54 5.22 1.08 0 0zm80.4 1.5c1.396-0.948 5.174 0.483 5.527-1.507-1.27 1.08-5.1-0.4-5.53 1.51zm-38.19 0h-3.015c-1.415-0.449-5.237-1.1-6.533 0 1.63 0.33 14.17 0.99 9.55 0zm30.65 0.5c0.951-0.223 3.031 0.684 2.514-1.006-1.24-0.07-2.43-0.09-2.51 1.01zm4.52-1c-0.426-0.425-1.434 0.366-1.507 0.503-0.47 0.88 1.86-0.15 1.51-0.5zm-26.63 1c-2.161 0.213-4.415-0.985-6.532 0 1.18 0.69 5.39 0.94 6.53 0zm17.59 0.5c3.39-0.97-1.5-1.58 0 0zm-5.53-0.5c-1.201 0.305-3.646-0.632-4.021 0.501 1.2-0.3 3.65 0.64 4.02-0.5zm-225.12 8.55c-2.054 5.092-3.243 7.496-2.01 13.064 0.361 1.634 0.135 4.244 2.01 5.025 2.75-4.62 4.749-9.992 7.035-15.076-1.247-3.107-2.421-6.289-3.015-10.05-0.111-0.393-0.422-0.584-1.006-0.502-0.726 2.39-1.88 4.73-3.014 7.54zm427.14 2.01c3.16 4.21 4.065 10.676 7.538 14.572 0.846-2.002 0.748-4.948 1.507-7.036-2.944-3.922-3.761-9.974-7.536-13.065-0.54 1.81-0.78 3.91-1.51 5.54zm-3.01 17.58c1.708 4.582 3.333 9.557 5.529 12.563 1.558-3.801 3.292-7.427 4.021-12.06-3.196-3.841-3.916-10.156-7.539-13.569-2.35 5.32-4.01 7.7-2.01 13.07zm-423.62 2.52c2.424 5.449 3.744 12.002 8.041 15.578 2.189-5.348 4.938-10.138 7.035-15.578-3.435-4.438-4.743-11.003-8.543-15.076-2.136 5.07-4.485 9.92-6.533 15.08zm25.125-4.02c-0.625-0.539-2.729-3.848-2.01-2.513 0.009 1.2 1.429 3.54 2.01 2.51zm388.95 12.56c-0.127 2.364 2.108 5.883 3.014 8.542 1.044 3.058 1.108 6.361 3.52 8.041 2.142-2.826 3.95-5.768 5.527-8.543 2.325-4.099 0.314-6.703-1.507-11.057-1.125-2.682-2.683-5.224-3.017-8.04-0.642-0.026-0.694-0.644-1.507-0.502-0.51 4.54-5.77 6.87-6.02 11.56zm-373.37 7.04c0.963 0.855 2.044 2.599 3.518 2.011-6.792-5.268-11.712-12.41-17.588-18.596 3.927 5.74 9.268 12.32 14.07 16.59zm-32.162 2.51c5.265 8.303 10.796 16.342 18.593 22.112 1.776-3.585 2.958-7.763 6.031-10.05-0.94 4.754-3.959 7.43-5.529 11.557 6.432 6.371 14.824 11.977 22.613 16.583 2.649 1.565 5.203 4.711 8.542 4.02 0.763 2.52 3.999 3.963 6.03 5.025 2.562 1.339 5.492 2.303 8.041 3.518 44.152 21.053 97.024 32.671 160.3 31.155 1.275-0.901-1.189-3.083 1.007-3.517 0.837 0.671 0.167 2.847 1.004 3.517 31.941-1.524 58.846-6.467 85.428-14.069 0.402-5.431-2.411-10.313-1.005-15.076 0.998 4.363 1.634 9.087 2.01 14.07 18.932-4.854 35.328-12.242 50.756-20.603-1.355-6.017-2.558-12.184-4.523-17.588-14.79 7.489-29.569 14.986-47.237 19.597-1.151 0.188-0.669 2.011-1.507 2.514-0.895-0.445-1.276-1.402-3.014-1.004-26.595 8.461-57.211 13.198-88.444 14.573-43.742 1.922-87.021-7.352-123.12-19.6-37.552-12.741-69.973-32.339-87.939-61.809-0.505 0-0.599-0.407-1.006-0.503-2.499 5.04-4.838 10.24-7.046 15.57zm389.45 9.04c1.527 5.676 3.659 10.747 5.025 16.583 7.105-3.445 10.784-10.319 16.08-15.578-1.732-5.804-4.317-10.759-6.029-16.584-0.643-0.026-0.696-0.644-1.509-0.501-3.58 6.31-9.11 10.66-13.57 16.08zm-341.71 1.01c-3.376-3.325-8.461-7.615-12.061-9.045 4.005 3.02 7.573 6.49 12.061 9.04zm323.62-2.01c0.999-0.508 2.146-0.867 2.512-2.011-1.11 0.1-3.19 1.78-2.51 2.01zm-3.02 2.01c0.864 0.027 1.29-0.388 1.51-1.005-0.86-0.03-1.29 0.38-1.51 1zm20.11 1c-0.643-0.027-0.696-0.644-1.508-0.503-7.488 7.255-15.826 13.657-25.629 18.593 0.295 6.909 2.814 11.593 3.518 18.092 10.973-5.275 20.9-11.595 28.642-20.102-1.26-5.77-3.74-10.32-5.02-16.08zm-29.65 5.53c2.119-0.055 2.867-1.484 4.019-2.512-1.8 0.38-3.06 1.29-4.02 2.51zm-230.66 29.65c-0.148-1.195-1.359 0.557-1.508 1.005-6.869 0.334-15.074-0.669-21.106 0.503 12.418 6.176 35.068 4.797 52.766 4.021-10.25-1.63-20.37-3.4-30.15-5.52zm159.3 0.5c-36.35 8.958-84.843 11.025-124.12 5.527-2.587-0.039 0.192 2.167-3.015 1.509h-30.151c0.969 1.327 3.232 1.695 4.522 2.011 9.205 2.24 27.06 1.584 36.684 1.507 16.739-0.136 33.644-0.127 52.264 0 16.762 0.111 34.902 1.483 51.255 0 1.749-0.16 3.799-0.629 5.529-1.007 1.446-0.314 3.821-0.309 5.023-2.01-9.19-0.462-22.093 1.037-28.139-1.004 10.121-1.278 21.222-0.067 31.155 0 5.444 0.037 9.053-1.273 13.566-2.514 2.698-0.74 6.337-0.449 8.041-3.014-7.41-0.46-16.75 1.01-22.59-1.02zm-133.64 12.56c8.727 0.738 18.063 0.946 27.639 1.006 8.735 0.053 17.727 0.028 26.633 0 15.301-0.052 31.917 1.056 47.237 0 1.523-0.106 4.47 0.186 5.525-1.509-41.191 0.292-71.604-0.565-108.04-0.503 0.05 0.61 0.14 1.19 1 1zm25.6 3.02c17.581 0.296 38.228 1.836 52.263 0-17.3-0.76-35.57-1.08-52.26 0z"/>
	<path d="m179.79 15.192c-0.427 0.748-1.619 0.728-2.514 1.005-1.16-0.39 1.56-1.055 2.51-1.005z"/>
	<path d="m143.6 28.76c0.301-0.991 5.027-1.942 4.021-1.005-1.59 0.078-2.21 1.141-4.02 1.005z" fill="#FFD07B"/>
	<path d="m391.85 81.525c1.939 2.081 3.412 4.628 5.025 7.036-1.61-0.421-3.77-4.604-5.03-7.036z" fill="#FFD07B"/>
	<path d="m93.855 165.45c1.461-0.438 0.565-0.753 0.502-2.01 3.541 1.033 2.915 4.721 5.528 3.517 2.126 0.035 1.189 1.149 0.502 2.009 1.9 0.728 0.964-1.38 2.513-1.003 18.249 9.892 38.921 17.36 62.312 22.11 0.084 1.09-1.782 0.227-2.512 0.503 0.825 2.369 3.675 1.595 5.527 2.01 58.058 12.98 131.27 1.538 176.38-24.122 5.869 12.053 9.462 26.387 15.076 38.695-0.321-6.768-3.572-13.847-6.03-20.604-2.414-6.637-5.369-13.039-7.537-19.598 8.475-4.088 15.576-9.549 22.111-15.579 6.154 9.762 11.217 21.062 16.583 31.658 0.674 1.335 1.018 3.296 2.512 4.022-10.998 13.288-27.196 21.38-42.211 30.652-18.282 7.378-37.471 15.753-58.795 19.597-81.031 14.61-173.38-2.732-222.11-47.235 4.831-7.23 9.688-14.434 13.568-22.613-3.295 2.648-5.348 6.819-7.538 10.553-2.167 3.697-4.48 7.354-6.532 11.057-14.362-12.273-26.562-26.705-30.654-49.248 0.318-1.524 2.305-1.38 3.015-2.512 2.883-4.44 5.59-8.877 8.543-13.066 2.916-4.137 7.208-7.561 8.543-13.065-2.702 0.862-4.06 3.94-5.528 6.03-4.562 6.49-8.983 13.759-14.573 19.598-0.341-1.836-0.701-3.654-0.503-6.03-0.175-2.018 2.361-1.325 3.016-2.513 4.611-9.459 11.723-16.419 16.583-25.628 2.154 3.113 1.405 6.596 2.01 10.049 4.42 25.24 21.992 40.29 39.695 52.76zm-31.659-27.14c-2.341 5.126-5.965 9.238-9.045 13.568-3.208 4.507-6.484 9.005-9.046 14.071 4.438-3.581 7.265-8.825 10.553-13.568 3.242-4.677 6.919-9.359 9.548-14.574-0.875-0.04-1.563 0.11-2.01 0.5zm-16.582-1.51c-3.037 4.278-7.783 7.806-9.045 13.568 4.12-3.591 6.799-8.585 10.05-13.065 3.244-4.472 6.323-9.113 9.547-13.568 0.027-0.865-0.387-1.289-1.004-1.508-3.519 4.9-6.185 9.84-9.548 14.58zm32.16 30.15c1.687-0.156 2.005-1.681 2.513-3.015-1.909-0.07-2.37 1.31-2.513 3.01zm70.356 21.11h1.005v-1.004h-1.005c-0.01 0.33-0.01 0.66-0.01 1zm158.29 0c0.505-0.003 0.599 0.407 1.007 0.503-0.003-0.506 0.406-0.6 0.502-1.006-0.505 0.002-0.599-0.407-1.005-0.501 0 0.51-0.4 0.6-0.5 1.01zm-151.76 2.01h1.006v-1.004h-1.006v1zm152.77 1.01c0.502-0.002 0.597 0.407 1.004 0.501-0.047-0.789 0.067-1.742-1.004-1.507v1.01zm7.03 29.14c0.606 2.508 0.885 7.058 3.015 6.532-2.763-10.972-5.369-22.104-8.04-33.168-0.11-0.391-0.421-0.582-1.005-0.501 1.46 9.15 4 18.81 6.02 27.14zm-211.56-20.6c1.466 0.738 1.466-2.247 0-1.509v1.51zm-2.51 4.52c1.314 0.143 2.162-0.183 2.01-1.507-0.643-0.027-0.696-0.645-1.508-0.504 0.11 0.95-0.57 1.11-0.5 2.01zm-2.515 8.04c0.218-1.493 3.632-4.463 1.005-5.527 0.115 2.1-3.435 4.27-1.005 5.53zm137.68-2.51h1.508c0.064-0.903-0.499-1.176-1.508-1.006v1.01zm3.02 31.15c0.178-7.38-0.657-13.751-1.007-20.602-0.11-0.394-0.421-0.586-1.004-0.504 1.01 6.69-0.22 15.63 2.01 21.1z" fill="#FFD07B"/>
	<path d="m367.22 104.14c1.453 2.642-0.406 6.282-0.503 9.046-0.888 0.944-1.466-0.598-2.511 0.502-2.149 7.233-5.445 13.317-8.042 20.101 2.32-9.24 7.52-19.95 11.05-29.65z" fill="#FFE09B"/>
	<path d="m116.47 144.84c-2.997 1.339 0.595 3.824 1.508 5.025 3.636 4.786 9.115 10.394 14.573 13.065-6.751-0.789-12.841-6.588-16.583-12.06-0.67-1.232-1.517 0.905-2.01-0.502-0.175-4.53 1.562-7.148 2.512-10.553 6.554 10.196 13.421 20.081 26.634 23.619-12.73-0.33-20.26-10.21-26.63-18.59z" fill="#FFE09B"/>
	<path d="m417.98 150.37c1.021 0.321 0.333 2.349 1.509 2.513-0.92 1.53-1.54-1.42-1.51-2.51z" fill="#FFD07B"/>
	<path d="m70.236 256.9c0.049-0.972 1.962 0.869 2.01-1.005-0.805-0.87-1.877-1.473-3.015-2.009-1.184 0.134-0.307 2.224 0.503 2.009-1.383 0.582-6.979-2.531-3.518-4.021-7.466-4.762-14.3-10.155-20.101-16.584 3.369-11.37 8.493-20.987 11.559-32.662-2.165 1.827-2.516 4.96-3.517 7.536-2.789 7.167-5.997 15.555-9.046 23.116-2.47-0.648-4.034-3.246-5.526-5.024-4.413-5.259-8.705-11.618-12.563-18.092 4.582-14.01 10.45-26.734 15.075-40.703-1.945 0.086-2.475 2.759-3.015 4.02-4.505 10.541-7.985 23.095-13.065 33.669-1.884-4.687-5.487-9.077-5.528-14.07-0.022-2.739 1.839-6.967 3.015-10.553 3.048-9.294 7.773-20.701 10.553-29.649 15.074 34.442 46.304 56.413 83.921 71.859 55.819 22.924 138.52 28.65 199 6.532 3.452 14.809 5.069 31.448 9.046 45.731 0.078-7.439-2.229-15.284-3.516-23.115-1.312-7.963-2.521-15.888-4.523-23.116 33.386-11.678 63.137-28.175 82.411-54.272 2.671-3.617 4.758-7.786 8.039-11.055 4.099 11.146 8.564 21.923 12.062 33.668 0.566 0.94 0.593 2.421 2.514 2.01-17.303 44.006-58.337 64.279-104.02 79.901 4.956-0.482 9.784-2.25 14.572-4.021 13.485-4.989 27.39-11.485 39.198-18.595-2.889 3.186-9.982 6.916-16.082 10.051-27.248 14.012-65.911 22.777-103.02 26.131-65.48 5.89-139.71-9.69-183.42-37.72zm330.65-78.39c5.462 11.454 7.81 26.025 13.569 37.186-0.027-6.625-3.466-12.682-5.529-19.096-2.071-6.441-3.942-13.203-6.029-19.6-0.643-0.026-0.696-0.644-1.507-0.501-0.15 0.68-0.71 0.96-0.5 2.01zm-9.04 23.12c3.587 10.842 6.123 22.621 10.552 31.156-0.466-6.944-3.397-13.805-5.526-20.604-2.153-6.879-4.813-13.606-6.534-20.604-0.717-0.118-0.845-0.826-1.507-1.004-1.02 3.85 1.71 7.08 3.02 11.04zm-333.17-3.02c1.324 0.151 1.649-0.695 1.508-2.01h-1.508v2.01zm302.01 15.08c2.933 12.46 7.215 26.341 10.554 37.186 0.488 1.584-0.352 4.529 2.01 5.025-0.822-6.833-3.437-13.931-5.526-21.105-2.129-7.306-3.658-14.828-5.527-22.112-0.645-0.026-0.698-0.644-1.51-0.502-0.06 0.58-0.88 1.13 0.01 1.5zm-274.37 22.11c-0.086-0.75 0.18-1.854-0.502-2.01-0.653 0.67-0.663 1.87 0.502 2.01zm-2.01 3.01h1.005v-1.006h-1.005v1.01zm-1.508 4.02c0.504-0.002 0.598 0.406 1.005 0.503-0.047-0.791 0.067-1.741-1.005-1.509v1.01zm-5.025 14.07c2.495-2.529 3.31-6.741 4.523-10.554-0.112-0.391-0.421-0.585-1.005-0.503-0.657 4.2-3.103 6.61-3.518 11.05zm-2.01 1.01c-0.642-0.028-0.696-0.644-1.508-0.503-0.781 1.23 1.707 1.47 1.508 0.5zm162.82 3.01c1.544 0.769 1.544-3.281 0-2.513v2.51zm-160.3-0.5c0.092-1.096-0.412-1.597-1.507-1.507-0.092 1.1 0.41 1.6 1.507 1.51zm1.005 1.01h1.005c0.781-1.237-1.707-1.479-1.508-0.503 0.307 0.02 0.596 0.07 0.503 0.5zm160.81 3.01c-1.69-1.52-1.53 1.86 0 0zm-0.51 24.12c0.106 1.11-0.268 3.373 1.507 3.517-1.152-7.366 0.226-17.169-2.01-24.622 0.47 7.86-0.08 15.05 0.5 21.1zm67.34-4.02h1.005v-1.006h-1.005v1.01zm-9.54 1.01c-9.388 2.709-21.285 4.229-31.659 5.528-3.563 0.447-7.584 0.109-10.553 2.011 15.58-1.674 31.999-2.507 44.222-7.539h-2.01zm-62.32 8.54h1.51c0.063-0.902-0.499-1.177-1.51-1.004v1zm4.02 0h1.007v-1.004h-1.007v1z" fill="#FFD07B"/>
	<path d="m80.79 153.89c-0.645-0.943 1.259 1.145 1.508 1.507 0.345 0.5-0.665-0.28-1.508-1.51z" fill="#FFD07B"/>
	<path d="m411.95 155.4c4.516 9.556 8.539 19.602 12.06 30.15 0.475 1.536 2.446 1.575 2.514 3.52-1.079 1.989-1.163 8.728-4.02 10.553-2.553-9.231-6.453-18.357-9.55-27.136-0.998-2.834-1.083-6.519-4.02-8.042-0.428-0.092-0.475 0.196-0.504 0.503-0.29-2.65 2.5-6.53 3.52-9.54z" fill="#FFD07B"/>
	<path d="m423 163.94c0.468 0.368 0.761 0.912 1.003 1.508-0.21 1.26-1.07-0.84-1-1.51z" fill="#FFD07B"/>
	<path d="m138.58 165.95c-1.439-0.258 5.246-0.783 4.523 1.507-1.97-0.04-3.13-0.89-4.52-1.51z" fill="#FFD07B"/>
	<path d="m168.23 191.08c5.22 1.08-3.47-0.54 0 0z" fill="#FFD07B"/>
	<path d="m29.532 217.2c-0.719-1.335 1.386 1.974 2.01 2.513-0.581 1.04-2.001-1.3-2.01-2.51z" fill="#FFD07B"/>
	<path d="m33.05 222.73c5.876 6.186 10.796 13.328 17.588 18.596-1.473 0.588-2.555-1.155-3.518-2.011-4.801-4.27-10.142-10.85-14.07-16.59z" fill="#FFD07B"/>
	<path d="m50.638 242.83c3.6 1.43 8.685 5.72 12.061 9.045-4.488-2.55-8.056-6.02-12.061-9.05z" fill="#FFD07B"/>
	<path d="m388.83 247.86c-0.365 1.144-1.513 1.503-2.512 2.011-0.68-0.23 1.4-1.91 2.51-2.01z" fill="#FFD07B"/>
	<path d="m349.64 52.881c-0.438-1.483-0.753 1.167-2.011 0.503-1.344-2.677-4.656-3.386-6.032-6.03-3.862-2.287-7.627-4.654-11.557-7.036-3.771-2.285-7.995-4.399-11.056-7.537 0.897-0.001 2.924 1.353 3.52 0-1.885-1.301-6.733 0.367-8.042-1.508 0.157-0.682 1.259-0.417 2.009-0.503-4.729-0.405-5.072-2.14-9.546-2.512 2.856-2.182 7.911 0.359 13.568-0.503-1.572-1.853-5.275-1.005-8.042-1.005-5.842 0-11.13 0.243-14.572-2.009 1.63-1.226 5.575-0.522 9.046-0.502 3.429 0.018 7.085-0.015 10.049 0-1.655-1.763-5.694-1.005-9.044-1.005-4.787 0-9.541-0.587-12.562 1.005-21.592-7.204-40.79-11.375-68.344-11.558 0.891-1.622 6.032-1.218 9.046-1.005 1.661 0.117 3.181 0.835 4.523 0.502-1.363-1.976-4.179-0.889-6.03-1.005-2.986-0.186-6.291-0.412-11.056 0-0.16 1.333 2.815-0.469 2.01 1.508-26.804 0.054-50.432 3.927-72.363 10.05-2.275 0.375 0.769-1.379-1.507-1.005-1.243-0.961-0.812 2 0 1.005-1.071 1.312-5.018 2.369-7.036 2.513-1.604 0.115-0.219-0.915-0.502-1.004-0.463-0.149-1.997 0.042-2.512 0-3.599-0.295-7.9-0.297-10.553 0 3.252 1.716 7.774-0.787 10.05 1.507-1.425 2.263-5.221 2.04-8.041 3.015-4.146 1.436-8.252 3.765-11.558 5.528-2.375-0.151-6.402-1.285-8.542 0 1.023 1.153 4.172 0.182 6.03 0.503-2.569 3.004-6.346 4.426-9.548 6.532-3.051 2.007-6.2 4.157-9.045 6.533-5.791 4.833-10.575 10.454-15.579 16.081-3.256 7.776-8.167 14.331-9.547 23.117-0.406 2.577 0.546 5.591-1.508 8.04-1.966 0.793-1.041-1.305-2.01-1.508-1.205-0.198 0.279 2.29-1.508 1.508-3.13-2.848-8.784-1.144-13.568-1.508-0.432 2.442 3.276 0.746 3.518 2.514 0.854 0.185 0.948-0.392 1.005-1.005 0.643 1.755 5.385 0.217 7.538 1.005 1.385 0.506 0.07 1.549 1.507 2.009-0.696 1.146-3.498 0.188-5.025 0.503 0.125 1.885 2.897 1.124 3.015 3.015 1.788 0.781 0.304-1.708 1.508-1.508 2.003 0.434 3.712-0.75 4.521 0 6.742 43.511 41.237 59.268 77.891 72.865-3.707 0.176-7.821 0.476-12.562 0-6.034-0.605-12.976 1.092-19.097 0.503-3.718-0.357-10.873-4.085-14.573-6.03-4.781-2.515-8.964-5.649-12.563-7.538 3.856-1.168 9.88-0.171 14.573-0.501-0.872-2.042-4.171-1.532-6.03-1.508-3.094 0.039-6.766 0.196-9.548 1.004-6.719-4-12.579-8.862-17.588-14.573 0.326-0.511 1.155-0.519 1.005-1.508-8.841-10.221-17.909-22.442-18.593-39.196 2.594 0.417 4.116-0.239 4.522-2.009 1.574-0.234 2.244 0.436 2.011 2.009 1.574-0.602-0.153-2.046 2.01-2.513-0.393-1.617-3.556-0.464-3.518-2.512-2.34-0.443 0.339 1.656-1.005 1.507-1.653 0.429-3.796 0.742-5.528-0.502-0.614-9.233 0.81-16.467 3.518-23.116 8.236-20.22 25.402-34.49 43.217-45.227h9.547c-0.061-2.116-3.855-0.499-5.527-1.005 0.642-1.433 4.739-1.302 6.03-0.503 0.74-1.911-2.246-0.098-1.507-2.01 3.054 0.14 7.74 1.293 10.552 0-3.119-0.987-7.11-0.527-10.05-0.502 2.726-3.472 8.411-3.984 12.06-6.533 1.08 0.932 3.682 0.34 5.528 0.503 0.517 1.688-1.563 0.782-2.512 1.005 7.089 1.215 12.942 0.774 19.095 0.502-0.736-3.268-5.646-2.01-9.045-2.01h-11.056c3.832-3.18 9.099-3.932 14.071-5.528 4.937-1.584 10.021-3.042 15.075-4.522 56.249-16.466 126.56-9.557 175.88 13.065 0.369 1.137 1.914 1.101 2.01 2.513 0.448-0.391 1.135-0.541 2.011-0.503 4.297 3.743 11.438 4.642 14.572 9.548-2.143-0.204-5.177 0.486-6.533-0.502 0.493-1.409 1.342 0.729 2.01-0.503-4.581-0.71-12.01-1.45-16.583 0 3.771 1.275 7.894 0.005 11.058 0 0.231 1.073-0.719 0.958-1.51 1.005 2.977 2.551 11.28-0.224 15.076 1.508-1.288 1.391-5.71-0.349-7.037 1.005 9.864-0.711 14.27 3.824 20.605 9.547 9.962 9 20.999 23.574 24.119 37.186 1.164 5.071 1.667 11.123 0.504 14.071-1.325 0.151-1.649-0.696-1.507-2.01-3.272 1.108-7.367-1.806-8.042 0-1.174-2.116-7.043-1.855-9.547-1.006 0.673 3.15 2.684 0.308 3.518 2.011 2.7-0.411 4.118 1.019 6.029 0 0.504 0.668 0.477 1.87 1.509 2.01 2.925 0.259 6.93-0.565 9.045 0.502-1.329 17.142-9.628 32.681-21.106 44.222-11.313 11.375-30.479 22.856-47.236 29.146-5.716 2.146-19.202-1.292-26.13-0.503 9.358-4.376 20.484-6.985 28.643-12.563 3.689-0.33 8.705 0.665 11.558-0.502-0.643-2.205-5.257-0.436-7.537-1.005 17.781-12.201 35.119-24.85 39.699-50.251h3.517c-0.114-2.432-1.494-0.48-3.014-1.507 1.86-2.151 4.459-3.952 5.024-6.031 1.059 0.45 2.999 0.017 2.512 2.01 0.396-1.689 2.242-1.256 4.523-2.01-1.875-2.479-8.872 0.163-11.559-1.507-0.378-21.563-9.107-34.778-20.604-45.227-0.812 0.141-0.864-0.476-1.507-0.503 0.15-0.531 1.02-0.327 1.03-0.992zm-127.64-41.709c-0.732 0.275-2.6-0.587-2.514 0.503 0.73-0.275 2.59 0.587 2.51-0.503zm-44.73 5.026c0.895-0.277 2.087-0.258 2.514-1.005-0.94-0.051-3.66 0.614-2.51 1.005zm-19.6 4.522c0.865 0.027 1.289-0.386 1.507-1.005-0.86-0.026-1.29 0.387-1.51 1.005zm142.72 1.006c-2.022 0.323-5.343-0.653-6.532 0.503 1.31 0.256 6.12 1.6 6.53-0.503zm-175.88 1.508h1.006v-1.005h-1.006v1.005zm201.51 2.009c-4.148-0.263-15.477-0.229-19.599 0-4.803 0.266 4.546 0.503 4.522 0.502 4.898 0.15 11.456 0.579 19.097 0.503-0.69-1.941-3.24-0.955-4.02-1.005zm-201.51 0c-11.15 0.18 10.425 2.166 10.554 0.502-2.15-0.822-7.64-0.549-10.55-0.502zm192.97 3.517c-1.04 0.3-3.3-0.621-3.517 0.503 1.04-0.298 3.3 0.621 3.52-0.503zm2.51 1.005h1.004v-1.005h-1.004v1.005zm-213.57 3.016c3.902-0.506 10.507 0.924 12.06-0.502-2.09-0.258-9.55-1.584-12.06 0.502zm218.59 0.503h1.005v-1.005h-1.005c-0.01 0.335-0.01 0.669-0.01 1.005zm-215.58 1.508h1.005v-1.005h-1.005c-0.01 0.334-0.01 0.669-0.01 1.005zm225.13 1.506h1.003v-1.005h-1.003v1.005zm48.24 64.822c0.504 0 0.598 0.407 1.004 0.503-0.047-0.791 0.067-1.744-1.004-1.508v1.01zm-7.03 4.02c1.467 0.739 1.467-2.247 0-1.508v1.51zm-317.09 0c0.791-0.048 1.743 0.067 1.508-1.005h-1.005c0.002 0.5-0.407 0.6-0.503 1zm314.07 1.51h1.005v-1.005h-1.005c-0.01 0.34-0.01 0.68-0.01 1.01zm-314.07 1.01h1.508c0.091-1.096-0.411-1.599-1.508-1.508v1.51zm20.101 39.7c0.238-1.579-0.626-2.053-1.507-2.513-1.059 1.04 0.662 1.88 1.507 2.51zm31.161 12.06h1.005v-1.006h-1.005v1.01zm3.01 0h1.005v-1.006h-1.005c-0.01 0.33-0.01 0.67-0.01 1.01zm226.63 1h1.007v-1.003h-1.007v1z" fill="#FFE09B"/>
	<path d="m259.69 19.715c0.037-1.713-1.862-1.487-3.519-1.508 10.153 0.333 20.53 2.847 30.152 5.528 11.507 3.207 22.914 7.46 32.663 12.563 19.611 10.266 38.129 24.043 46.231 45.73-0.617-0.22-1.033-0.644-1.004-1.508 0.147 5.241 4.53 13.188 3.518 19.598-0.035 2.467-1.15-1.137-2.011 0.503-3.662 10.973-8.097 22.15-12.562 32.663-1.384 3.257-2.067 7.465-5.527 9.045 4.757-14.334 12.001-29.176 17.084-43.718 0.557-1.588 2.022-4.535 0.503-6.031-1.5 1.317-2.245 3.466-3.014 5.528-3.843 10.306-8.417 22.553-12.562 33.669-1.744 4.673-3.26 9.724-5.027 13.568-0.909 1.98-3.661 3.498-5.525 5.025-4.031-9.539-7.857-19.28-15.58-25.126-0.351 2.438 2.157 4.242 3.518 6.03 4.074 5.354 8.747 12.007 10.052 20.604-1.787 0.781-0.305-1.708-1.51-1.508-7.983 8.432-18.757 14.074-31.658 17.589-2.463-7.254-6.791-12.641-12.562-16.584 0.227 2.994 4.02 4.512 6.031 7.036 2.331 2.928 4.096 6.647 5.024 10.552-12.25 4.662-23.634 7.281-41.709 6.03-1.53 0.19-0.853-1.826-2.01-2.01-39.21 1.275-61.412-0.36-97.991 0 3.749-1.785 7.888-1.117 11.559-1.004 18.41 0.556 43.959 0.693 63.819 0-7.396-1.979-17.708-0.129-25.629-1.006-1.926 0.092-0.182-0.411-0.502-1.507-6.512-1.472-18.834 1.979-24.121 0-1.584-0.593-0.279-1.151-1.005-2.01-1.987 0.16 0.372 1.557-1.004 2.01-2.554 0.09-0.11-1.697-2.011-2.01-10.999 0.291-25.088-0.504-34.674 0.503 4.917 1.45 13.156-0.425 18.091 1.003-1.854 1.164-5.854 0.177-8.542 0.503 2.805 0.969 9.003 0.832 14.069 1.004 1.305 0.045 6.011-0.115 3.015 0.502-7.796 0.818-11.647-0.221-20.604 0 0.212-1.128 2.667-0.012 3.015-1.004-3.406-0.949-8.398-0.311-11.557-1.509 4.763-18.905 21.968-28.189 40.704-33.668 4.555-1.332 9.104-2.073 13.568-4.02-1.942-1.608-4.568 0.025-6.533 0.502-18.816 4.576-36.731 12.773-45.73 27.639-7.51-3.262-14.037-7.173-18.593-13.568-2.819-3.956-3.788-9.174-7.538-12.562 1.701-3.157 3.629-6.087 6.534-8.04 2.747 9.558 8.07 18.124 15.075 24.121 2.161 1.848 4.818 4.666 8.04 4.02-1.947-2.471-4.753-2.658-7.034-4.523-4.934-4.035-9.63-11.135-12.563-17.588-0.946-2.08-0.753-5.073-3.015-6.533 7.453-10.325 18.87-16.196 31.156-21.608 9.324-4.108 18.261-6.825 30.151-9.046 3.455-0.645 7.181-0.988 10.553-2.512-3.008-1.603-7.58 0.283-12.061 1.005-28.646 4.613-52.402 18.124-66.835 37.689-5.352-10.338-10.888-20.999-16.08-31.659-5.252-10.781-9.575-21.958-16.081-31.658 25.961-32.898 76.041-46.453 130.15-48.745 13.72-0.554 28.43-0.139 41.2 2.037zm-110.06 10.554c3.02 19.793 5 41.579 7.538 61.307 0.349 2.712 0.466 5.775 2.009 8.041-1.308-22.648-6.06-46.197-8.04-69.851-0.106-0.563-0.557-0.782-1.005-1.005-0.03 0.642-0.65 0.696-0.51 1.508zm-26.63 11.055c5.113 18.867 10.537 41.953 14.573 59.297 0.693 2.978 0.527 6.898 2.514 8.543 0.014-5.746-1.734-11.485-3.017-17.086-3.995-17.465-8.946-34.194-12.06-51.76-0.643-0.027-0.696-0.644-1.508-0.502-0.01 0.646-0.63 0.7-0.49 1.512zm64.82 2.009c1.466 0.74 1.466-2.246 0-1.507v1.507zm1.51 26.634c0.128 3.543-0.164 7.361 0 10.553 0.205 3.944-0.166 8.38 2.011 9.548-1.17-13.02-0.729-29.471-3.015-43.719-0.82 7.175 0.73 15.749 1.01 23.618zm-87.94-14.572c7.285 18.632 14.521 38.151 21.104 57.286 0.891 2.586 1.206 6.039 3.518 8.041 1.401-0.648 0.238-2.785 0-3.517-6.947-21.391-16.138-42.78-23.115-63.318h-1.507c-0.19 0.722-0.6 0.852 0 1.513zm244.22 15.578c1.4 0.805 1.391-2.171 0.505-2.01-0.16 0.679-0.72 0.959-0.51 2.01zm9.05 3.517c-5.636 18.5-11.244 39.614-17.086 57.287-0.639 1.933-3.034 5.581-1.004 7.035 7.355-21.121 13.249-43.701 20.1-65.327-0.11-0.392-0.422-0.585-1.003-0.503-0.12 0.71-0.83 0.84-1.01 1.5zm-9.55 2.512v-1.005c-0.92-1.668-2.45 1.509 0 1.005zm-2.01 5.528c0.418-0.947 1.854-2.611 0-3.015-0.39 0.349-1.12 2.803 0 3.015zm18.6 2.513c-4.227 10.421-7.739 21.138-11.56 31.658-3.881 10.688-8.371 21.112-11.557 32.162 2.413-1.396 3.09-4.583 4.02-7.036 7.169-18.923 14.035-38.192 20.604-57.287-0.106-0.563-0.559-0.782-1.004-1.005-0.03 0.65-0.64 0.703-0.5 1.515zm-31.66 44.727c1.973-0.826 1.57-3.471 2.01-5.025 3.659-12.917 6.961-26.385 10.553-38.694-0.642-0.027-0.695-0.645-1.507-0.503-2.93 15.497-8.39 28.467-11.05 44.227zm-129.15-38.697c0.748 0.792 2.246 0.559 2.011-1.005-1.14-0.141-1.89 0.121-2.01 1.005zm-6.03 20.607c-0.145-4.757-2.415-11.623-3.015-17.588-0.11-0.392-0.421-0.585-1.005-0.503 0.86 6.511 1.45 13.291 4.02 18.091zm-23.62 20.1c0.3-2.429-2.345-3.625-3.518-5.528-3.964-6.432-5.807-14.551-7.538-22.613-0.11-0.392-0.42-0.584-1.005-0.502 1.13 10.44 5.22 22.23 12.06 28.64zm-11.05 11.56c-0.561-2.991-3.232-2.966-5.024-4.523-5.282-4.59-9.017-11.983-11.559-18.593-0.854-2.225-1.159-5.558-3.516-7.035 3.28 13.46 8.9 24.58 20.1 30.14zm36.18-27.64v-1.005c-0.93-1.68-2.45 1.5 0 1zm1.51 5.52c0.716-1.208-0.177-4.281-2.01-4.523 0.45 1.73 0.78 3.58 2.01 4.52zm119.6 0c0.679 0.158 0.96 0.715 2.011 0.503v-1.508c-1.15-0.13-1.89 0.13-2.01 1.01zm4.52 3.52c0.792-0.747 0.561-2.245-1.006-2.01-0.14 1.15 0.13 1.89 1.01 2.01zm-116.59 5.53h1.005c-0.001-0.504 0.406-0.598 0.503-1.005-0.644-0.027-0.697-0.644-1.508-0.502v1.51zm-4.52 0.5h1.508c-0.048-0.79 0.067-1.742-1.005-1.508 0.02 0.7-0.24 1.11-0.51 1.51zm6.03 2.51c-4.024 0.332-9.376-0.665-12.564 0.503 0.547 0.121 1.208 0.827 0.503 1.004-4.19-0.881-5.461 2.835-9.045 1.006-0.466 1.618-1.838 1.658-5.024 1.508 0.475 3.099-5.077 1.185-7.037 4.02 6.553 1.488 16.569-0.488 23.115 1.004h-8.542c0.489 1.891 3.155 0.968 4.021 1.006 28.596 1.226 50.871-0.097 80.904 0.501-2.337-3.219-7.418 0.245-10.049-1.004-0.456-0.217 0.327-1.386-0.503-1.507 0.349 0.051-0.375 1.461-0.504 1.507-2.717 0.958-2.013-2.302-4.02-2.01-4.728 0.774-10.12-0.002-16.08 0.503-0.801-0.372 0.114-2.46-1.507-2.01 0.915 1.864-3.505 2.397-5.026 1.507-0.763-0.446-0.141-1.986-1.507-1.507-5.922 0.398-10.515-0.131-18.092 0 0.039-0.875-0.11-1.563-0.502-2.01-3.095 0.938-7.103 0.039-10.553 0-3.831-0.044-7.952 1.584-9.548-1.005 2.137-1.306 4.626 0.023 6.533-0.502 1.887-0.522 1.169-1.929 3.015-1.507 0.334 0.075-0.31 1.614 0.503 1.507-0.03 0.003 0.164-1.393 0.503-1.507 2.225-0.757 4.64 0.316 7.538 0.501 1.398-0.746-1.062-2.245 1.004-2.009 1.824-0.484 0.423 2.258 2.01 2.009 1.133-1.086-0.416-1.714 0-3.518h-10.05c-1.31 1.33 0.81 0.4 0.5 2.01zm12.56-0.5h1.507v-1.508h-1.004c-0.03 0.65-0.65 0.7-0.51 1.51zm-45.22 2.52c0.653-0.669 0.663-1.87-0.502-2.011-0.66 0.66-0.67 1.86 0.5 2.01zm149.75 7.03c0.58-0.755 1.762-2.116 0-2.513-0.58 0.75-1.77 2.11 0 2.51zm-2.01 0.5c-0.41 3.05 2.3 0.34 0 0zm-153.27 1.51c-0.642-0.028-0.695-0.644-1.507-0.503-0.78 1.23 1.71 1.48 1.51 0.5zm85.43 3.52c-0.434-0.197 0.364-1.532-0.503-1.508 0.309-0.008-0.438 1.472-0.501 1.508-1.35 0.744-3.793-0.759-4.021 0-0.048-0.791 0.068-1.743-1.005-1.508-5.188-0.895-10.119 1.092-15.076-2.01-16.742 0.414-33.716-0.319-48.744 0-1.522 0.033-4.41-0.915-5.527 1.005 4.217 0.472 10.633-1.253 12.563 1.508 8.311-0.461 17.393 0.968 23.116-1.006 1.905 2.619 9.332-0.286 12.06 1.508-0.004 0.665-0.88 0.459-1.004 1.005 1.857-0.321 5.005 0.65 6.03-0.502-1.879-0.752-2.877 0.53-3.517-1.005 1.939-0.099 3.703-0.019 5.023 0.502-0.004 0.665-0.879 0.459-1.005 1.005 5.176 0.286 9.564-0.163 14.574 1.005h-7.54c1.243 1.907 4.212 0.968 6.033 1.005 7.928 0.164 17.85-0.216 23.616 0 3.075 0.115 7.517 1.933 9.549-1.005-3.046-0.621-6.18 0.846-8.04 0-0.452-0.205 0.34-1.419-0.503-1.507 0.653 0.068-0.728 1.423-1.006 1.507-1.481 0.452-2.979 0.065-2.513-2.01-3.75 0.16-9.87 1.51-12.07 0.51zm59.3 13.57c-3.123 1.376-6.927 1.245-9.046 3.517 14.595-1.82 22.078-10.752 28.643-20.603-0.11-0.392-0.419-0.584-1.004-0.503-4.6 7.27-10.77 14.12-18.59 17.58zm7.03-16.59c-0.53 2.92 2.18 0.21 0 0zm-158.29 3.52c0.752 0.086 1.854-0.18 2.01 0.503-4.725-0.37-6.637 2.073-9.045 4.02 2.592 1.092 7.145 0.226 10.553 0.502-0.301-1.306 0.201-1.808 1.508-1.507 1.343-0.149-1.336 1.949 1.004 1.507 1.78-0.055-1.068-1.661 0.502-1.507 5.081 0.009 7.359-0.291 12.062 0 0.479-0.937-1.506-1.68 0-2.01 2.068 0.905 8.708 0.343 13.064 0.502-0.402-1.87-3.157-0.956-4.523-1.005-7.086-0.252-18.518 0.844-21.104-1.005 1.771-0.548 3.871 0.503 5.527 0.503 1.986-0.001 6.269-0.236 7.037-1.508-3.851 0.279-5.647-0.063-10.052 0 0.121-0.717 0.828-0.847 1.005-1.508-2.855 0.328-7.026-0.66-9.045 0.503 1.84 0.8-1.17 0.76-0.5 2.02zm54.77-1c-3.814-0.042-8.01-0.414-10.552 1.005 5.09-0.304 13.002 0.842 18.09-0.502-2.59-0.1-4.75-0.48-7.54-0.5zm101.51 0c-2.767 3.595-6.513 6.186-10.554 8.04-2.118 0.972-4.932 1.001-6.532 3.015 8.712-0.835 13.693-5.4 18.09-10.552-0.11-0.4-0.43-0.6-1.01-0.51zm-99 2.51c3.033-0.003 5.297 1.411 7.537-0.502-2.24-0.01-5.23-0.84-7.54 0.5zm68.35 0h1.507c0.066-0.902-0.499-1.177-1.507-1.004v1zm-92.47 0.5c0.892-0.114 2.516 0.507 2.011-1.005h-2.011v1.01zm36.18-1.01c-1.202 0.305-3.646-0.631-4.021 0.502 2.09-0.08 2.77 0.88 4.02-0.5zm1.51 0.51c1.448 0.059 3.29-0.274 4.021 0.502 0.77-1.93-5.62-0.96-4.02-0.5zm46.23 0.5h1.006v-1.005h-1.006v1.01zm-74.87 0.5c-1.855 0.321-5.005-0.651-6.03 0.502 1.64 0.12 5.33 1.55 6.03-0.5zm1.51 1.01c2.098 0.114 2.372-0.817 4.02 0 0.55-1.6-4.58-1.6-4.02 0zm13.56-1.01c-1.788 0.042-4.672-0.886-5.528 1.005h14.072c4.595 0 9.677 1.234 11.053-1.005-6.28 0.1-13.74-0.15-19.59-0.01zm-32.16 2.01c-5.64-2.07-4.83 2.1 0 0zm9.55-0.5c-2.854 0.328-7.025-0.661-9.045 0.502 1.93 0.58 7.92 1.34 9.05-0.5zm0.51 1c1.14-0.366 3.918 0.906 3.516-1.004h-3.516v1zm7.03 0h8.041v-1.004c-2.44 0.58-7.24-1.21-8.04 1zm6.53 17.09c0.864 0.028 1.288-0.387 1.508-1.004-0.79 0.04-1.74-0.07-1.51 1zm52.77 4.02h1.005v-1.006h-1.005c-0.01 0.34-0.01 0.68-0.01 1.01z" fill="#FFE09B"/>
	<path d="m206.42 131.27h10.05c-0.416 1.803 1.133 2.431 0 3.518-1.587 0.249-0.186-2.493-2.01-2.009-2.066-0.235 0.395 1.264-1.004 2.009-2.898-0.185-5.313-1.258-7.538-0.501-0.339 0.114-0.533 1.51-0.503 1.507-0.812 0.107-0.169-1.432-0.503-1.507-1.846-0.422-1.128 0.985-3.015 1.507-1.907 0.526-4.396-0.804-6.533 0.502 1.596 2.589 5.717 0.961 9.548 1.005 3.45 0.039 7.458 0.938 10.553 0 0.392 0.446 0.541 1.134 0.502 2.01 7.577-0.131 12.17 0.398 18.092 0 1.366-0.479 0.744 1.061 1.507 1.507 1.521 0.891 5.941 0.357 5.026-1.507 1.621-0.45 0.706 1.639 1.507 2.01 5.96-0.505 11.353 0.271 16.08-0.503 2.007-0.292 1.303 2.968 4.02 2.01 0.129-0.045 0.853-1.456 0.504-1.507 0.83 0.121 0.047 1.29 0.503 1.507 2.631 1.249 7.712-2.215 10.049 1.004-30.033-0.598-52.309 0.725-80.904-0.501-0.866-0.038-3.532 0.885-4.021-1.006h8.542c-6.546-1.492-16.562 0.484-23.115-1.004 1.96-2.835 7.511-0.921 7.037-4.02 3.186 0.15 4.559 0.11 5.024-1.508 3.583 1.83 4.854-1.887 9.045-1.006 0.705-0.178 0.044-0.884-0.503-1.004 3.188-1.167 8.54-0.171 12.564-0.503 0.31-1.61-1.81-0.68-0.5-2.01zm-14.57 6.03c1.036-0.305 3.491 0.811 3.015-1.005-0.129-1.043-2.208-0.138-2.512-1.005-0.88 1.02 0.37 0.98-0.5 2zm23.11 1.51h-7.036c-2.188 0.324-5.681-0.656-7.035 0.503 4.54-0.33 10.39 0.67 14.08-0.5zm-12.56 1.51c-3.22-0.58-1.1 1.53 0 0zm7.54 0c-1.858 0.32-5.007-0.651-6.029 0.501 1.85-0.32 5 0.65 6.03-0.5zm-3.52 1.51c-2.188 0.324-5.681-0.656-7.035 0.502 2.19-0.32 5.68 0.65 7.04-0.5zm4.52 0c-1.04 0.299-3.301-0.621-3.518 0.502 0.8 0.8 2.7 0.14 3.52-0.5z"/>
	<path d="m266.22 147.36c-0.466 2.076 1.031 2.462 2.513 2.01 0.278-0.084 1.659-1.439 1.006-1.507 0.843 0.088 0.051 1.302 0.503 1.507 1.86 0.846 4.994-0.621 8.04 0-2.032 2.938-6.474 1.12-9.549 1.005-5.767-0.216-15.688 0.164-23.616 0-1.821-0.037-4.79 0.902-6.033-1.005h7.54c-5.01-1.168-9.398-0.719-14.574-1.005 0.126-0.546 1.001-0.34 1.005-1.005-1.32-0.521-3.084-0.601-5.023-0.502 0.64 1.535 1.638 0.253 3.517 1.005-1.025 1.152-4.173 0.181-6.03 0.502 0.124-0.546 1-0.34 1.004-1.005-2.728-1.794-10.154 1.11-12.06-1.508-5.723 1.974-14.805 0.545-23.116 1.006-1.93-2.762-8.346-1.036-12.563-1.508 1.117-1.92 4.005-0.972 5.527-1.005 15.028-0.319 32.002 0.414 48.744 0 4.957 3.103 9.889 1.115 15.076 2.01 1.073-0.235 0.957 0.717 1.005 1.508 0.228-0.759 2.671 0.744 4.021 0 0.063-0.036 0.81-1.516 0.501-1.508 0.867-0.024 0.069 1.311 0.503 1.508 2.2 0.98 8.32-0.37 12.06-0.52zm-62.82-1.51c1.7 1.52 1.53-1.86 0 0zm22.12-0.51c-5.77-0.56-3.6 1.51 0 0zm14.57 2.02c-1.69 0.318-4.669-0.647-5.527 0.503 1.69-0.32 4.67 0.64 5.53-0.5zm11.05 2c0.79-0.048 1.742 0.067 1.507-1.005h-1.007c0.01 0.5-0.4 0.6-0.5 1z"/>
	<path d="m162.7 146.35c2.019-1.164 6.19-0.175 9.045-0.503-0.178 0.661-0.885 0.792-1.005 1.508 4.405-0.063 6.201 0.279 10.052 0-0.768 1.272-5.05 1.507-7.037 1.508-1.657 0-3.756-1.051-5.527-0.503 2.587 1.85 14.019 0.753 21.104 1.005 1.366 0.049 4.121-0.865 4.523 1.005-4.355-0.16-10.996 0.403-13.064-0.502-1.506 0.33 0.479 1.074 0 2.01-4.702-0.291-6.981 0.009-12.062 0-1.57-0.154 1.277 1.452-0.502 1.507-2.341 0.442 0.339-1.656-1.004-1.507-1.307-0.301-1.809 0.201-1.508 1.507-3.409-0.276-7.961 0.59-10.553-0.502 2.408-1.947 4.32-4.39 9.045-4.02-0.156-0.683-1.258-0.417-2.01-0.503-0.66-1.28 2.35-1.24 0.51-2.03z"/>
	<path d="m167.22 174.49c6.947-1.144 12.989-0.086 20.602-0.503 0.235 1.071-0.717 0.957-1.508 1.004 1.086 0.89 5.766 1.096 5.528-1.004 1.78 0.056-1.067 1.661 0.503 1.507 30.976-0.071 47.036 0.783 81.408 0.503-19.485 5.355-47.095 5.813-69.349 4.021 5.568-0.906 11.27-0.712 15.579-0.504-1.083-1.823-5.093-1.003-8.041-1.003-8.291 0-18.103 0.092-25.125-0.504-1.786 0.782-0.305-1.707-1.508-1.507-5.5 0.43-13.15-0.32-18.09-2.02zm19.6 3.02h1.507c0.065-0.902-0.499-1.177-1.507-1.005v1.01zm6.53-0.51c-0.711-0.922-2.441 0.787-3.518-0.501-0.61 1.67 3.4 1.23 3.52 0.5zm8.55 0c-1.418-0.793-2.134 0.579-3.518-0.501-0.62 1.67 3.4 1.23 3.52 0.5zm31.65 0c-8.643-0.83-16.018-0.432-23.617-0.501-2.612-0.024-5.661-0.251-7.538 1.005 14.025-0.065 25.308 0.408 34.673 0.502-0.16-1.87-2.5-0.9-3.51-1zm-12.56 2.52c1.142-0.365 3.92 0.906 3.518-1.003h-3.518v1z" fill="#FFE09B"/>
	<path d="m14.946 155.91c0.062-1.11 2.132-0.213 3.015-0.502-2.511 7.037-4.181 14.914-3.516 25.127-0.003 1.84-2.353 1.333-1.508 4.02 1.072 0.234 0.957-0.718 1.005-1.51 2.551 7.566 3.586 15.146 6.03 22.112 3.7 10.547 10.344 18.95 16.081 27.136 0.889 0.943 1.467-0.6 2.513 0.504 0.579 0.593 0.569 1.774 0.502 3.014 2.79-1.092 1.935 3.063 5.025 3.016v2.01c0.668 0.134 2.245 0.237 3.518 1.005 0.475 1.535 2.446 1.576 2.513 3.519 24.611 19.274 54.699 33.073 89.95 41.708-1.062 1.207-3.045 0.998-4.523 1.004-5.079 0.027-10.968 0.101-16.583 0-11.845-0.21-22.926-8.581-33.166-12.06 0.068-1.439 3.449 0.435 3.517-1.005-8.707-0.24-13.953-3.997-22.111-9.044-10.966-6.789-18.223-11.902-27.136-21.106-10.468-10.811-18.042-21.137-24.12-36.685-1.17-2.992-2.821-6.688-3.015-9.045-0.177-2.152 0.382-3.354-0.502-5.025 0.405-0.935 0.649-2.03 1.507-2.513-0.094-1.413-0.874-2.142-2.512-2.011-0.366-1.369 0.998-1.01 1.005-2.01-0.43-0.658-1.741-2.24-1.508-3.014 0.409-1.364 0.832 0.204 0-2.011-1.555-4.148 0.046-10.693 1.005-15.579-0.235-1.071 0.718-0.957 1.508-1.004-1.559-2.139 0.45-2.13-0.503-4.522h2.01c-2.078-1.633-0.97-3.671 1.508-4.523-0.371-0.48-0.917-0.78-1.511-1.02zm77.388 119.6h1.005v-1.004h-1.005v1z" fill="#FFE09B"/>
	<path d="m277.78 186.05c-3.168 2.283-7.048 0.567-10.049 0.502-24.647-0.533-66.9 0.222-93.469 0 1.139 3.516 5.827 0.471 8.041 3.015-6.166 0.578-16.756-2.058-24.121-3.517 11.273-0.906 24.29-1.033 37.689-1.005 30.35 0.07 58.23 1.04 81.91 1.01z" fill="#FFE09B"/>
	<path d="m21.995 226.25c0.408 0.096 0.501 0.503 1.006 0.503 17.967 29.47 50.387 49.067 87.939 61.809 36.096 12.248 79.375 21.521 123.12 19.6 31.233-1.375 61.85-6.112 88.444-14.573 1.737-0.398 2.119 0.559 3.014 1.004 0.838-0.503 0.355-2.325 1.507-2.514 17.668-4.61 32.447-12.107 47.237-19.597 1.966 5.404 3.168 11.571 4.523 17.588-15.428 8.36-31.824 15.748-50.756 20.603-0.376-4.983-1.012-9.707-2.01-14.07-1.406 4.763 1.407 9.646 1.005 15.076-26.582 7.603-53.486 12.545-85.428 14.069-0.837-0.67-0.167-2.846-1.004-3.517-2.196 0.434 0.269 2.615-1.007 3.517-63.278 1.516-116.15-10.103-160.3-31.155-2.549-1.215-5.479-2.179-8.041-3.518-2.031-1.062-5.267-2.506-6.03-5.025-3.34 0.691-5.894-2.454-8.542-4.02-7.79-4.606-16.182-10.212-22.613-16.583 1.57-4.127 4.588-6.803 5.529-11.557-3.073 2.287-4.255 6.465-6.031 10.05-7.797-5.771-13.328-13.81-18.593-22.112 2.208-5.34 4.547-10.54 7.036-15.59zm18.09 25.13v1.004c1.237 0.78 1.478-1.705 0.503-1.507-0.028 0.31-0.075 0.6-0.503 0.51zm26.634 30.15c0.79-0.047 1.742 0.067 1.507-1.004h-1.005c0.002 0.5-0.407 0.59-0.502 1z" fill="#FFD07B"/>
</g>
<metadata><rdf:RDF><cc:Work><dc:format>image/svg+xml</dc:format><dc:type rdf:resource="http://purl.org/dc/dcmitype/StillImage"/><cc:license rdf:resource="http://creativecommons.org/licenses/publicdomain/"/><dc:publisher><cc:Agent rdf:about="http://openclipart.org/"><dc:title>Openclipart</dc:title></cc:Agent></dc:publisher><dc:title>pet dish</dc:title><dc:date>2006-12-05T08:41:44</dc:date><dc:description>a pet food dish from a U.S. patent drawing</dc:description><dc:source>http://openclipart.org/detail/1885/pet-dish-by-johnny_automatic</dc:source><dc:creator><cc:Agent><dc:title>johnny_automatic</dc:title></cc:Agent></dc:creator><dc:subject><rdf:Bag><rdf:li>bowl</rdf:li><rdf:li>cat</rdf:li><rdf:li>clip art</rdf:li><rdf:li>clipart</rdf:li><rdf:li>dish</rdf:li><rdf:li>dog</rdf:li><rdf:li>externalsource</rdf:li><rdf:li>image</rdf:li><rdf:li>media</rdf:li><rdf:li>pet</rdf:li><rdf:li>png</rdf:li><rdf:li>public domain</rdf:li><rdf:li>svg</rdf:li><rdf:li>uspto</rdf:li></rdf:Bag></dc:subject></cc:Work><cc:License rdf:about="http://creativecommons.org/licenses/publicdomain/"><cc:permits rdf:resource="http://creativecommons.org/ns#Reproduction"/><cc:permits rdf:resource="http://creativecommons.org/ns#Distribution"/><cc:permits rdf:resource="http://creativecommons.org/ns#DerivativeWorks"/></cc:License></rdf:RDF></metadata></svg>
