<?xml version="1.0" encoding="UTF-8" standalone="no"?>
<!-- Created with Inkscape (http://www.inkscape.org/) -->
<svg xmlns:dc="http://purl.org/dc/elements/1.1/" xmlns:cc="http://creativecommons.org/ns#" xmlns:rdf="http://www.w3.org/1999/02/22-rdf-syntax-ns#" xmlns:svg="http://www.w3.org/2000/svg" xmlns="http://www.w3.org/2000/svg" xmlns:xlink="http://www.w3.org/1999/xlink" xmlns:sodipodi="http://sodipodi.sourceforge.net/DTD/sodipodi-0.dtd" xmlns:inkscape="http://www.inkscape.org/namespaces/inkscape" width="369.01532mm" height="393.36118mm" viewBox="0 0 1307.5346 1393.7995" id="svg2" version="1.1" inkscape:version="0.91 r13725" sodipodi:docname="puppy present under cover.svg">
  <defs id="defs4">
    <clipPath id="clipEmfPath1" clipPathUnits="userSpaceOnUse">
      <path inkscape:connector-curvature="0" id="path3341" d="m 0,28.7566 362.583,0 0,305.0694 -362.583,0 z"/>
    </clipPath>
    <pattern y="0" x="0" height="6" width="6" patternUnits="userSpaceOnUse" id="EMFhbasepattern"/>
    <clipPath id="clipEmfPath1-5" clipPathUnits="userSpaceOnUse">
      <path inkscape:connector-curvature="0" id="path3467" d="m 8.752,-2.50057 333.826,0 0,677.65457 -333.826,0 z"/>
    </clipPath>
    <pattern y="0" x="0" height="6" width="6" patternUnits="userSpaceOnUse" id="EMFhbasepattern-8"/>
    <clipPath id="clipEmfPath1-53" clipPathUnits="userSpaceOnUse">
      <path inkscape:connector-curvature="0" id="path3611" d="m 31.2571,48.7612 495.1129,0 0,822.6878 -495.1129,0 z"/>
    </clipPath>
    <pattern y="0" x="0" height="6" width="6" patternUnits="userSpaceOnUse" id="EMFhbasepattern-9"/>
    <pattern patternUnits="userSpaceOnUse" height="8" width="8" y="0" x="0" id="EMFimage0_ref">
      <use xlink:href="#EMFimage0" id="EMFimage0_ign"/>
    </pattern>
    <clipPath id="clipEmfPath1-53-8" clipPathUnits="userSpaceOnUse">
      <path inkscape:connector-curvature="0" id="path3611-1" d="m 31.2571,48.7612 495.1129,0 0,822.6878 -495.1129,0 z"/>
    </clipPath>
    <pattern patternUnits="userSpaceOnUse" height="8" width="8" y="0" x="0" id="EMFimage0_ref-3">
      <use xlink:href="#EMFimage0" id="EMFimage0_ign-9"/>
    </pattern>
    <clipPath id="clipEmfPath1-4" clipPathUnits="userSpaceOnUse">
      <path inkscape:connector-curvature="0" id="path3834" d="m 5.00114,5.00114 607.63886,0 0,713.91286 -607.63886,0 z"/>
    </clipPath>
    <pattern y="0" x="0" height="6" width="6" patternUnits="userSpaceOnUse" id="EMFhbasepattern-0"/>
  </defs>
  <sodipodi:namedview id="base" pagecolor="#ffffff" bordercolor="#666666" borderopacity="1.0" inkscape:pageopacity="0.0" inkscape:pageshadow="2" inkscape:zoom="0.35" inkscape:cx="-71.211166" inkscape:cy="734.61466" inkscape:document-units="px" inkscape:current-layer="layer1" showgrid="false" fit-margin-top="0" fit-margin-left="0" fit-margin-right="0" fit-margin-bottom="0" inkscape:window-width="1366" inkscape:window-height="706" inkscape:window-x="-8" inkscape:window-y="-8" inkscape:window-maximized="1"/>
  <metadata id="metadata7">
    <rdf:RDF>
      <cc:Work rdf:about="">
        <dc:format>image/svg+xml</dc:format>
        <dc:type rdf:resource="http://purl.org/dc/dcmitype/StillImage"/>
        <dc:title/>
      </cc:Work>
    </rdf:RDF>
  </metadata>
  <g inkscape:label="Layer 1" inkscape:groupmode="layer" id="layer1" transform="translate(-446.21117,398.4747)">
    <g transform="matrix(3.7505547,0,0,3.6861578,840.8075,-3483.3469)" inkscape:label="Layer 1" id="layer1-5">
      <path sodipodi:nodetypes="cacaaaaaaacaaaccaaaaaaac" transform="translate(0,852.36)" inkscape:connector-curvature="0" id="path3064" d="m 68.690373,57.568491 c 0,0 16.7101,-8.397862 25.75889,-8.586297 12.785847,-0.266256 36.870567,10.606602 36.870567,10.606602 0,0 4.28387,-2.209179 6.56599,-2.020305 5.25251,0.43471 10.12777,3.656013 14.14214,7.071068 6.79763,5.782793 11.32415,13.916244 15.65736,21.71828 3.44588,6.204381 6.07343,12.890825 8.08122,19.697971 2.85856,9.69155 7.28398,19.84405 5.55584,29.7995 -0.80005,4.60891 -3.56602,9.02398 -7.07107,12.12183 -4.80363,4.24557 -11.2681,7.44501 -17.67767,7.57615 -3.7826,0.0774 -10.6066,-4.04061 -10.6066,-4.04061 0,0 -12.19277,1.91242 -17.67767,4.54568 -3.79434,1.82164 -6.17057,6.0718 -10.10152,7.57615 -8.99698,3.44309 -19.335746,4.37736 -28.78935,2.52538 -6.871967,-1.34623 -18.687822,-9.59645 -18.687822,-9.59645 l -17.677669,-6.06091 c 0,0 -6.125648,4.04531 -9.59645,4.04061 -6.035134,-0.008 -12.113603,-3.11067 -16.667517,-7.07107 -3.70376,-3.22105 -6.443845,-7.85084 -7.576144,-12.62691 -1.557865,-6.57112 -0.08922,-13.64315 1.515229,-20.20305 2.436987,-9.96376 7.040323,-19.373957 12.121831,-28.284271 4.237236,-7.429901 8.696374,-15.097533 15.152288,-20.708128 4.036541,-3.508007 9.008919,-6.076191 14.142136,-7.576144 2.107019,-0.615682 6.565991,-0.505076 6.565991,-0.505076 z" style="fill:#260d00;fill-opacity:1;stroke:#000000;stroke-width:1px;stroke-linecap:butt;stroke-linejoin:miter;stroke-opacity:1"/>
      <path sodipodi:nodetypes="caccaacaccc" transform="translate(0,852.36)" inkscape:connector-curvature="0" id="path3066" d="m 63.63961,64.639559 c 0,0 -8.528408,5.179619 -12.12183,8.586297 -3.739986,3.545625 -9.596449,12.12183 -9.596449,12.12183 l -8.586297,15.657364 c 0,0 -6.51393,16.89819 -6.565992,25.75889 -0.03359,5.71667 0.08085,12.5442 4.040611,16.66752 3.395876,3.53614 14.142135,4.04061 14.142135,4.04061 0,0 6.331728,-2.39936 8.081221,-5.05077 4.22271,-6.39965 3.535534,-22.72843 3.535534,-22.72843 l 2.525381,-29.799497 z" style="fill:#814515;fill-opacity:1;stroke:#000000;stroke-width:1px;stroke-linecap:butt;stroke-linejoin:miter;stroke-opacity:1"/>
      <path sodipodi:nodetypes="cccaaaaaaac" transform="translate(0,852.36)" inkscape:connector-curvature="0" id="path3068" d="m 136.87567,65.144635 5.55584,27.274119 2.0203,43.941636 c 0,0 2.65597,6.79408 5.55584,8.5863 3.89059,2.40452 9.3825,3.19365 13.63706,1.51523 4.33169,-1.70885 7.4758,-6.23928 9.09138,-10.60661 1.63552,-4.42123 0.77498,-9.49223 0,-14.14213 -1.02409,-6.14452 -3.74749,-11.89391 -6.06092,-17.67767 -2.54593,-6.365038 -5.06265,-12.807402 -8.5863,-18.687824 -3.14998,-5.25683 -6.47345,-10.641766 -11.11167,-14.647212 -2.90846,-2.511667 -10.10153,-5.555839 -10.10153,-5.555839 z" style="fill:#814515;fill-opacity:1;stroke:#000000;stroke-width:1px;stroke-linecap:butt;stroke-linejoin:miter;stroke-opacity:1"/>
      <path sodipodi:nodetypes="ccaaacaaaaccaaccccc" transform="translate(0,852.36)" inkscape:connector-curvature="0" id="path3070" d="m 59.093924,146.46192 14.647212,3.03045 c 0,0 7.457975,6.92299 12.12183,8.5863 4.609622,1.64397 9.753929,1.0939 14.647214,1.01015 4.90774,-0.084 10.18174,0.52256 14.64721,-1.51523 3.35915,-1.53293 8.08122,-7.57614 8.08122,-7.57614 0,0 15.57327,1.51974 18.68782,-4.04061 1.74339,-3.11245 -2.82486,-6.60557 -3.53553,-10.10153 -1.04186,-5.12515 -0.70786,-10.43613 -1.01015,-15.65736 -0.38001,-6.56363 -0.24739,-13.16776 -1.01016,-19.69798 -1.19148,-10.200533 -5.55584,-30.304572 -5.55584,-30.304572 l -3.03045,-6.060915 c 0,0 -13.16899,-5.875659 -20.20305,-7.071068 -4.31545,-0.733393 -8.782258,-0.490783 -13.131987,0 -6.006413,0.677708 -17.67767,4.04061 -17.67767,4.04061 l -5.050762,3.030458 -6.565992,29.294423 -3.030457,35.355344 z" style="fill:#814515;fill-opacity:1;stroke:#000000;stroke-width:1px;stroke-linecap:butt;stroke-linejoin:miter;stroke-opacity:1"/>
      <ellipse transform="translate(162.63456,896.30164)" id="path3840" style="fill:#000000;fill-opacity:1" cx="-86.115501" cy="72.720779" rx="8.3337584" ry="9.0913725"/>
      <ellipse transform="translate(209.85919,895.79656)" id="path3840-7" style="fill:#000000;fill-opacity:1" cx="-86.115501" cy="72.720779" rx="8.3337584" ry="9.0913725"/>
      <path sodipodi:nodetypes="cccccccccaaccc" inkscape:connector-curvature="0" id="path3873" d="m 62.124382,985.18486 22.728432,-8.08122 9.091373,-66.165 11.616753,0 9.59645,65.65992 22.72843,7.57614 5.05077,15.15229 -17.1726,3.53551 -11.11168,9.5965 c 0,0 -10.12377,1.0076 -15.152284,0.505 -6.542024,-0.6538 -13.377068,-1.4794 -19.192898,-4.5456 -2.213978,-1.1673 -5.555839,-5.0508 -5.555839,-5.0508 l -16.162441,-2.0203 z" style="fill:#ffffff;fill-opacity:1;stroke:#000000;stroke-width:1px;stroke-linecap:butt;stroke-linejoin:miter;stroke-opacity:1"/>
      <path inkscape:transform-center-y="7.1792081" sodipodi:nodetypes="aaaaaaa" inkscape:connector-curvature="0" id="path3877" d="m 100.0051,995.79141 c 3.49136,-0.651 7.91791,-2.2037 9.09137,-5.55579 0.65111,-1.85992 -0.48291,-4.32309 -2.0203,-5.55584 -3.04659,-2.44289 -7.845979,-2.53044 -11.616755,-1.51523 -2.666343,0.71787 -6.272685,2.3051 -6.565992,5.05077 -0.304541,2.85082 3.073761,5.13098 5.555839,6.56599 1.629564,0.9421 3.705425,1.3552 5.555838,1.0101 z" style="fill:#000000;fill-opacity:1;stroke:#000000;stroke-width:1px;stroke-linecap:butt;stroke-linejoin:miter;stroke-opacity:1"/>
    </g>
    <path inkscape:connector-curvature="0" id="path3841" d="m 1748.3141,268.19824 c 0,-29.05071 -25.9672,-52.72165 -58.2142,-52.72165 l -987.09541,0 c -32.07768,0 -58.04488,23.67094 -58.04488,52.72165 l 0,597.30695 c 0,29.20412 25.9672,52.72165 58.04488,52.72165 l 987.09541,0 c 32.247,0 58.2142,-23.51753 58.2142,-52.72165 z" style="fill:#66c4e9;fill-opacity:1;fill-rule:evenodd;stroke:none"/>
    <path transform="matrix(2.1719286,0,0,1.9670059,427.7169,-414.87799)" inkscape:connector-curvature="0" id="path3843" d="m 608.03,347.267 c 0,-14.769 -11.956,-26.803 -26.803,-26.803 l -454.479,0 c -14.769,0 -26.725,12.034 -26.725,26.803 l 0,303.663 c 0,14.847 11.956,26.803 26.725,26.803 l 454.479,0 c 14.847,0 26.803,-11.956 26.803,-26.803 z" clip-path="url(#clipEmfPath1-4)" style="fill:none;stroke:#0c0c0c;stroke-width:5.00114393px;stroke-linecap:butt;stroke-linejoin:round;stroke-miterlimit:10;stroke-dasharray:none;stroke-opacity:1"/>
    <path inkscape:connector-curvature="0" id="path3845" d="m 974.72584,927.6036 c 11.2028,9.37669 82.99316,46.26596 124.57516,56.40981 41.4119,10.1458 82.1443,8.60758 124.4059,4.30379 42.2615,-4.30379 104.5475,-20.28965 129.3273,-30.4335 24.7797,-9.99045 42.2615,-24.28664 19.1779,-30.2801 -23.2506,-5.99548 -112.525,-8.60766 -158.0096,-5.68665 -45.4845,2.76565 -84.6901,22.13279 -114.9015,23.0553 -30.3792,0.92251 -47.1807,-15.21675 -67.039,-17.36865 -20.0275,-2.1519 -68.73741,-9.37676 -57.53616,0 z" style="fill:#04617b;fill-opacity:1;fill-rule:evenodd;stroke:none"/>
    <path transform="matrix(2.1719286,0,0,1.9670059,427.7169,-414.87799)" inkscape:connector-curvature="0" id="path3847" d="m 251.854,682.5 c 5.158,4.767 38.212,23.521 57.357,28.678 19.067,5.158 37.821,4.376 57.279,2.188 19.458,-2.188 48.136,-10.315 59.545,-15.472 11.409,-5.079 19.458,-12.347 8.83,-15.394 -10.705,-3.048 -51.809,-4.376 -72.751,-2.891 -20.942,1.406 -38.993,11.252 -52.903,11.721 -13.987,0.469 -21.723,-7.736 -30.866,-8.83 -9.221,-1.094 -31.648,-4.767 -26.491,0" clip-path="url(#clipEmfPath1-4)" style="fill:none;stroke:#000000;stroke-width:3.75085783px;stroke-linecap:butt;stroke-linejoin:round;stroke-miterlimit:10;stroke-dasharray:none;stroke-opacity:1"/>
    <path inkscape:connector-curvature="0" id="path3849" d="m 720.99422,949.27604 c 3.90331,-7.99195 91.81871,0 134.07948,-17.36865 42.25923,-17.36864 70.26428,-64.2503 119.65214,-86.69185 49.55876,-22.44155 125.25466,-42.57584 177.18986,-47.64874 51.9329,-5.0729 88.5934,0.61542 134.0795,17.21524 45.4845,16.75496 89.2729,64.55711 138.8301,82.38799 49.5587,17.9824 109.8108,15.98391 158.3505,24.74692 48.7099,8.60765 143.413,20.59652 133.7394,27.35909 -9.6744,6.76257 -129.3281,14.44764 -191.4449,13.06485 -62.2868,-1.53619 -129.3273,-9.37669 -181.9405,-21.67244 -52.7824,-12.29574 -89.4422,-49.95411 -134.0794,-52.10601 -44.8074,-2.15189 -90.9714,25.97631 -134.0795,39.04116 -43.1089,13.06485 -83.84125,30.2801 -124.57595,39.04109 -40.73238,8.60766 -81.46476,13.06485 -119.65137,13.06485 -38.35823,0 -114.22353,-22.44155 -110.14936,-30.4335 z" style="fill:#04617b;fill-opacity:1;fill-rule:evenodd;stroke:none"/>
    <path inkscape:connector-curvature="0" id="path3851" d="m 720.99422,949.27604 c 3.90331,-7.99195 91.81871,0 134.07948,-17.36865 42.25923,-17.36864 70.26428,-64.2503 119.65214,-86.69185 49.55876,-22.44155 125.25466,-42.57584 177.18986,-47.64874 51.9329,-5.0729 88.5934,0.61542 134.0795,17.21524 45.4845,16.75496 89.2729,64.55711 138.8301,82.38799 49.5587,17.9824 109.8108,15.98391 158.3505,24.74692 48.7099,8.60765 143.413,20.59652 133.7394,27.35909 -9.6744,6.76257 -129.3281,14.44764 -191.4449,13.06485 -62.2868,-1.53619 -129.3273,-9.37669 -181.9405,-21.67244 -52.7824,-12.29574 -89.4422,-49.95411 -134.0794,-52.10601 -44.8074,-2.15189 -90.9714,25.97631 -134.0795,39.04116 -43.1089,13.06485 -83.84125,30.2801 -124.57595,39.04109 -40.73238,8.60766 -81.46476,13.06485 -119.65137,13.06485 -38.35823,0 -114.22353,-22.44155 -110.14936,-30.4335" style="fill:none;stroke:#000000;stroke-width:7.75275755px;stroke-linecap:butt;stroke-linejoin:round;stroke-miterlimit:10;stroke-dasharray:none;stroke-opacity:1"/>
    <path inkscape:connector-curvature="0" id="path3853" d="m 1108.8053,203.48772 c -23.9301,18.75144 -27.8334,62.8655 -33.4344,112.66809 -5.6018,49.80071 0,121.42727 0,186.44661 0,65.01746 0,146.78982 0,203.81526 0,57.17891 0,99.6033 0,138.79786 0,39.19651 -21.5544,79.31358 0,96.6823 21.5536,17.36865 110.1493,24.90032 129.158,7.3782 19.178,-17.52205 -12.7296,-68.7075 -14.2565,-112.66816 -1.6985,-44.11398 -0.8496,-93.29899 4.7522,-151.86264 5.601,-58.56171 26.3058,-135.87687 28.6823,-199.51147 2.3756,-63.4812 -13.577,-135.1097 -14.2565,-182.14477 -0.8497,-46.87963 25.4592,-81.61895 9.5043,-99.60128 -15.9527,-18.13775 -86.2193,-18.90686 -110.1494,0 z" style="fill:#04617b;fill-opacity:1;fill-rule:evenodd;stroke:none"/>
    <path inkscape:connector-curvature="0" id="path3855" d="m 1108.8053,203.48772 c -23.9301,18.75144 -27.8334,62.8655 -33.4344,112.66809 -5.6018,49.80071 0,121.42727 0,186.44661 0,65.01746 0,146.78982 0,203.81526 0,57.17891 0,99.6033 0,138.79786 0,39.19651 -21.5544,79.31358 0,96.6823 21.5536,17.36865 110.1493,24.90032 129.158,7.3782 19.178,-17.52205 -12.7296,-68.7075 -14.2565,-112.66816 -1.6985,-44.11398 -0.8496,-93.29899 4.7522,-151.86264 5.601,-58.56171 26.3058,-135.87687 28.6823,-199.51147 2.3756,-63.4812 -13.577,-135.1097 -14.2565,-182.14477 -0.8497,-46.87963 25.4592,-81.61895 9.5043,-99.60128 -15.9527,-18.13775 -86.2193,-18.90686 -110.1494,0" style="fill:none;stroke:#000000;stroke-width:7.75275755px;stroke-linecap:butt;stroke-linejoin:round;stroke-miterlimit:10;stroke-dasharray:none;stroke-opacity:1"/>
    <path inkscape:connector-curvature="0" id="path3861" d="m 1216.5782,-385.67367 c -13.0682,-11.06684 -33.6037,-10.45198 -45.9948,1.38342 L 460.47257,301.70622 c -12.38948,11.83546 -11.71071,30.58892 1.52762,41.65528 l 81.63562,69.47466 c 13.06825,11.06831 33.7746,10.45268 45.99477,-1.38279 L 1299.7415,-274.5431 c 12.391,-11.83553 11.7114,-30.58774 -1.3576,-41.65472 z" style="fill:#66c4e9;fill-opacity:1;fill-rule:evenodd;stroke:none"/>
    <path transform="matrix(2.1719286,0,0,1.9670059,427.7169,-414.87799)" inkscape:connector-curvature="0" id="path3863" d="M 363.208,14.8471 C 357.191,9.22086 347.736,9.53343 342.031,15.5504 L 15.0816,364.302 c -5.70446,6.017 -5.39188,15.551 0.7033,21.177 l 37.5867,35.32 c 6.017,5.627 15.5504,5.314 21.1767,-0.703 L 401.498,71.3444 c 5.705,-6.017 5.392,-15.5504 -0.625,-21.1767 z" clip-path="url(#clipEmfPath1-4)" style="fill:none;stroke:#0c0c0c;stroke-width:5.00114393px;stroke-linecap:butt;stroke-linejoin:round;stroke-miterlimit:10;stroke-dasharray:none;stroke-opacity:1"/>
  </g>
  <g inkscape:groupmode="layer" id="layer2" inkscape:label="hat" transform="translate(-502.71429,252.55041)"/>
</svg>
