<?xml version="1.0" encoding="iso-8859-1"?>
<!-- Generator: Adobe Illustrator 19.0.0, SVG Export Plug-In . SVG Version: 6.00 Build 0)  -->
<svg version="1.1" id="Layer_1" xmlns="http://www.w3.org/2000/svg" xmlns:xlink="http://www.w3.org/1999/xlink" x="0px" y="0px"
	 viewBox="0 0 512 512" style="enable-background:new 0 0 512 512;" xml:space="preserve">
<path style="fill:#9ED368;" d="M512,256.006C512,397.402,397.394,512.004,256.004,512C114.606,512.004,0,397.402,0,256.006
	C-0.007,114.61,114.606,0,256.004,0C397.394,0,512,114.614,512,256.006z"/>
<path style="fill:#8BC052;" d="M512,256.005c0-9.778-0.601-19.411-1.668-28.903c-0.263-0.278-106.384-106.56-106.977-106.977
	c-1.038-1.264-2.331-2.3-3.927-2.746c-2.078-0.583-4.295-0.302-6.164,0.772l-19.887,11.438c-0.299-0.315-0.676-0.519-1.022-0.783
	c-0.442-0.58-61.598-61.738-62.179-62.179c-1.466-1.929-3.677-3.257-6.286-3.257h-88.288c-4.432,0-8.026,3.594-8.026,8.026v93.854
	l-85.878-47.178c-3.806-2.093-8.571-0.784-10.769,2.943L65.22,198.197c-1.098,1.857-1.407,4.076-0.85,6.157
	c0.433,1.627,1.47,2.95,2.747,4.006c0.414,0.594,59.998,60.08,60.482,60.507L67.305,302.71c-1.897,1.066-3.28,2.853-3.837,4.958
	c-0.553,2.1-0.227,4.338,0.898,6.199l46.75,77.182c0.607,1.002,1.421,1.785,2.331,2.411c0.469,0.56,116.193,116.374,116.777,116.777
	c0.158,0.189,0.35,0.33,0.511,0.511c8.315,0.815,16.741,1.252,25.27,1.252C397.394,512.004,512,397.401,512,256.005z"/>
<path style="fill:#F4F6F9;" d="M448.498,307.543c-0.576-2.053-1.943-3.794-3.806-4.836l-83.452-46.742l82.48-46.691
	c3.825-2.163,5.197-7.004,3.076-10.855l-42.502-77.182c-1.039-1.885-2.795-3.277-4.867-3.856c-2.077-0.583-4.295-0.302-6.164,0.772
	l-81.347,46.789V71.397c0-4.432-3.594-8.027-8.027-8.027h-88.288c-4.432,0-8.027,3.594-8.027,8.027v93.853l-85.878-47.178
	c-3.806-2.093-8.571-0.784-10.769,2.943l-45.708,77.182c-1.098,1.858-1.407,4.076-0.85,6.157c0.557,2.085,1.924,3.856,3.797,4.918
	l82.414,46.695L67.305,302.71c-1.897,1.066-3.28,2.853-3.837,4.958c-0.553,2.1-0.227,4.338,0.897,6.199l46.75,77.182
	c2.23,3.68,6.972,4.949,10.734,2.873l85.725-47.166v93.845c0,4.432,3.594,8.027,8.027,8.027h88.288c4.432,0,8.027-3.594,8.027-8.027
	v-93.543l81.347,46.789c1.854,1.077,4.064,1.344,6.126,0.784c2.065-0.569,3.818-1.932,4.867-3.797l43.505-77.182
	C448.807,311.795,449.074,309.597,448.498,307.543z M394.246,375.899l-86.356-49.674c-2.481-1.426-5.538-1.426-8.018,0.007
	c-2.481,1.435-4.01,4.083-4.01,6.948v99.395h-72.236V333.18c0-2.837-1.498-5.463-3.942-6.909c-2.446-1.442-5.467-1.493-7.952-0.122
	l-90.875,49.999l-38.465-63.5l88.452-49.65c2.528-1.419,4.095-4.087,4.099-6.983s-1.548-5.573-4.068-6.999L83.2,199.339
	l37.58-63.453l90.957,49.968c2.481,1.372,5.514,1.316,7.952-0.126c2.442-1.446,3.938-4.071,3.938-6.909V79.424h72.236v99.395
	c0,2.865,1.529,5.514,4.01,6.948c2.477,1.426,5.534,1.438,8.018,0.007l86.289-49.631l34.731,63.069l-87.983,49.803
	c-2.519,1.426-4.08,4.103-4.071,7.004c0.007,2.896,1.575,5.565,4.103,6.983l88.868,49.776L394.246,375.899z"/>
<g>
</g>
<g>
</g>
<g>
</g>
<g>
</g>
<g>
</g>
<g>
</g>
<g>
</g>
<g>
</g>
<g>
</g>
<g>
</g>
<g>
</g>
<g>
</g>
<g>
</g>
<g>
</g>
<g>
</g>
</svg>
