<?xml version="1.0" encoding="UTF-8"?>
<!DOCTYPE svg PUBLIC "-//W3C//DTD SVG 1.1//EN" "http://www.w3.org/Graphics/SVG/1.1/DTD/svg11.dtd">
<svg version="1.1" xmlns="http://www.w3.org/2000/svg" xmlns:xlink="http://www.w3.org/1999/xlink" x="0" y="0" width="173" height="251" viewBox="0, 0, 173, 251">
  <g id="Layer_1">
    <path d="M125.869,214.623 C129.219,219.796 131.063,222.596 135.783,225.125 C140.483,227.644 150.049,232.89 152.303,224.263 C154.037,217.614 148.535,214.046 144.888,210.095 C141.328,206.236 135.75,201.329 134.448,196.192 C132.465,188.367 134.198,177.877 127.703,171.672 C125.456,169.525 121.748,167.782 118.616,169.43 C111.413,173.213 111.151,185.092 112.737,191.076 C114.046,196.014 122.521,209.448 125.869,214.623" fill="#D7D8D6"/>
    <path d="M125.869,214.623 C129.219,219.796 131.063,222.596 135.783,225.125 C140.483,227.644 150.049,232.89 152.303,224.263 C154.037,217.614 148.535,214.046 144.888,210.095 C141.328,206.236 135.75,201.329 134.448,196.192 C132.465,188.367 134.198,177.877 127.703,171.672 C125.456,169.525 121.748,167.782 118.616,169.43 C111.413,173.213 111.151,185.092 112.737,191.076 C114.046,196.014 122.521,209.448 125.869,214.623 z" fill-opacity="0" stroke="#1A1919" stroke-width="1.417" stroke-linecap="round" stroke-linejoin="round"/>
    <g>
      <path d="M55.079,41.361 C56.051,39.119 57,36.763 57.504,34.34 C58.66,37.502 57.846,40.915 58.012,44.211 C59.69,43.002 61.236,40.435 61.565,39.31 C59.33,46.951 64.513,53.615 64.256,61.155 C64.155,64.107 62.985,65.28 65.305,67.349 C67.225,69.06 71.916,69.09 74.188,68.73 C73.758,67.222 72.563,65.839 71.235,64.713 C75.002,64.505 76.069,67.033 79.001,68.357 C79.454,66.547 79.227,66.094 79.272,63.449 C80.569,64.592 82.054,66.806 83.983,67.452 C88.045,68.814 93.053,67.82 95.233,67.517 C100.638,66.765 105.328,65.147 110.928,65.187 C117.494,65.236 123.785,67.871 130.174,69.074 C133.34,69.67 135.33,69.466 137.823,71.436 C140.124,73.256 142.303,75.254 144.597,77.093 C153.256,84.033 162.629,91.535 163.886,103.369 C164.308,107.346 162.715,111.355 162.189,115.255 C161.657,119.202 160.989,123.887 160.841,127.826 C160.5,136.935 164.4,143.879 165.424,152.759 C166.311,160.437 168.821,173.246 166.341,180.259 C166.341,177.876 165.75,177.299 164.508,174.759 C163.375,179.949 162.299,184.33 161.643,187 C161.567,184.937 162.281,182.409 161.19,180.661 C156.834,185.71 157.467,197.264 157.681,203.755 C157.924,211.143 157.86,214.584 154.625,221.416 C151.186,228.676 147.057,232.2 139.001,233.303 C134.724,233.888 129.66,232.052 127.454,227.528 C125.927,224.396 126.741,220.061 128.473,217.68 C132.096,212.699 135.805,213.375 137.303,209.868 C139.024,205.844 139.849,201.258 138.662,196.963 C138.137,195.06 133.826,187.105 133.908,186.773 C133.623,187.941 134.586,189.491 134.246,190.51 C129.832,189.83 129.04,186.953 127.107,184.762 C125.756,187.114 125.416,187.453 125.756,189.83 C121.341,189.83 119.983,188.133 119.303,185.756 C117.934,188.427 115.907,189.83 113.735,190.109 C113.475,189.357 112.504,188.451 112.296,187.85 C106.403,193.206 107.279,202.41 107.756,209.642 C108.282,217.612 109.438,220.992 110.134,224.473 C111.833,232.969 116.739,235.465 117.266,238.623 C118.171,244.057 115.002,247.68 108.209,248.585 C102.805,249.307 97.948,247.353 95.53,246.208 C89.604,243.404 95.603,235.469 94.567,229.301 C92.332,215.994 92.718,217.1 90.442,210.326 C88.821,205.505 83.983,200.359 81.492,195.603 C79.907,196.963 81.605,196.963 81.266,201.719 C76.511,199.341 76.963,194.246 77.416,187.906 C76.033,189.352 73.993,192.373 72.965,193.755 C73.055,189.9 72.528,188.367 70.397,185.075 C70.397,191.188 71.2,196.89 66.548,201.943 C66.413,201.174 66.244,197.228 66.095,196.51 C66.491,198.407 61.859,203.588 61.016,205.376 C59.032,209.59 57.344,214.713 53.133,216.918 C48.99,219.088 43.767,220.008 42.011,214.565 C41.033,211.533 42.731,208.943 43.002,205.891 C43.227,203.35 42.8,200.842 42.548,198.32 C41.643,189.265 41.189,189.717 39.831,182.019 C38.685,175.526 40.077,170.06 40.391,160.551 C38.299,161.275 36.865,168.365 35.166,172.101 C32.789,168.023 35.46,159.668 35.992,155.876 C33.977,157.917 32.092,160.168 29.391,161.376 C32.743,156.973 36.041,146.92 36.358,141.209 C36.681,135.381 35.361,122.674 35.166,116.826 C34.713,103.24 39.566,98.4 43.454,92.358 C39.679,91.248 22.17,85.564 19.454,80.584 C22.624,79.225 21.853,79.709 22.556,78.435 C20.298,77.139 17.052,76.593 15.412,74.447 C17.673,73.246 19.169,72.637 21.718,72.433 C14.473,69.263 4.057,62.017 2.246,52.509 C4.166,53.01 4.544,54.273 6.774,54.32 C5.416,50.244 0.887,47.98 1.34,42.093 C4.963,43.451 6.467,43.688 8.133,43.904 C0.435,37.565 -3.188,24.886 6.808,8.711 C6.77,10.621 6.742,12.551 6.853,14.445 C10.41,10.32 12.51,4.375 18.151,1.963 C17.402,3.7 16.937,5.314 16.807,7.065 C17.06,3.818 44.36,-5.455 52.511,7.226 C51.051,5.344 44.338,5.179 43.182,6.348 C49.735,9.986 54.734,14.425 53.929,22.627 C53.279,29.256 50.011,35.326 55.079,41.361" fill="#FFFFFE"/>
      <path d="M121.856,158.379 C124.223,158.965 124.939,158.371 127.016,158.076 C127.647,157.986 127.813,161.546 130.591,160.826 C133.311,160.12 133.773,157.773 135.541,156.15 C135.817,156.727 139.139,158.272 139.391,158.9 C139.942,155.051 147.307,148.715 147.439,144.441 C147.405,145.551 147.493,146.643 147.512,147.752 C151.152,147.25 150.809,147.336 152.684,144.492 C153.09,143.874 153.254,142.803 153.684,142.291 C154.215,141.662 155.649,141.914 155.908,141.594 C156.912,140.356 157.186,139.172 157.743,137.544 C158.715,134.709 158.11,132.139 159.924,129.476 C160.826,133.291 161.77,136.427 162.858,140.109 C164.356,145.182 165.059,151.476 164.242,156.947 C162.862,156.188 161.055,154.6 159.568,154.144 C156.594,153.234 154.174,155.734 151.04,155.622 C147.778,155.506 148.068,151.935 145.442,155.051 C143.889,156.893 139.666,163.851 138.567,165.501 C137.466,164.4 136.084,161.559 136.366,161.376 C134.51,162.579 133.725,166.689 132.12,167.946 C131.71,166.505 130.963,165.223 130.123,163.98 C127.316,164.672 127.781,167.338 126.192,169.119 C124.262,167.182 122.908,161.626 119.705,161.668 C118.889,161.68 115.641,164.43 116.002,165.008 C114.516,162.635 112.877,159.928 111.828,157.398 C109.616,157.27 108.83,159.955 107.84,161.742 C104.328,159.057 104.275,147.457 98.692,147.127 C97.256,147.042 96.564,149.718 95.098,150.326 C93.996,148.631 93.819,144.908 94.016,142.943 C94.188,141.241 96.106,138.916 96.133,137.664 C96.098,139.295 96.729,140.508 98.26,140.42 C98.569,138.36 99.241,135.346 99.975,135.709 C101.942,136.682 104.762,146.463 105.278,147.119 C104.977,146.736 105.681,140.81 107.766,142.951 C109.642,144.875 111.881,151.303 114.091,153.675 C116.162,155.896 116.382,155.473 118.848,153.256 C119.782,153.836 121.787,158.362 121.856,158.379" fill="#D7D8D6"/>
      <path d="M69.94,181.81 C71.565,184.379 73.022,187.496 74.318,188.33 C75.684,186.803 78.141,182.27 79.623,186.305 C80.403,188.428 80.096,190.66 81.741,192.32 C82.584,193.173 84.15,193.061 85.102,193.863 C86.373,194.932 87.407,197.098 87.967,198.62 C88.674,200.539 90.299,208.75 93.481,208.209 C96.981,207.615 91.869,196.998 97.764,200.107 C97.717,200.083 102.959,208.901 103.008,208.035 C103.342,202.205 103.076,193.729 107.336,189.055 C108.604,187.664 120.367,181.565 119.316,179.738 C120.219,181.307 120.919,185.428 123.278,185.144 C125.134,184.922 126.526,180.541 128.687,179.771 C129.533,182.731 132.852,183.118 134.614,185.411 C136.176,187.441 137.783,193.682 141.16,193.578 C141.942,191.506 141.58,188.602 143.334,187.08 C145.123,189.51 144.186,192.486 145.176,195.102 C147.69,201.756 149.142,193.184 150.301,191.184 C153.02,192.937 152.145,198.209 155.057,193.904 C156.246,192.148 157.366,188.496 158.02,187.063 C158.026,191.977 157.362,196.961 157.641,201.865 C157.852,205.582 158.925,209.649 156.553,213.026 C155.274,212.221 154.308,210.963 153.977,209.437 C152.994,211.258 151.225,213.451 150.116,215.264 C149.678,213.98 149.1,212.817 148.19,211.922 C146.165,213.295 145.455,216.029 143.811,217.852 C142.255,219.572 137.705,221.047 137.616,223.287 C139.639,223.4 141.741,223.271 143.764,223.417 C139.578,227.327 142.664,227.468 146.063,228.459 C142.935,236.932 130.649,234.076 127.454,227.528 C125.927,224.396 126.741,220.061 128.473,217.68 C132.096,212.699 135.805,213.375 137.303,209.868 C139.024,205.844 139.849,201.258 138.662,196.963 C138.137,195.06 133.826,187.105 133.908,186.773 C133.623,187.941 134.586,189.491 134.246,190.51 C129.832,189.83 129.04,186.953 127.107,184.762 C125.756,187.114 125.416,187.453 125.756,189.83 C121.341,189.83 119.983,188.133 119.303,185.756 C117.934,188.427 115.907,189.83 113.735,190.109 C113.475,189.357 112.504,188.451 112.296,187.85 C106.403,193.206 107.279,202.41 107.756,209.642 C108.282,217.612 109.438,220.992 110.134,224.473 C111.833,232.969 116.739,235.465 117.266,238.623 C118.171,244.057 115.002,247.68 108.209,248.585 C102.805,249.307 97.948,247.353 95.53,246.208 C89.604,243.404 95.328,234.094 94.291,227.926 C92.057,214.619 92.168,216.275 89.891,209.501 C88.271,204.68 83.983,200.359 81.492,195.603 C79.907,196.963 81.605,196.963 81.266,201.719 C76.511,199.341 76.963,194.246 77.416,187.906 C76.033,189.352 73.993,192.373 72.965,193.755 C73.055,189.9 73.322,190.793 71.192,187.501 C71.192,193.614 71.2,196.89 66.548,201.943 C66.413,201.174 66.244,197.228 66.095,196.51 C66.086,196.469 62.657,205.867 62.473,206.473 C62.21,207.332 60.694,207.238 59.916,212.251 C59.186,216.955 60.895,217.371 58.817,221.876 C55.964,228.057 56.592,229.844 56.133,233.982 C55.454,240.096 58.85,245.867 52.737,249.266 C48.835,251.434 34.284,250.171 33.944,245.416 C33.556,239.984 39.14,229.386 39.831,226.85 C41.604,220.35 39.385,219.166 42.041,212.525 C43.768,208.209 43.966,202.076 42.591,195.201 C44.663,199.914 45.837,204.783 47.698,209.497 C51.644,208.535 48.756,204.276 51.053,202.897 C53.692,201.312 55.585,206.521 58.157,205.289 C60.491,204.17 59.237,199.055 60.008,197.094 C60.669,195.41 62.264,193.846 63.188,192.24 C64.147,192.494 65.426,192.185 66.37,192.487 C66.567,188.534 67.598,184.328 65.324,181.634 C64.653,180.84 63.364,181.502 62.741,180.461 C62.334,179.781 63.428,174.246 63.492,173.476 C63.793,169.758 66.011,167.22 68.166,164.126 C67.883,167.384 66.031,174.576 66.242,178.426 C67.889,178.037 68.545,179.606 69.94,181.81" fill="#D7D8D6"/>
    </g>
    <path d="M52.65,160.408 C51.365,159.365 50.093,158.837 48.45,160.997 C44.682,165.955 49.011,174.07 45.257,179.894 C43.748,182.233 41.334,184.273 41.51,187.279 C40.331,182.914 38.696,179.289 38.703,174.626 C38.707,172.142 38.237,163.322 39.676,161.506 C37.52,164.228 36.151,167.93 35.177,171.238 C31.716,169.004 36.394,159.494 35.992,156.242 C33.922,157.391 32.325,161.009 28.698,160.543 C31.958,156.242 35.418,149.28 35.992,144.143 C37.652,129.254 32.541,115.82 37.641,101.426 C38.065,100.229 42.34,91.764 44.242,92.35 C41.579,91.531 40.225,91.838 37.641,90.975 C36.058,90.447 32.507,89.541 27.742,86.576 C31.316,87.4 36.588,88.705 38.54,87.232 C41.38,85.09 37.788,77.848 37.724,74.562 C39.781,74.887 41.321,76.87 43.046,77.703 C42.802,76.246 43.447,74.381 43.228,72.908 C46.423,72.564 49.39,74.455 52.287,75.267 C52.643,73.769 50.619,60.916 49.823,60.81 C52.244,61.131 54.222,63.838 56.258,65.512 C56.086,62.967 56.242,60.406 58.432,59.148 C58.647,60.055 61.127,65.041 61.291,65.951 C60.874,63.635 61.307,55.053 61.838,52.791 C61.871,52.645 61.906,52.51 61.94,52.383 C63.216,57.975 64.916,61.222 65.416,63.475 C66.21,67.056 68.061,68.476 70.916,69.525 C71.733,69.826 74.043,68.261 74.186,68.728 C73.758,67.219 72.563,65.838 71.235,64.713 C75.002,64.505 76.069,67.033 79.001,68.357 C79.454,66.547 79.227,66.094 79.272,63.449 C80.569,64.592 82.054,66.806 83.983,67.452 C88.045,68.814 93.053,67.82 95.233,67.517 C100.638,66.765 105.328,65.147 110.928,65.187 C118.453,65.244 128.377,69.717 135.907,69.717 C139.694,69.717 144.074,68.681 146.97,71.332 C149.735,73.863 152.074,79.86 153.601,83.257 C156.048,88.7 160.28,93.094 162.043,98.961 C163.469,103.707 163.199,109.609 162.502,114.454 C161.58,120.844 162.811,125.744 163.041,132.226 C163.224,137.358 164.49,142.359 165.791,147.351 C166.124,148.627 166.891,158.076 167.203,161.687 C165.03,161.865 165.389,157.066 163.591,156.701 C162.181,156.414 161.02,159.075 159.466,158.626 C157.112,157.944 156.405,155.271 152.574,157.245 C148.505,159.34 148.924,163.851 144.891,163.851 C142.692,163.301 144.413,157.455 145.442,155.051 C146.872,151.707 145.674,147.887 147.641,144.876 C148.865,143.004 149.875,142.806 151.491,140.843 C154.059,137.726 155,136.908 156.991,134.059 C159.081,131.07 159.106,128.348 160.291,125.076 C161.477,121.803 162.074,117.732 161.942,114.076 C161.473,101.296 149.594,91.047 139.758,84.376 C134.223,80.623 128.366,80.709 121.798,80.709 C117.182,80.709 112.461,80.413 107.86,80.709 C101.317,81.13 97.929,84.154 95.207,90.162 C90.996,99.455 89.629,111.054 92.451,120.929 C94.102,126.705 102.272,141.325 95.768,146.645 C94.386,147.776 92.539,146.768 91.422,148.91 C90.604,150.478 91.766,152.951 92.184,154.409 C93.045,157.418 94.813,161.018 93.924,164.309 C92.782,168.549 90.104,166.434 88.58,163.837 C87.18,161.453 86.885,158.725 84.428,157.143 C82.607,155.969 80.616,157.002 78.852,156.146 C77.511,155.498 75.441,153.666 74.492,152.576 C72.684,150.5 71.579,142.878 68.258,143.775 C64.774,144.717 62.237,148.707 61.291,152.575 C60.118,157.38 60.737,162.179 57.267,162.852 C55.404,163.213 54.019,161.518 52.65,160.408" fill="#777776"/>
    <path d="M157.817,133.051 C158.701,131.811 158.809,128.951 160.016,128.926 C163.163,128.865 163.352,134.742 163.866,136.626 C164.557,139.148 164.461,141.842 164.692,144.601 C164.733,145.094 166.861,153.001 165.791,152.025 C163.853,150.258 161.824,146.005 158.916,145.701 C157.069,145.508 145.991,155.876 147.091,149.275 C149.775,146.378 154.211,138.102 157.817,133.051" fill="#636463"/>
    <path d="M75.373,70.398 C75.708,69.533 73.117,68.426 72.841,64.85 C75.437,66.334 78.162,68.774 79.166,68.701 C79.992,67.326 79.599,65.693 79.716,64.301 C83.567,68.975 90.313,68.181 95.416,67.506 C99.776,66.927 102.115,66.332 103.84,71.092 C104.932,74.104 104.848,78.449 103.75,81.461 C101.175,88.498 94.657,92.894 93.091,100.517 C92.114,105.275 93.157,110.051 93.793,114.773 C94.442,119.579 93.442,124.371 94.509,129.144 C94.946,131.102 97.18,135.471 93.548,136.083 C89.776,136.719 88.756,129.829 86.62,135.4 C86.375,136.033 86.651,143.326 86.891,143.362 C83.19,142.806 82.881,138.454 80.585,136.264 C79.713,138.055 80.854,145.06 77.245,143.207 C73.44,141.25 73.194,126.6 67.454,128.487 C65.142,129.251 64.054,137.786 63.079,139.289 C61.518,135.681 61.456,130.796 60.646,126.72 C60.186,127.546 58.586,128.664 58.131,129.432 C56.037,124 55.916,120.084 56.369,114.269 C53.763,119.424 49.689,121.861 43.748,121.666 C45.845,118.51 51.319,114.017 51.014,109.932 C50.851,107.758 44.816,103.394 44.315,105.164 C45.21,102.005 52.183,98.5 54.691,96.201 C53.223,95.186 51.391,94.551 48.038,93.725 C53.316,87.676 64.041,87.126 66.569,83.403 C67.164,82.527 63.774,79.513 63.428,79.974 C67.141,75.028 73.528,75.15 75.373,70.398" fill="#636463"/>
    <path d="M55.079,41.361 C56.051,39.119 57,36.763 57.504,34.34 C58.66,37.502 57.846,40.915 58.012,44.211 C59.69,43.002 61.236,40.435 61.565,39.31 C60.742,48.626 62.598,55.865 66.516,65.126 C68.534,69.892 71.916,69.09 74.188,68.73 C73.758,67.222 72.563,65.839 71.235,64.713 C75.002,64.505 76.069,67.033 79.001,68.357 C79.454,66.547 79.227,66.094 79.272,63.449 C80.569,64.592 82.054,66.806 83.983,67.452 C88.045,68.814 93.053,67.82 95.233,67.517 C100.638,66.765 105.328,65.147 110.928,65.187 C118.453,65.244 128.377,69.717 135.907,69.717 C138.647,69.717 142.696,68.905 145.319,69.671 C147.917,70.43 149.59,72.79 151.625,74.797 C156.132,79.238 151.899,83.044 154.791,88.775 C157.146,93.443 164.573,109.166 163.225,114.809 C161.528,121.912 161.26,119.566 162.124,127.275 C162.557,131.139 163.041,133.601 163.866,137.451 C164.871,142.139 166.34,149.166 166.891,153.951 C167.778,161.629 168.82,172.146 166.525,180.259 C165.887,177.463 165.462,176.17 164.324,173.843 C164.508,178.242 163.775,183.193 161.643,187 C161.567,184.937 162.281,182.409 161.19,180.661 C156.834,185.71 157.467,197.264 157.681,203.755 C157.924,211.143 157.86,214.584 154.625,221.416 C151.186,228.676 147.057,232.2 139.001,233.303 C134.724,233.888 129.66,232.052 127.454,227.528 C125.927,224.396 126.741,220.061 128.473,217.68 C132.096,212.699 135.805,213.375 137.303,209.868 C139.024,205.844 139.849,201.258 138.662,196.963 C138.137,195.06 133.826,187.105 133.908,186.773 C133.623,187.941 134.586,189.491 134.246,190.51 C129.832,189.83 129.04,186.953 127.107,184.762 C126.741,187.775 127.227,188.424 127.567,190.801 C123.151,190.801 119.983,188.133 119.303,185.756 C117.934,188.427 114.889,190.797 112.716,191.076 C112.166,189.15 112.504,188.451 112.296,187.85 C106.403,193.206 107.279,202.41 107.756,209.642 C108.282,217.612 109.438,220.992 110.134,224.473 C111.833,232.969 116.739,235.465 117.266,238.623 C118.171,244.057 115.002,247.68 108.209,248.585 C102.805,249.307 97.948,247.353 95.53,246.208 C89.604,243.404 94.55,235.825 94.291,229.576 C93.942,221.141 92.168,216.55 89.891,209.775 C88.271,204.955 83.983,200.359 81.492,195.603 C81.091,198.501 81.091,198.775 81.266,201.719 C76.511,199.341 76.963,194.246 77.416,187.906 C76.033,189.352 73.502,194.46 72.475,195.843 C73.207,191.809 71.924,190.709 71.192,187.501 C71.192,193.614 69.266,197.126 66.548,201.943 C66.413,201.174 66.244,197.228 66.095,196.51 C66.086,196.469 60.627,207.702 60.192,210.509 C59.461,215.213 60.803,217.738 58.725,222.242 C55.872,228.424 56.592,229.844 56.133,233.982 C55.454,240.096 58.85,245.867 52.737,249.266 C48.835,251.434 34.284,250.171 33.944,245.416 C33.556,239.984 39.14,229.386 39.831,226.85 C41.604,220.35 39.202,218.984 41.858,212.343 C44.576,205.551 43.021,203.051 42.548,198.321 C41.643,189.265 41.383,189.24 40.025,181.542 C38.879,175.049 38.558,170.176 40.025,160.643 C37.932,161.367 36.59,169.74 34.891,173.476 C32.514,169.398 35.093,159.301 35.624,155.509 C34.158,159.176 31.725,160.535 29.025,161.742 C32.375,157.339 36.041,145.82 36.358,140.109 C36.681,134.28 34.576,124.318 34.891,118.476 C35.624,104.909 38.472,96.887 43.454,92.358 C37.916,92.35 23.617,85.201 19.454,80.584 C21.691,79.426 21.853,79.709 22.556,78.435 C20.298,77.139 17.052,76.593 15.412,74.447 C17.673,73.246 19.169,72.637 21.718,72.433 C14.473,69.263 4.057,62.017 2.246,52.509 C4.166,53.01 4.544,54.273 6.774,54.32 C5.416,50.244 0.887,47.98 1.34,42.093 C4.963,43.451 6.467,43.688 8.133,43.904 C0.435,37.565 -3.188,24.886 6.808,8.711 C6.77,10.621 6.742,12.551 6.853,14.445 C10.41,10.32 12.51,4.375 18.151,1.963 C17.402,3.7 16.937,5.314 16.807,7.065 C17.06,3.818 44.36,-5.455 52.511,7.226 C51.051,5.344 44.338,5.179 43.182,6.348 C49.735,9.986 54.734,14.425 53.929,22.627 C53.279,29.256 50.011,35.326 55.079,41.361 z" fill-opacity="0" stroke="#1A1919" stroke-width="1.417" stroke-linecap="round" stroke-linejoin="round"/>
    <path d="M160.658,131.492 C160.448,131.525 158.666,136.696 158.091,137.726 C156.955,139.758 157.679,142.671 155.525,143.775 C155.576,142.008 153.992,141.901 153.609,140.221 C154.233,142.946 149.266,149.23 147.233,150.644 C147.299,148.459 146.531,144.19 147.641,143.043 C150.391,140.201 153.141,135.525 155.616,130.576 C159.158,123.492 162.823,112.786 158.366,109.951 C156.35,108.668 153.416,109.126 148.466,109.126 C149.567,104.726 151.766,100.6 151.216,97.025 C150.485,92.266 143.475,87.389 138.841,87.4 C133.021,87.414 134.833,96.222 133.158,100.143 C132.77,98.09 132.059,95.742 130.444,93.933 C129.674,95.926 128.924,98.088 128.574,100.143 C126.047,96.105 127.615,88.131 122.067,86.85 C118.491,86.025 113.44,88.676 109.692,93.176 C106.082,97.509 107.457,102.936 108.041,108.301 C103.864,108.539 99.311,107.012 96.492,109.951 C89.983,116.734 96.766,129.476 100.708,135.159 C99.243,137.176 99.602,139.342 98.874,141.576 C95.2,140.342 93.944,133.227 93.008,130.209 C92.445,128.393 89.773,128.89 86.409,128.559 C86.92,127.216 86.799,124.353 87.998,123.428 C85.45,120.416 81.784,119.684 80.971,115.074 C83.295,115.365 86.198,114.203 86.489,113.332 C83.584,111.008 81.262,110.428 79.229,106.072 C80.971,107.232 83.003,107.814 84.746,106.652 C84.165,105.781 83.584,105.201 81.842,103.168 C87.993,102.004 88.289,94.342 89.392,87.777 C90.215,82.877 91.889,79.06 94.618,76.453 C94.037,70.355 96.526,50.193 103.041,41.898 C108.471,46.296 116.153,59.322 116.016,64.301 C117.872,65.629 121.792,63.78 124.168,63.903 C123.866,63.569 121.928,60.962 121.573,61.015 C125.744,60.392 128.432,63.316 132.303,64.822 C133.445,64.295 131.658,63.961 130.649,60.147 C134.669,60.519 134.309,63.029 136.824,64.943 C138.567,57.701 144.891,45.509 148.559,43.308 C156.234,51.604 155.586,63.58 156.166,72.001 C159.763,75.736 162.668,91.256 163.225,96.475 C163.834,102.213 166.891,107.201 170.924,107.842 C168.602,109.004 166.875,107.719 165.424,110.043 C168.617,111.785 171.599,112.261 172.025,112.242 C170.573,114.857 166.649,114.962 164.324,115.543 C166.067,118.156 169.647,118.889 170.559,118.843 C169.641,121.501 166.891,122.601 163.958,122.875 C166.282,125.197 164.783,130.759 164.966,133.326 C162.216,131.859 163.041,131.126 160.658,131.492" fill="#777776"/>
    <path d="M136.366,66.775 C136.117,67.378 136.828,70.305 136.458,70.808 C132.059,67.509 133.89,68.106 132.059,67.509 C129.684,66.734 129.223,69.061 126.783,68.934 C128.024,63.424 117.551,69.376 117.391,69.251 C115.465,67.748 115.436,65.991 116.979,65.126 C118.91,64.043 122.904,64.021 124.127,63.808 C123.731,63.338 122.221,60.918 121.573,61.015 C125.744,60.392 128.432,63.316 132.303,64.822 C133.445,64.295 131.658,63.961 130.649,60.148 C130.641,60.119 134.621,62.957 135.358,63.475 C135.541,65.676 137.41,64.239 136.366,66.775" fill="#636463"/>
    <path d="M118.491,103.626 C120.99,103.158 121.401,108.301 118.766,108.301 C116.379,108.301 115.681,104.152 118.491,103.626" fill="#1A1919"/>
    <path d="M139.391,103.626 C142.178,103.535 141.752,108.576 139.116,108.576 C136.785,108.576 137.444,103.689 139.391,103.626" fill="#1A1919"/>
    <path d="M99.604,239.076 C100.313,241.496 100.49,243.996 99.946,246.549 M106.737,239.755 C107.267,242.478 107.076,245.41 107.076,248.246 M111.491,238.736 C113.051,241.094 114.36,244.308 113.19,246.888 M39.152,242.473 C38.303,244.184 37.227,246.741 38.191,248.643 M44.926,242.473 C42.958,246.809 43.691,247.082 43.691,249.742 M51.758,243.143 C50.566,245.801 50.841,248.275 50.566,249.65 M127.794,227.189 C129.14,228.117 130.737,226.957 131.53,225.492 M133.341,232.326 C136.397,231.986 137.715,229.285 138.323,228.209" fill-opacity="0" stroke="#1A1919" stroke-width="1.417" stroke-linecap="round" stroke-linejoin="round"/>
    <path d="M115.741,62.238 C116.567,65.676 117.254,69.251 117.391,71.542" fill="#FFFFFE"/>
    <path d="M115.741,62.238 C116.567,65.676 117.254,69.251 117.391,71.542" fill-opacity="0" stroke="#1A1919" stroke-width="1.417" stroke-linecap="round" stroke-linejoin="round"/>
    <path d="M136.504,64.713 C136.137,67.646 135.953,68.288 135.953,71.588" fill="#FFFFFE"/>
    <path d="M136.504,64.713 C136.137,67.646 135.953,68.288 135.953,71.588" fill-opacity="0" stroke="#1A1919" stroke-width="1.417" stroke-linecap="round" stroke-linejoin="round"/>
    <path d="M145.991,67.51 C144.231,66.95 141.408,70.11 140.491,71.176 C140.18,65.638 144.007,55.915 146.541,51.1 C147.407,49.456 148.052,48.898 149.016,51.1 C149.803,52.898 147.569,56.148 147.683,58.392 C148.627,58.289 149.312,58.31 150.061,57.637 C150.446,59.799 147.922,67.879 152.041,67.051 C152.744,68.797 154.653,72.861 153.279,74.063 C150.346,76.631 146.129,72.688 145.991,67.51" fill="#FFFFFE"/>
    <path d="M146.817,50.826 C143.041,58.666 140.168,65.695 140.491,71.909 C141.594,71.574 144.981,67.479 145.991,67.142 C146.022,70.736 147.229,74.751 152.422,74.421" fill-opacity="0" stroke="#1A1919" stroke-width="1.417" stroke-linecap="round" stroke-linejoin="round"/>
    <path d="M132.241,155.326 C128.653,155.458 127.59,154.628 125.215,153.727 C119.998,151.747 114.244,146.116 114.532,140.146 C117.637,143.283 122.367,148.135 126.466,150.101 C131.087,152.318 135.817,152.025 138.291,147.9 C139.116,149.001 135.83,155.193 132.241,155.326" fill="#D7D8D6"/>
    <path d="M109.828,62.926 C109.922,63.941 110.338,69.323 109.692,70.076 C108.057,71.98 107.216,69.389 105.016,69.389 C104.283,73.422 99.744,77.973 97.958,74.474 C97.166,72.927 99.178,71.531 99.424,70.075 C99.593,69.08 97.861,66.726 98.404,65.67 C98.971,64.566 100.508,65.039 101.18,64.094 C102.582,62.119 99.228,60.563 99.832,58.017 C105.119,58.249 103.16,53.329 103.366,49.451 C108.83,49.375 109.553,59.942 109.828,62.926" fill="#FFFFFE"/>
    <path d="M106.116,50.551 C109.141,56.326 112.16,66.767 108.958,71.542 C108.032,70.924 105.728,69.299 104.559,69.342 C104.768,72.312 103.127,74.773 100.616,75.301" fill-opacity="0" stroke="#1A1919" stroke-width="1.417" stroke-linecap="round" stroke-linejoin="round"/>
    <path d="M135.541,144.601 C139.391,140.476 144.434,129.629 142.692,130.209 C133.581,128.77 127.35,126.31 123.624,131.309 C128.271,137.117 113.569,126.95 115.559,130.576 C118.922,136.435 126.013,144.906 126.741,145.426 C129.309,147.259 134.074,147.534 135.541,144.601" fill="#E07E86"/>
    <path d="M135.541,144.601 C139.391,140.476 144.434,129.629 142.692,130.209 C133.581,128.77 127.35,126.31 123.624,131.309 C128.271,137.117 113.569,126.95 115.559,130.576 C118.922,136.435 126.013,144.906 126.741,145.426 C129.309,147.259 134.074,147.534 135.541,144.601 z M116.291,139.742 C118.491,143.593 121.15,147.168 123.716,149.001 C126.42,150.932 127.711,151.522 129.766,151.751 C134.716,152.301 138.291,149.001 139.391,145.976" fill-opacity="0" stroke="#1A1919" stroke-width="1.417" stroke-linecap="round" stroke-linejoin="round"/>
    <path d="M27.324,52.859 C33.791,53.301 49.191,46.701 50.566,35.426 C40.941,36.525 40.837,31.816 33.791,30.475 C28.775,29.521 21.691,32.676 15.367,24.701 C16.191,32.951 17.841,35.975 14.541,39.551 C13.925,40.219 20.975,41.001 21.26,40.78 C20.712,43.308 17.795,45.759 15.862,47.27 C20.677,48.875 26.712,47.549 31.169,45.647 C31.368,46.919 28.419,52.054 27.324,52.859" fill="#D7D8D6"/>
    <path d="M16.284,24.886 C19.28,27.585 17.939,32.461 18.168,36.158 C20.266,36.184 22.277,34.78 23.903,34 C24.305,38.385 26.035,43.762 21.718,46.169 C26.802,46.983 32.133,42.546 34.85,36.659 C34.915,38.859 36.526,44.436 34.397,47.98 C34.175,48.349 44.032,41.276 45.719,39.829 C51.875,34.545 57.442,24.426 53.041,15.626" fill="#FFFFFE"/>
    <path d="M16.284,24.886 C19.28,27.585 17.939,32.461 18.168,36.158 C20.266,36.184 22.277,34.78 23.903,34 C24.305,38.385 26.035,43.762 21.718,46.169 C26.802,46.983 32.133,42.546 34.85,36.659 C34.915,38.859 36.526,44.436 34.397,47.98 C34.175,48.349 44.032,41.276 45.719,39.829 C51.875,34.545 57.442,24.426 53.041,15.626 M68.258,164.676 C67.223,167.461 66.13,175.91 66.059,178.976 C66.522,178.66 68.954,177.38 69.303,177.189 C68.442,182.093 70.825,185.576 71.924,189.609 M111.067,149.275 C109.692,147.351 108.591,145.426 107.124,141.943 C106.025,143.409 105.475,144.326 104.924,145.609 C101.258,140.842 102.358,139.377 100.158,135.343 C98.692,136.076 99.059,139.742 99.059,141.943 C96.492,139.377 94.291,135.343 92.825,129.843 C91.949,128.465 89.891,128.376 85.858,128.009 C85.858,126.909 86.367,124.656 88.516,123.15 C85.216,121.501 83.841,120.126 80.971,115.074 C83.295,115.365 86.198,114.203 86.489,113.332 C83.584,111.008 81.262,110.428 79.229,106.072 C80.971,107.232 83.003,107.814 84.746,106.652 C84.165,105.781 83.584,105.201 81.842,103.168 C87.993,102.004 88.289,94.342 89.392,87.777 C90.215,82.877 91.889,79.06 94.618,76.453 C94.037,70.355 96.526,50.193 103.041,41.898 C108.471,46.296 115.877,58.222 116.016,64.025 C117.872,65.353 121.792,63.78 124.168,63.903 C123.866,63.569 121.928,60.962 121.573,61.015 C125.744,60.392 128.432,63.316 132.303,64.822 C133.445,64.295 131.658,63.961 130.649,60.147 C134.669,60.519 135.266,63.201 136.458,64.943 C137.924,59.443 146.346,40.551 148.559,42.943 C156.234,51.238 155.311,63.854 155.891,72.275 C161.391,75.85 162.668,90.523 163.225,95.742 C163.834,101.48 165.791,107.201 170.924,107.843 C168.602,109.004 166.875,108.086 165.424,110.409 C169.458,112.242 171.599,112.261 172.025,112.242 C169.366,114.626 167.624,115.909 164.324,115.543 C166.399,118.654 169.366,118.751 171.28,118.109 C170.741,120.676 167.716,122.326 164.442,122.951 C164.966,123.976 166.616,128.926 165.241,133.876 C163.866,132.226 162.491,131.126 160.658,131.309 C159.559,137.176 157.358,140.476 155.891,143.409 C154.924,141.798 154.424,140.843 153.324,140.109 C152.775,141.576 151.766,145.426 147.916,149.551 C148.192,147.626 148.559,146.251 148.466,143.226 C146.266,146.801 144.341,148.176 142.141,150.101" fill-opacity="0" stroke="#1A1919" stroke-width="1.417" stroke-linecap="round" stroke-linejoin="round"/>
    <path d="M122.067,152.301 C124.002,150.893 123.938,149.228 124.68,146.979 C125.442,144.674 128.727,142.668 130.591,141.301 C134.716,138.275 127.137,132.975 123.166,133.601 C118.855,134.281 114.168,142.148 114.091,146.251 C114.027,149.726 119.041,154.501 122.067,152.301" fill="#E39099"/>
    <path d="M122.067,152.301 C124.002,150.893 123.938,149.228 124.68,146.979 C125.442,144.674 128.727,142.668 130.591,141.301 C134.716,138.275 127.137,132.975 123.166,133.601 C118.855,134.281 114.168,142.148 114.091,146.251 C114.027,149.726 119.041,154.501 122.067,152.301 z" fill-opacity="0" stroke="#1A1919" stroke-width="1.417" stroke-linecap="round" stroke-linejoin="round"/>
    <path d="M121.525,143.789 C122.596,141.689 124.564,140.789 124.5,138.042 C121.108,137.401 114.658,146.399 119.315,148.43 C120.092,146.934 120.768,145.273 121.525,143.789" fill="#D17989"/>
    <path d="M110.791,123.976 C112.243,127.17 113.38,128.779 114.458,130.576 C116.658,134.242 117.957,135.703 119.591,137.543 C122.525,140.843 128.643,141.715 132.424,141.576 C137.374,141.393 140.309,140.293 142.692,137.359 C144.871,134.674 145.991,130.943 145.624,125.443" fill="#FFFFFE"/>
    <path d="M110.791,123.976 C112.243,127.17 113.38,128.779 114.458,130.576 C116.658,134.242 117.957,135.703 119.591,137.543 C122.525,140.843 128.643,141.715 132.424,141.576 C137.374,141.393 140.309,140.293 142.692,137.359 C144.871,134.674 145.991,130.943 145.624,125.443" fill-opacity="0" stroke="#1A1919" stroke-width="1.417" stroke-linecap="round" stroke-linejoin="round"/>
    <path d="M138.841,130.851 C141.041,133.051 138.841,137.176 136.641,137.726 C135.66,137.971 132.053,138.654 130.041,137.726 C127.295,136.457 125.174,131.472 128.666,130.025 C131.696,128.77 137.682,129.691 138.841,130.851" fill="#5F5B46"/>
    <path d="M138.841,130.851 C141.041,133.051 138.841,137.176 136.641,137.726 C135.66,137.971 132.053,138.654 130.041,137.726 C127.295,136.457 125.174,131.472 128.666,130.025 C131.696,128.77 137.682,129.691 138.841,130.851 z" fill-opacity="0" stroke="#1A1919" stroke-width="1.417" stroke-linecap="round" stroke-linejoin="round"/>
  </g>
</svg>
