<?xml version="1.0" encoding="iso-8859-1"?>
<!-- Generator: Adobe Illustrator 19.0.0, SVG Export Plug-In . SVG Version: 6.00 Build 0)  -->
<svg version="1.1" id="Layer_1" xmlns="http://www.w3.org/2000/svg" xmlns:xlink="http://www.w3.org/1999/xlink" x="0px" y="0px"
	 viewBox="0 0 508 508" style="enable-background:new 0 0 508 508;" xml:space="preserve">
<circle style="fill:#84DBFF;" cx="254" cy="254" r="254"/>
<g>
	<path style="fill:#FFFFFF;" d="M386.7,226.5c-0.8,21.5-8.3,38.3-17.5,38.3c-9.1,0-16.6-16.8-17.4-38.3c5.3-1.5,11.2-2.4,17.4-2.4
		C375.5,224.1,381.4,225,386.7,226.5z"/>
	<path style="fill:#FFFFFF;" d="M156.2,226.5c-0.8,21.5-8.3,38.3-17.5,38.3c-9.1,0-16.6-16.8-17.4-38.3c5.3-1.5,11.2-2.4,17.4-2.4
		C145,224.1,151,225,156.2,226.5z"/>
</g>
<g>
	<polygon style="fill:#E6E9EE;" points="261.2,159.9 264,265 423.7,288.3 423.7,266.5 	"/>
	<polygon style="fill:#E6E9EE;" points="246.8,159.9 244,265 84.3,288.3 84.3,266.5 	"/>
	<polygon style="fill:#E6E9EE;" points="257.4,343.7 258.7,393 333.5,403.9 333.5,393.7 	"/>
	<polygon style="fill:#E6E9EE;" points="250.6,343.7 249.3,393 174.5,403.9 174.5,393.7 	"/>
</g>
<path style="fill:#FFFFFF;" d="M287.9,186.6c0,93.3-15.2,236.3-33.9,236.3s-33.9-143-33.9-236.3S254,85.2,254,85.2
	S287.9,93.3,287.9,186.6z"/>
<path style="fill:#54C0EB;" d="M277.4,147.4c-6.6-3.2-14.7-5.1-23.4-5.1s-16.8,1.9-23.4,5c3.4-10.9,12.6-18.6,23.4-18.6
	S274,136.6,277.4,147.4z"/>
<g>
	<path style="fill:#FFFFFF;" d="M407.6,113.3c3.9-8.9-0.1-19.3-9-23.2c-4.9-2.2-10.3-1.9-14.8,0.3c-1.7-2.3-4.1-4.1-6.8-5.4
		c-8.9-3.9-19.3,0.1-23.2,9c-0.2,0.5-0.4,1-0.6,1.5c-0.6-0.4-1.3-0.8-2-1.1c-8.9-3.9-19.3,0.1-23.2,9c-3.9,8.9,0.1,19.3,9,23.2
		c0.8,0.4,1.7,0.7,2.6,0.9c0.9,5.8,4.6,11,10.3,13.6c6.7,2.9,14.2,1.4,19.2-3.3c1.5,1.6,3.4,2.9,5.5,3.8c8.9,3.9,19.3-0.1,23.2-9
		c1.5-3.4,1.8-7.1,1.2-10.5C402.6,120.5,405.8,117.4,407.6,113.3z"/>
	<path style="fill:#FFFFFF;" d="M147.6,358c3.9-8.9-0.1-19.3-9-23.2c-4.9-2.2-10.3-1.9-14.8,0.3c-1.7-2.3-4.1-4.1-6.8-5.4
		c-8.9-3.9-19.3,0.1-23.2,9c-0.2,0.5-0.4,1-0.6,1.5c-0.6-0.4-1.3-0.8-2-1.1c-8.9-3.9-19.3,0.1-23.2,9c-3.9,8.9,0.1,19.3,9,23.2
		c0.8,0.4,1.7,0.7,2.6,0.9c0.9,5.8,4.6,11,10.3,13.6c6.7,2.9,14.2,1.4,19.2-3.3c1.5,1.6,3.4,2.9,5.5,3.8c8.9,3.9,19.3-0.1,23.2-9
		c1.5-3.4,1.8-7.1,1.2-10.5C142.6,365.2,145.8,362.1,147.6,358z"/>
</g>
<g>
</g>
<g>
</g>
<g>
</g>
<g>
</g>
<g>
</g>
<g>
</g>
<g>
</g>
<g>
</g>
<g>
</g>
<g>
</g>
<g>
</g>
<g>
</g>
<g>
</g>
<g>
</g>
<g>
</g>
</svg>
