<?xml version="1.0" encoding="iso-8859-1"?>
<!-- Generator: Adobe Illustrator 19.0.0, SVG Export Plug-In . SVG Version: 6.00 Build 0)  -->
<svg version="1.1" id="Capa_1" xmlns="http://www.w3.org/2000/svg" xmlns:xlink="http://www.w3.org/1999/xlink" x="0px" y="0px"
	 viewBox="0 0 335.973 335.973" style="enable-background:new 0 0 335.973 335.973;" xml:space="preserve">
<g id="XMLID_1019_">
	<polygon id="XMLID_1020_" style="fill:#FFDA44;" points="136,165.38 146.662,165.38 146.662,282.663 189.311,282.663 
		189.311,165.38 199.973,165.38 199.973,133.394 136,133.394 	"/>
	<polygon id="XMLID_1021_" style="fill:#FFCD00;" points="306.594,133.394 242.621,133.394 242.621,165.38 253.283,165.38 
		253.283,282.663 295.932,282.663 295.932,165.38 306.594,165.38 	"/>
	<polygon id="XMLID_1022_" style="fill:#FFDA44;" points="29.379,165.38 40.041,165.38 40.041,282.663 82.69,282.663 82.69,165.38 
		93.352,165.38 93.352,133.394 29.379,133.394 	"/>
	<polygon id="XMLID_1023_" style="fill:#00D7DF;" points="311.925,293.325 311.925,261.339 24.048,261.339 24.048,293.325 
		10.721,293.325 10.721,335.973 325.252,335.973 325.252,293.325 	"/>
	<polygon id="XMLID_1024_" style="fill:#FFEB99;" points="6.95,135.477 167.987,0 329.023,135.477 	"/>
	<polygon id="XMLID_1025_" style="fill:#FFCD00;" points="167.987,133.394 167.987,282.663 189.311,282.663 189.311,165.38 
		199.973,165.38 199.973,133.394 	"/>
	<polygon id="XMLID_1026_" style="fill:#FFE477;" points="167.987,0 167.987,135.477 329.023,135.477 	"/>
	<polygon id="XMLID_1027_" style="fill:#00969B;" points="311.925,293.325 311.925,261.339 167.987,261.339 167.987,335.973 
		325.252,335.973 325.252,293.325 	"/>
</g>
<g>
</g>
<g>
</g>
<g>
</g>
<g>
</g>
<g>
</g>
<g>
</g>
<g>
</g>
<g>
</g>
<g>
</g>
<g>
</g>
<g>
</g>
<g>
</g>
<g>
</g>
<g>
</g>
<g>
</g>
</svg>
